<?xml version="1.0" encoding="UTF-8"?>
<svg xmlns="http://www.w3.org/2000/svg" xmlns:xlink="http://www.w3.org/1999/xlink" width="256pt" height="256pt" viewBox="0 0 256 256" version="1.1">
<g id="surface1">
<path style="fill:none;stroke-width:32;stroke-linecap:butt;stroke-linejoin:round;stroke:rgb(0%,0%,0%);stroke-opacity:1;stroke-miterlimit:4;" d="M 57.492188 47.742188 L 425.921875 416.171875 C 311 533.78125 122.492188 535.96875 4.875 421.046875 C -112.742188 306.125 -114.921875 117.617188 0 0 L -90 -91.546875 C -64.71875 -85.359375 -49.25 -59.84375 -55.4375 -34.5625 C -61.632812 -9.28125 -87.148438 6.195312 -112.429688 0 L -112.429688 -5.53125 C -119.046875 -0.875 -127.1875 1.101562 -135.210938 0 L -146.828125 -10.726562 C -148.546875 -6.679688 -151.078125 -3.023438 -154.273438 0 C -128.914062 3.328125 -110.492188 25.765625 -112.15625 51.28125 C -113.828125 76.804688 -135.007812 96.648438 -160.585938 96.648438 C -186.15625 96.648438 -207.34375 76.804688 -209.015625 51.28125 C -210.679688 25.765625 -192.257812 3.328125 -166.898438 0 L -252.328125 -85.4375 C 40.390625 159.679688 21.742188 83.148438 57.492188 47.742188 Z M 57.492188 47.742188 " transform="matrix(0.5,0,0,0.5,0,0)"/>
<path style="fill:none;stroke-width:32;stroke-linecap:round;stroke-linejoin:round;stroke:rgb(0%,0%,0%);stroke-opacity:1;stroke-miterlimit:4;" d="M 400 32 L 322.75 109.25 C 292.578125 198.375 195.875 246.171875 106.75 216 C 17.625 185.828125 -30.171875 89.125 0 0 L 0 14.859375 C -6.640625 16.890625 -13.835938 14.398438 -17.804688 8.695312 C -21.773438 3 -21.609375 -4.609375 -17.398438 -10.140625 C -13.195312 -15.664062 -5.898438 -17.84375 0.648438 -15.53125 C 7.203125 -13.21875 11.515625 -6.945312 11.320312 0 L 288 192 M 320 224 L 331.3125 212.6875 C 272.578125 301.054688 153.335938 325.070312 64.96875 266.34375 C -23.390625 207.609375 -47.414062 88.359375 11.320312 0 L 26.179688 0 C 59.851562 3.9375 84.609375 33.445312 82.640625 67.289062 C 80.671875 101.132812 52.648438 127.570312 18.75 127.570312 C -15.148438 127.570312 -43.171875 101.132812 -45.140625 67.289062 C -47.109375 33.445312 -22.351562 3.9375 11.320312 0 L 480 112 M 440 72 L 360 152 M 200 368 L 100.28125 468.28125 C -29.03125 468.28125 -133.859375 363.453125 -133.859375 234.140625 C -133.859375 104.828125 -29.03125 0 100.28125 0 L 128 328 " transform="matrix(0.5,0,0,0.5,0,0)"/>
</g>
</svg>
