<?xml version="1.0" encoding="UTF-8" standalone="no"?>
<svg
   xmlns:dc="http://purl.org/dc/elements/1.1/"
   xmlns:cc="http://creativecommons.org/ns#"
   xmlns:rdf="http://www.w3.org/1999/02/22-rdf-syntax-ns#"
   xmlns:svg="http://www.w3.org/2000/svg"
   xmlns="http://www.w3.org/2000/svg"
   xmlns:sodipodi="http://sodipodi.sourceforge.net/DTD/sodipodi-0.dtd"
   xmlns:inkscape="http://www.inkscape.org/namespaces/inkscape"
   width="47mm"
   height="35mm"
   viewBox="0 0 47 35"
   version="1.1"
   id="svg8"
   inkscape:version="1.0.2-2 (e86c870879, 2021-01-15)"
   sodipodi:docname="tmp.svg">
  <defs
     id="defs2" />
  <sodipodi:namedview
     id="base"
     pagecolor="#ffffff"
     bordercolor="#666666"
     borderopacity="1.0"
     inkscape:pageopacity="0.0"
     inkscape:pageshadow="2"
     inkscape:zoom="2.8"
     inkscape:cx="74.098251"
     inkscape:cy="79.661248"
     inkscape:document-units="mm"
     inkscape:current-layer="layer1"
     inkscape:document-rotation="0"
     showgrid="false"
     showguides="true"
     inkscape:guide-bbox="true"
     inkscape:window-width="1366"
     inkscape:window-height="705"
     inkscape:window-x="-8"
     inkscape:window-y="-8"
     inkscape:window-maximized="1">
    <sodipodi:guide
       position="98.88972,174.82442"
       orientation="0,-1"
       id="guide989" />
    <sodipodi:guide
       position="94.950208,170.91562"
       orientation="1,0"
       id="guide993" />
    <sodipodi:guide
       position="102.82923,170.91561"
       orientation="1,0"
       id="guide995" />
  </sodipodi:namedview>
  <metadata
     id="metadata5">
    <rdf:RDF>
      <cc:Work
         rdf:about="">
        <dc:format>image/svg+xml</dc:format>
        <dc:type
           rdf:resource="http://purl.org/dc/dcmitype/StillImage" />
        <dc:title></dc:title>
      </cc:Work>
    </rdf:RDF>
  </metadata>
  <g
     inkscape:label="Livello 1"
     inkscape:groupmode="layer"
     id="layer1">
    <path
       id="path961"
       style="fill:none;stroke:#ee2938;stroke-width:0.4;stroke-linecap:round;stroke-linejoin:round;stroke-miterlimit:4;stroke-dasharray:none;stroke-opacity:1"
       d="m 24.974256,12.575861 c -0.656243,0.175995 -1.454692,0.01912 -1.454692,0.01912 0,0 -0.796769,0.156506 -1.452626,-0.0186 -2.319671,0.106262 -6.561805,0.945004 -6.097818,5.731433 0.63477,6.548101 7.550444,6.14743 7.550444,6.14743 0,0 6.915673,0.400671 7.550443,-6.14743 0.463881,-4.785347 -3.775802,-5.625306 -6.095751,-5.731949 z" />
    <path
       style="fill:none;stroke:#ee2938;stroke-width:0.4;stroke-linecap:round;stroke-linejoin:round;stroke-miterlimit:4;stroke-dasharray:none;stroke-opacity:1"
       d="m 19.580204,16.503884 c 0,0 -2e-6,-3.842 3.93951,-3.842 3.93951,0 3.93951,3.842 3.93951,3.842"
       id="path991"
       sodipodi:nodetypes="csc" />
    <path
       id="rect1036"
       style="font-variation-settings:normal;opacity:1;vector-effect:none;fill:none;fill-opacity:1;stroke:#57b14f;stroke-width:0.4;stroke-linecap:round;stroke-linejoin:round;stroke-miterlimit:4;stroke-dasharray:none;stroke-dashoffset:0;stroke-opacity:1;stop-color:#000000;stop-opacity:1"
       d="m 23.519564,9.2913075 c 0,0 -0.769978,0.8733945 -0.76998,1.6520955 0,0.152791 0.03502,0.308213 0.08268,0.460952 0.444127,0.48201 0.687448,1.190723 0.687448,1.19072 0,0 0.243539,-0.708713 0.687663,-1.19072 0.04768,-0.152755 0.08268,-0.308161 0.08268,-0.460952 0,-0.778701 -0.770495,-1.6520955 -0.770495,-1.6520955 z"
       sodipodi:nodetypes="cscccsc" />
    <path
       id="rect1036-3"
       style="font-variation-settings:normal;vector-effect:none;fill:none;fill-opacity:1;stroke:#57b14f;stroke-width:0.4;stroke-linecap:round;stroke-linejoin:round;stroke-miterlimit:4;stroke-dasharray:none;stroke-dashoffset:0;stroke-opacity:1;stop-color:#000000"
       d="m 26.380794,10.943234 c 0,0 -0.37101,1.10368 -1.04538,1.49303 -0.67436,0.38934 -1.815698,0.15881 -1.815698,0.15881 0,0 0.371017,-1.10368 1.045376,-1.49302 0.674382,-0.38936 1.815702,-0.15882 1.815702,-0.15882 z"
       sodipodi:nodetypes="cscsc" />
    <path
       id="rect1036-3-4"
       style="font-variation-settings:normal;vector-effect:none;fill:none;fill-opacity:1;stroke:#57b14f;stroke-width:0.4;stroke-linecap:round;stroke-linejoin:round;stroke-miterlimit:4;stroke-dasharray:none;stroke-dashoffset:0;stroke-opacity:1;stop-color:#000000"
       d="m 20.65864,10.943234 c 0,0 1.141324,-0.23054 1.815694,0.15881 0.67436,0.38934 1.04538,1.49303 1.04538,1.49303 0,0 -1.14132,0.23053 -1.815681,-0.15881 -0.674386,-0.38935 -1.045393,-1.49303 -1.045393,-1.49303 z"
       sodipodi:nodetypes="cscsc" />
    <path
       id="path1136-10"
       style="font-variation-settings:normal;vector-effect:none;fill:#ef3d4b;fill-opacity:1;stroke:none;stroke-width:0.06;stroke-linecap:round;stroke-linejoin:round;stroke-miterlimit:4;stroke-dasharray:none;stroke-dashoffset:0;stroke-opacity:1;stop-color:#000000"
       inkscape:transform-center-x="2.0790566"
       inkscape:transform-center-y="2.7782225"
       d="m 9.5092307,17.477024 c -3.767849,5.5395 -3.767849,5.5395 -3.767849,5.5395 0,0 -0.08951,0.1202 -0.284739,-0.0275 -0.195213,-0.14773 -0.107177,-0.26901 -0.107177,-0.26901 0,0 0,0 4.159765,-5.24297 z m -1.432077,-1.43179 c -5.495484,3.83176 -5.495484,3.83176 -5.495484,3.83176 0,0 -0.126483,0.0804 -0.25621,-0.12724 -0.1297,-0.20763 -0.0042,-0.28954 -0.0042,-0.28954 0,0 0,0 5.755897,-3.41498 z m -0.69923,-1.86542 c -6.43965798,1.84756 -6.43965798,1.84756 -6.43965798,1.84756 0,0 -0.145688,0.0351 -0.201261,-0.20329 -0.05554,-0.23843 0.08971,-0.27533 0.08971,-0.27533 0,0 0,0 6.55121298,-1.36894 z m -0.04192,-1.95585 c -6.68893898,-0.37521 -6.68893898,-0.37521 -6.68893898,-0.37521 0,0 -0.149134,-0.0148 -0.123125,-0.25821 0.02604,-0.24342 0.17534,-0.23046 0.17534,-0.23046 0,0 0,0 6.63672398,0.86388 z m 0.488403,-1.63196 C 1.7691657,7.7255135 1.7691657,7.7255135 1.7691657,7.7255135 c 0,0 -0.132589,-0.0699 -0.01682,-0.28557 0.115789,-0.2157 0.249218,-0.14746 0.249218,-0.14746 0,0 0,0 5.822847,3.2995205 z m 1.012031,-1.6959405 c -4.724668,-4.74975 -4.724668,-4.74975 -4.724668,-4.74975 0,0 -0.101052,-0.11068 0.081,-0.27436 0.182064,-0.16367 0.284454,-0.0542 0.284454,-0.0542 0,0 0,0 4.359219,5.07834 z m 1.6253293,-1.15441 c -3.0318863,-5.97414 -3.0318863,-5.97414 -3.0318863,-5.97414 0,0 -0.06205,-0.13641 0.161567,-0.23607 0.223625,-0.0996 0.287327,0.036 0.287327,0.036 0,0 0,0 2.5829923,6.17418 z m 5.533776,0.47103 c 3.550715,-5.68112 3.550715,-5.68112 3.550715,-5.68112 0,0 0.08479,-0.12357 0.28559,0.0165 0.200783,0.14007 0.117504,0.26467 0.117504,0.26467 0,0 0,0 -3.953809,5.39998 z m -1.695307,-0.7298 c 1.450971,-6.54044 1.450971,-6.54044 1.450971,-6.54044 0,0 0.03868,-0.14479 0.274712,-0.0798 0.23602,0.065 0.199101,0.21027 0.199101,0.21027 0,0 0,0 -1.924784,6.40996 z m -1.938763,-0.21402 c -0.758577,-6.65637 -0.758577,-6.65637 -0.758577,-6.65637 0,0 -0.01059,-0.14949 0.23374,-0.16492 0.244328,-0.0154 0.256734,0.13395 0.256734,0.13395 0,0 0,0 0.268101,6.68734 z" />
    <path
       id="path1136-10-3"
       style="font-variation-settings:normal;vector-effect:none;fill:#ef3d4b;fill-opacity:1;stroke:none;stroke-width:0.0914299;stroke-linecap:round;stroke-linejoin:round;stroke-miterlimit:4;stroke-dasharray:none;stroke-dashoffset:0;stroke-opacity:1;stop-color:#000000"
       inkscape:transform-center-x="-2.9800351"
       inkscape:transform-center-y="-3.2900896"
       d="m 34.720494,16.599314 c 1.03003,-6.6198005 1.03003,-6.6198005 1.03003,-6.6198005 0,0 0.0293,-0.14696 0.26906,-0.0972 0.23969,0.0499 0.21214,0.1971205 0.21214,0.1971205 0,0 0,0 -1.51123,6.51986 z m 1.90754,0.67983 c 3.32288,-5.81732 3.32288,-5.81732 3.32288,-5.81732 0,0 0.0798,-0.12685 0.28602,0.005 0.20617,0.13201 0.12771,0.25988 0.12771,0.25988 0,0 0,0 -3.73678,5.55239 z m 1.43127,1.38572 c 5.02634,-4.42928 5.02634,-4.42928 5.02634,-4.42928 0,0 0.11659,-0.0941 0.26897,0.0974 0.15238,0.19163 0.037,0.28721 0.037,0.28721 0,0 0,0 -5.33229,4.04466 z m 0.87612,1.74914 c 6.20425,-2.52785 6.20425,-2.52785 6.20425,-2.52785 0,0 0.14108,-0.0506 0.22191,0.18052 0.0808,0.23108 -0.0596,0.28337 -0.0596,0.28337 0,0 0,0 -6.36652,2.06396 z m 0.25817,1.6838 c 6.69945,-0.005 6.69945,-0.005 6.69945,-0.005 0,0 0.14976,0.006 0.13763,0.2508 -0.0123,0.2445 -0.16197,0.24004 -0.16197,0.24004 0,0 0,0 -6.67508,-0.48545 z m -0.1875,1.96604 c 6.30444,2.26641 6.30444,2.26641 6.30444,2.26641 0,0 0.13873,0.0566 0.0447,0.28254 -0.0943,0.22592 -0.23376,0.1709 -0.23376,0.1709 0,0 0,0 -6.1151,-2.71992 z m -0.9737,1.7396 c 5.29979,4.09816 5.29979,4.09816 5.29979,4.09816 0,0 0.11448,0.0966 -0.0448,0.28255 -0.15934,0.18583 -0.27501,0.0906 -0.27501,0.0906 0,0 0,0 -4.97995,-4.47129 z m -5.20163,1.94619 c -0.77315,6.6547 -0.77315,6.6547 -0.77315,6.6547 0,0 -0.0237,0.14797 -0.2651,0.10751 -0.24144,-0.0404 -0.2196,-0.18876 -0.2196,-0.18876 0,0 0,0 1.25784,-6.57345 z m 1.8445,-0.0672 c 1.49225,6.53115 1.49225,6.53115 1.49225,6.53115 0,0 0.0271,0.1474 -0.214,0.18983 -0.24116,0.0421 -0.27,-0.10467 -0.27,-0.10467 0,0 0,0 -1.00825,-6.61634 z m 1.84339,-0.63758 c 3.53827,5.68888 3.53827,5.68888 3.53827,5.68888 0,0 0.0737,0.13052 -0.1405,0.24918 -0.21415,0.11863 -0.28936,-0.0109 -0.28936,-0.0109 0,0 0,0 -3.10841,-5.92709 z" />
  </g>
</svg>
