<?xml version="1.0" encoding="UTF-8" standalone="no"?>
<svg
   xmlns:dc="http://purl.org/dc/elements/1.1/"
   xmlns:cc="http://creativecommons.org/ns#"
   xmlns:rdf="http://www.w3.org/1999/02/22-rdf-syntax-ns#"
   xmlns:svg="http://www.w3.org/2000/svg"
   xmlns="http://www.w3.org/2000/svg"
   xmlns:sodipodi="http://sodipodi.sourceforge.net/DTD/sodipodi-0.dtd"
   xmlns:inkscape="http://www.inkscape.org/namespaces/inkscape"
   width="210mm"
   height="297mm"
   viewBox="0 0 210 297"
   version="1.1"
   id="svg8"
   inkscape:version="1.0.2 (e86c870879, 2021-01-15, custom)"
   sodipodi:docname="disegno.svg">
  <defs
     id="defs2" />
  <sodipodi:namedview
     id="base"
     pagecolor="#ffffff"
     bordercolor="#666666"
     borderopacity="1.0"
     inkscape:pageopacity="0.0"
     inkscape:pageshadow="2"
     inkscape:zoom="2.8"
     inkscape:cx="320.12642"
     inkscape:cy="557.58854"
     inkscape:document-units="mm"
     inkscape:current-layer="layer1"
     inkscape:document-rotation="0"
     showgrid="false"
     inkscape:window-width="1406"
     inkscape:window-height="1040"
     inkscape:window-x="104"
     inkscape:window-y="0"
     inkscape:window-maximized="0" />
  <metadata
     id="metadata5">
    <rdf:RDF>
      <cc:Work
         rdf:about="">
        <dc:format>image/svg+xml</dc:format>
        <dc:type
           rdf:resource="http://purl.org/dc/dcmitype/StillImage" />
        <dc:title></dc:title>
      </cc:Work>
    </rdf:RDF>
  </metadata>
  <g
     inkscape:label="Livello 1"
     inkscape:groupmode="layer"
     id="layer1">
    <g
       inkscape:label="Livello 1"
       id="layer1-9"
       transform="translate(51.657646,129.2666)">
      <path
         id="path961"
         style="fill:none;stroke:#ee2938;stroke-width:1.51181;stroke-linecap:round;stroke-linejoin:round;stroke-miterlimit:4;stroke-dasharray:none;stroke-opacity:1"
         transform="matrix(0.26458333,0,0,0.26458333,-51.657646,-129.2666)"
         d="m 289.63281,536.09766 c -2.48029,0.66517 -5.49804,0.0723 -5.49804,0.0723 0,0 -3.01141,0.59147 -5.49024,-0.0703 -8.76726,0.40162 -24.80053,3.57167 -23.04687,21.66211 2.39913,24.74873 28.53711,23.23437 28.53711,23.23437 0,0 26.13797,1.51436 28.53711,-23.23437 1.75321,-18.08635 -14.27076,-21.261 -23.03907,-21.66406 z" />
      <path
         id="path991"
         style="fill:none;stroke:#ee2938;stroke-width:1.51181;stroke-linecap:round;stroke-linejoin:round;stroke-miterlimit:4;stroke-dasharray:none;stroke-opacity:1"
         transform="matrix(0.26458333,0,0,0.26458333,-51.657646,-129.2666)"
         d="m 284.13477,536.42188 c -14.8895,-10e-6 -14.88868,14.52148 -14.88868,14.52148 h 29.77735 c 0,0 8.1e-4,-14.52148 -14.88867,-14.52148 z" />
      <path
         id="rect1036"
         style="font-variation-settings:normal;opacity:1;vector-effect:none;fill:none;fill-opacity:1;stroke:#57b14f;stroke-width:1.51181;stroke-linecap:round;stroke-linejoin:round;stroke-miterlimit:4;stroke-dasharray:none;stroke-dashoffset:0;stroke-opacity:1;stop-color:#000000;stop-opacity:1"
         transform="matrix(0.26458333,0,0,0.26458333,-51.657646,-129.2666)"
         d="m 284.13477,523.68359 c 0,0 -2.91015,3.30102 -2.91016,6.24414 0,0.57748 0.13237,1.16491 0.3125,1.74219 1.67859,1.82177 2.59766,4.50001 2.59766,4.5 0,0 0.92103,-2.67824 2.59961,-4.5 0.18019,-0.57734 0.3125,-1.16471 0.3125,-1.74219 0,-2.94312 -2.91211,-6.24414 -2.91211,-6.24414 z" />
      <path
         id="rect1036-3"
         style="font-variation-settings:normal;vector-effect:none;fill:none;fill-opacity:1;stroke:#57b14f;stroke-width:1.51181;stroke-linecap:round;stroke-linejoin:round;stroke-miterlimit:4;stroke-dasharray:none;stroke-dashoffset:0;stroke-opacity:1;stop-color:#000000"
         transform="matrix(0.26458333,0,0,0.26458333,-51.657646,-129.2666)"
         d="m 292.47266,529.67578 c -1.39702,-0.0339 -3.1123,0.11577 -4.38672,0.85156 -2.54876,1.47153 -3.95117,5.64258 -3.95117,5.64258 0,0 4.31451,0.87191 6.86328,-0.59961 2.5488,-1.47156 3.95117,-5.64258 3.95117,-5.64258 0,0 -1.07955,-0.21807 -2.47656,-0.25195 z" />
      <path
         id="rect1036-3-4"
         style="font-variation-settings:normal;vector-effect:none;fill:none;fill-opacity:1;stroke:#57b14f;stroke-width:1.51181;stroke-linecap:round;stroke-linejoin:round;stroke-miterlimit:4;stroke-dasharray:none;stroke-dashoffset:0;stroke-opacity:1;stop-color:#000000"
         transform="matrix(0.26458333,0,0,0.26458333,-51.657646,-129.2666)"
         d="m 275.79688,529.67578 c -1.39702,0.0339 -2.47461,0.25195 -2.47461,0.25195 0,0 1.40231,4.17102 3.95117,5.64258 2.54876,1.47152 6.86133,0.59961 6.86133,0.59961 0,0 -1.40241,-4.17105 -3.95118,-5.64258 -1.2744,-0.73578 -2.98972,-0.88545 -4.38671,-0.85156 z" />
      <path
         id="path1136-10"
         style="font-variation-settings:normal;vector-effect:none;fill:#ef3d4b;fill-opacity:1;stroke:none;stroke-width:0.226772;stroke-linecap:round;stroke-linejoin:round;stroke-miterlimit:4;stroke-dasharray:none;stroke-dashoffset:0;stroke-opacity:1;stop-color:#000000"
         inkscape:transform-center-x="2.0790566"
         inkscape:transform-center-y="2.7782225"
         transform="matrix(0.26458333,0,0,0.26458333,-51.657646,-129.2666)"
         d="m 267.88867,502.02148 c -0.13696,0.20887 -0.27285,0.41832 -0.41015,0.62696 0.0909,-0.0992 0.17721,-0.20278 0.27148,-0.29883 0.007,-0.008 0.019,-0.009 0.0273,-0.0156 0.0383,-0.10369 0.0732,-0.20874 0.11133,-0.3125 z m -26.71094,7.12696 0.0606,0.5332 c 0.0634,-0.16142 0.12476,-0.32353 0.19531,-0.48242 -0.0843,-0.0132 -0.17058,-0.0324 -0.25586,-0.0508 z m 19.34961,3.36133 c -0.0754,0.0506 0.0348,-0.0263 -0.18945,0.12304 0.33714,-0.09 0.3359,-0.10695 0.18945,-0.12304 z m -18.69531,2.375 0.13086,1.15429 -0.0449,-1.12695 c -0.0279,-0.009 -0.0607,-0.019 -0.0859,-0.0273 z m -14.23828,6.08789 c -0.0493,0.007 -0.10044,0.01 -0.15234,0.0117 l 1.19726,1.20507 z m -5.79687,6.18945 c 0.003,0.004 0.005,0.009 0.008,0.0137 l 2.45508,1.16211 c -0.13776,-0.0701 -0.003,-0.016 -0.3125,-0.23047 l -0.44336,-0.25 c -0.51758,-0.19462 -1.07843,-0.41775 -1.70703,-0.69531 z m 9.38476,27.45898 -1.11328,1.40235 c 0.0395,0.0141 0.0948,0.0245 0.13281,0.0391 z" />
    </g>
  </g>
</svg>
