<?xml version="1.0" encoding="UTF-8"?>
<svg xmlns="http://www.w3.org/2000/svg" xmlns:xlink="http://www.w3.org/1999/xlink" width="2732pt" height="2732pt" viewBox="0 0 2732 2732" version="1.1">
<defs>
<clipPath id="clip1">
  <path d="M 1071.257812 0 L 1649.179688 0 L 1649.179688 1697.039062 L 1071.257812 1697.039062 Z M 1071.257812 0 "/>
</clipPath>
</defs>
<g id="surface1">
<g clip-path="url(#clip1)" clip-rule="nonzero">
<path style=" stroke:none;fill-rule:nonzero;fill:rgb(94.509804%,20%,24.705882%);fill-opacity:1;" d="M 1331.667969 396.449219 C 1355.886719 437.273438 1415.542969 659.453125 1447.550781 626.089844 C 1467.0625 605.753906 1432.582031 428.203125 1407.636719 329.453125 C 1414.042969 287.632812 1486.859375 297.675781 1508.480469 296.871094 C 1592.753906 428.5 1649.183594 668.925781 1649.183594 943.640625 C 1649.183594 1359.664062 1519.777344 1697.023438 1360.222656 1697.023438 C 1200.65625 1697.023438 1071.257812 1359.664062 1071.257812 943.640625 C 1071.257812 703.785156 1114.269531 490.085938 1181.277344 352.09375 C 1196.242188 342.285156 1199.710938 372.707031 1262.847656 329.050781 C 1232.894531 364.039062 1205.777344 528.964844 1218.03125 620.828125 C 1255.953125 646.449219 1304.238281 400.023438 1331.667969 396.449219 Z M 1193.519531 324.167969 C 1252.816406 226.722656 1255.65625 222.390625 1312.21875 203.53125 C 1324.695312 199.386719 1342.824219 110.996094 1337.777344 19.554688 C 1341.386719 11.121094 1347.78125 -4.652344 1355.210938 1.3125 C 1367.066406 10.824219 1373.570312 125.011719 1369.667969 194.398438 C 1413.539062 186.027344 1480.960938 230.085938 1488.710938 267.167969 C 1449.359375 250.402344 1396.230469 272.792969 1394.824219 312.941406 C 1390.515625 436.34375 1427.332031 443.300781 1440.894531 584.929688 C 1400.363281 540.171875 1355.410156 409.726562 1334.902344 349.621094 C 1311.730469 347.71875 1276.949219 449.390625 1228.496094 577.253906 C 1228.496094 453.617188 1283.019531 331.1875 1277.398438 298.375 C 1273.796875 277.359375 1221.210938 327.992188 1193.519531 324.167969 Z M 1193.519531 324.167969 "/>
</g>
<path style=" stroke:none;fill-rule:nonzero;fill:rgb(20.784314%,20.392157%,20.392157%);fill-opacity:1;" d="M 147.238281 2550.914062 C 152.054688 2576.195312 156.125 2595.085938 159.453125 2607.59375 C 162.871094 2619.824219 166.808594 2628.929688 171.273438 2634.910156 C 175.828125 2640.890625 182.003906 2644.425781 189.796875 2645.515625 C 189.796875 2664.542969 189.355469 2678.679688 188.480469 2687.921875 C 167.027344 2687.921875 150.523438 2690.773438 138.964844 2696.484375 C 130.996094 2656.796875 123.992188 2618.328125 117.949219 2581.085938 L 114.140625 2559.476562 C 107.574219 2523.050781 101.617188 2492.601562 96.277344 2468.136719 C 90.933594 2443.671875 83.84375 2416.761719 75 2387.402344 L 65.277344 2388.214844 C 62.125 2388.214844 58.011719 2387.535156 52.933594 2386.175781 L 52.933594 2563.554688 C 52.933594 2596.175781 54.378906 2618.195312 57.265625 2629.609375 C 60.070312 2641.027344 65.585938 2647.417969 73.816406 2648.777344 C 74.867188 2658.5625 75.394531 2672.5625 75.394531 2690.773438 C 66.285156 2688.871094 53.765625 2687.921875 37.828125 2687.921875 C 22.066406 2687.921875 9.457031 2688.871094 0 2690.773438 C 0 2673.105469 0.523438 2659.105469 1.574219 2648.777344 C 10.15625 2647.417969 15.9375 2641.027344 18.914062 2629.609375 C 21.890625 2618.195312 23.378906 2596.175781 23.378906 2563.554688 L 23.378906 2150.492188 C 23.378906 2117.871094 21.847656 2095.578125 18.78125 2083.617188 C 15.71875 2071.386719 9.980469 2065.269531 1.574219 2065.269531 C 0.523438 2054.941406 0 2041.210938 0 2024.085938 C 8.40625 2025.445312 21.015625 2026.125 37.828125 2026.125 C 49.386719 2026.125 58.097656 2025.851562 63.964844 2025.308594 L 90.496094 2024.085938 C 113.175781 2024.085938 130.296875 2039.308594 141.855469 2069.753906 C 153.414062 2100.203125 159.191406 2139.890625 159.191406 2188.820312 C 159.191406 2231.773438 154.507812 2268.878906 145.136719 2300.140625 C 135.769531 2331.402344 122.808594 2353.558594 106.257812 2366.605469 C 113.613281 2390.800781 119.789062 2414.449219 124.777344 2437.554688 C 129.859375 2460.933594 137.34375 2498.71875 147.238281 2550.914062 Z M 52.933594 2341.324219 C 58.011719 2343.226562 62.652344 2344.179688 66.855469 2344.179688 C 85.15625 2344.179688 99.953125 2331.945312 111.25 2307.480469 C 122.632812 2283.015625 128.324219 2246.722656 128.324219 2198.609375 C 128.324219 2157.289062 124.164062 2125.074219 115.847656 2101.96875 C 107.527344 2078.863281 94.351562 2067.308594 76.3125 2067.308594 C 68.695312 2067.308594 60.902344 2069.890625 52.933594 2075.054688 Z M 299.207031 2696.484375 C 281.082031 2696.484375 265.101562 2686.019531 251.265625 2665.085938 C 237.34375 2644.425781 226.570312 2615.066406 218.953125 2577.011719 C 211.25 2539.222656 207.394531 2495.1875 207.394531 2444.894531 C 207.394531 2395.421875 211.25 2351.382812 218.953125 2312.78125 C 226.570312 2274.449219 237.386719 2244.683594 251.398438 2223.480469 C 265.40625 2202.277344 281.519531 2191.675781 299.730469 2191.675781 C 317.859375 2191.675781 333.839844 2202.140625 347.671875 2223.074219 C 361.597656 2243.734375 372.367188 2273.226562 379.984375 2311.558594 C 387.691406 2349.613281 391.542969 2393.515625 391.542969 2443.265625 C 391.542969 2493.28125 387.691406 2537.457031 379.984375 2575.785156 C 372.367188 2613.84375 361.550781 2643.476562 347.542969 2664.679688 C 333.53125 2685.882812 317.417969 2696.484375 299.207031 2696.484375 Z M 303.539062 2651.628906 C 320.617188 2651.628906 334.144531 2633.960938 344.125 2598.621094 C 354.109375 2563.554688 359.101562 2516.660156 359.101562 2457.945312 C 359.101562 2415.535156 356.34375 2377.480469 350.824219 2343.769531 C 345.398438 2310.0625 337.777344 2283.828125 327.972656 2265.074219 C 318.25 2246.042969 307.261719 2236.53125 295.003906 2236.53125 C 278.015625 2236.53125 264.574219 2254.335938 254.679688 2289.945312 C 244.785156 2325.558594 239.839844 2372.3125 239.839844 2430.214844 C 239.839844 2473.980469 242.597656 2512.71875 248.113281 2546.429688 C 253.542969 2579.863281 261.117188 2605.824219 270.835938 2624.308594 C 280.46875 2642.523438 291.371094 2651.628906 303.539062 2651.628906 Z M 498.328125 2694.445312 C 486.769531 2694.445312 476.347656 2690.910156 467.066406 2683.84375 C 457.699219 2676.777344 447.539062 2666.039062 436.59375 2651.628906 C 438.871094 2607.863281 439.703125 2569.941406 439.089844 2537.863281 C 443.730469 2533.515625 449.421875 2531.339844 456.164062 2531.339844 C 456.601562 2571.574219 460.761719 2600.933594 468.644531 2619.417969 C 476.523438 2637.628906 487.601562 2646.738281 501.875 2646.738281 C 514.046875 2646.738281 523.632812 2640.890625 530.636719 2629.203125 C 537.730469 2617.242188 541.277344 2601.476562 541.277344 2581.902344 C 541.277344 2568.3125 539.527344 2556.484375 536.023438 2546.429688 C 532.609375 2536.371094 528.40625 2527.808594 523.414062 2520.738281 C 518.511719 2513.941406 511.332031 2505.378906 501.875 2495.050781 C 488.828125 2481.1875 478.363281 2468.273438 470.480469 2456.3125 C 462.601562 2444.351562 455.769531 2427.769531 449.992188 2406.566406 C 444.210938 2385.363281 441.324219 2358.722656 441.324219 2326.644531 C 441.324219 2282.878906 446.621094 2249.578125 457.214844 2226.742188 C 467.8125 2203.910156 482.390625 2192.492188 500.953125 2192.492188 C 510.761719 2192.492188 520.570312 2195.480469 530.375 2201.460938 C 540.183594 2207.171875 547.800781 2214.644531 553.230469 2223.890625 C 553.054688 2230.957031 552.96875 2242.101562 552.96875 2257.324219 C 552.96875 2286.683594 553.582031 2309.789062 554.804688 2326.644531 C 550.429688 2333.710938 544.648438 2337.246094 537.46875 2337.246094 C 534.492188 2300.277344 529.71875 2274.449219 523.152344 2259.773438 C 516.496094 2245.09375 508.351562 2237.753906 498.722656 2237.753906 C 489.441406 2237.753906 481.910156 2242.644531 476.128906 2252.433594 C 470.351562 2262.21875 467.460938 2276.488281 467.460938 2295.246094 C 467.460938 2316.722656 470.832031 2333.984375 477.574219 2347.03125 C 484.316406 2360.082031 494.824219 2374.488281 509.097656 2390.253906 C 521.269531 2403.304688 531.25 2415.671875 539.042969 2427.363281 C 546.835938 2439.050781 553.449219 2454.953125 558.878906 2475.070312 C 564.394531 2494.914062 567.152344 2519.789062 567.152344 2549.691406 C 567.152344 2592.914062 561.460938 2627.84375 550.078125 2654.484375 C 538.695312 2681.125 521.445312 2694.445312 498.328125 2694.445312 Z M 679.585938 2694.445312 C 668.027344 2694.445312 657.605469 2690.910156 648.324219 2683.84375 C 638.957031 2676.777344 628.796875 2666.039062 617.851562 2651.628906 C 620.128906 2607.863281 620.960938 2569.941406 620.347656 2537.863281 C 624.988281 2533.515625 630.679688 2531.339844 637.421875 2531.339844 C 637.859375 2571.574219 642.019531 2600.933594 649.902344 2619.417969 C 657.78125 2637.628906 668.859375 2646.738281 683.132812 2646.738281 C 695.304688 2646.738281 704.890625 2640.890625 711.894531 2629.203125 C 718.988281 2617.242188 722.535156 2601.476562 722.535156 2581.902344 C 722.535156 2568.3125 720.785156 2556.484375 717.28125 2546.429688 C 713.867188 2536.371094 709.664062 2527.808594 704.671875 2520.738281 C 699.769531 2513.941406 692.589844 2505.378906 683.132812 2495.050781 C 670.085938 2481.1875 659.621094 2468.273438 651.738281 2456.3125 C 643.859375 2444.351562 637.027344 2427.769531 631.25 2406.566406 C 625.46875 2385.363281 622.582031 2358.722656 622.582031 2326.644531 C 622.582031 2282.878906 627.878906 2249.578125 638.472656 2226.742188 C 649.070312 2203.910156 663.648438 2192.492188 682.210938 2192.492188 C 692.019531 2192.492188 701.828125 2195.480469 711.632812 2201.460938 C 721.441406 2207.171875 729.058594 2214.644531 734.488281 2223.890625 C 734.3125 2230.957031 734.226562 2242.101562 734.226562 2257.324219 C 734.226562 2286.683594 734.839844 2309.789062 736.0625 2326.644531 C 731.6875 2333.710938 725.90625 2337.246094 718.726562 2337.246094 C 715.75 2300.277344 710.976562 2274.449219 704.410156 2259.773438 C 697.753906 2245.09375 689.609375 2237.753906 679.980469 2237.753906 C 670.695312 2237.753906 663.167969 2242.644531 657.386719 2252.433594 C 651.609375 2262.21875 648.71875 2276.488281 648.71875 2295.246094 C 648.71875 2316.722656 652.089844 2333.984375 658.832031 2347.03125 C 665.574219 2360.082031 676.082031 2374.488281 690.355469 2390.253906 C 702.527344 2403.304688 712.507812 2415.671875 720.300781 2427.363281 C 728.09375 2439.050781 734.707031 2454.953125 740.136719 2475.070312 C 745.652344 2494.914062 748.410156 2519.789062 748.410156 2549.691406 C 748.410156 2592.914062 742.71875 2627.84375 731.335938 2654.484375 C 719.953125 2681.125 702.703125 2694.445312 679.585938 2694.445312 Z M 880.414062 2696.484375 C 862.375 2696.484375 846.394531 2686.019531 832.472656 2665.085938 C 818.636719 2644.425781 807.867188 2615.066406 800.160156 2577.011719 C 792.542969 2539.222656 788.734375 2495.1875 788.734375 2444.894531 C 788.734375 2395.421875 792.542969 2351.382812 800.160156 2312.78125 C 807.867188 2274.449219 818.722656 2244.683594 832.734375 2223.480469 C 846.65625 2202.277344 862.769531 2191.675781 881.070312 2191.675781 C 899.109375 2191.675781 915.089844 2202.140625 929.011719 2223.074219 C 942.847656 2243.734375 953.617188 2273.226562 961.324219 2311.558594 C 968.941406 2349.613281 972.75 2393.515625 972.75 2443.265625 C 972.75 2493.28125 968.941406 2537.457031 961.324219 2575.785156 C 953.617188 2613.84375 942.800781 2643.476562 928.878906 2664.679688 C 914.871094 2685.882812 898.714844 2696.484375 880.414062 2696.484375 Z M 884.878906 2651.628906 C 901.867188 2651.628906 915.351562 2633.960938 925.332031 2598.621094 C 935.316406 2563.554688 940.308594 2516.660156 940.308594 2457.945312 C 940.308594 2415.535156 937.59375 2377.480469 932.164062 2343.769531 C 926.648438 2310.0625 919.027344 2283.828125 909.308594 2265.074219 C 899.503906 2246.042969 888.511719 2236.53125 876.339844 2236.53125 C 859.355469 2236.53125 845.914062 2254.335938 836.019531 2289.945312 C 826.125 2325.558594 821.175781 2372.3125 821.175781 2430.214844 C 821.175781 2473.980469 823.890625 2512.71875 829.320312 2546.429688 C 834.835938 2579.863281 842.410156 2605.824219 852.042969 2624.308594 C 861.761719 2642.523438 872.707031 2651.628906 884.878906 2651.628906 Z M 1090.699219 2024.085938 C 1115.304688 2024.085938 1133.386719 2041.890625 1144.945312 2077.503906 C 1156.503906 2113.113281 1162.28125 2158.648438 1162.28125 2214.101562 C 1162.28125 2253.246094 1159.523438 2289.945312 1154.007812 2324.199219 C 1148.578125 2358.449219 1140.433594 2386.3125 1129.578125 2407.789062 C 1118.804688 2429.265625 1105.847656 2440.003906 1090.699219 2440.003906 C 1081.855469 2440.003906 1074.5 2436.46875 1068.632812 2429.402344 C 1068.195312 2421.515625 1067.976562 2415.265625 1067.976562 2410.644531 C 1067.976562 2403.03125 1068.28125 2395.964844 1068.894531 2389.441406 C 1074.148438 2393.246094 1079.753906 2395.148438 1085.707031 2395.148438 C 1115.304688 2395.148438 1130.101562 2344.3125 1130.101562 2242.644531 C 1130.101562 2187.734375 1125.8125 2144.78125 1117.230469 2113.792969 C 1108.5625 2082.804688 1095.078125 2067.308594 1076.777344 2067.308594 C 1072.222656 2067.308594 1066.882812 2069.210938 1060.75 2073.015625 L 1060.75 2543.980469 C 1060.75 2571.980469 1061.714844 2593.320312 1063.640625 2608 C 1065.480469 2622.679688 1068.371094 2632.738281 1072.308594 2638.175781 C 1076.164062 2643.882812 1081.679688 2647.417969 1088.859375 2648.777344 C 1089.910156 2657.746094 1090.4375 2671.746094 1090.4375 2690.773438 C 1080.714844 2688.871094 1067.449219 2687.921875 1050.636719 2687.921875 C 1030.234375 2687.921875 1015.960938 2688.871094 1007.820312 2690.773438 C 1007.820312 2671.746094 1008.34375 2657.746094 1009.394531 2648.777344 C 1017.800781 2647.417969 1023.535156 2641.027344 1026.601562 2629.609375 C 1029.578125 2618.195312 1031.066406 2596.175781 1031.066406 2563.554688 L 1031.066406 2150.492188 C 1031.066406 2117.871094 1029.578125 2095.851562 1026.601562 2084.433594 C 1023.535156 2073.015625 1017.800781 2066.628906 1009.394531 2065.269531 C 1008.34375 2056.300781 1007.820312 2042.300781 1007.820312 2023.269531 C 1018.765625 2025.171875 1033.039062 2026.125 1050.636719 2026.125 Z M 1282.332031 2696.484375 C 1264.292969 2696.484375 1248.3125 2686.019531 1234.390625 2665.085938 C 1220.554688 2644.425781 1209.785156 2615.066406 1202.078125 2577.011719 C 1194.460938 2539.222656 1190.652344 2495.1875 1190.652344 2444.894531 C 1190.652344 2395.421875 1194.460938 2351.382812 1202.078125 2312.78125 C 1209.785156 2274.449219 1220.644531 2244.683594 1234.652344 2223.480469 C 1248.578125 2202.277344 1264.6875 2191.675781 1282.988281 2191.675781 C 1301.027344 2191.675781 1317.007812 2202.140625 1330.929688 2223.074219 C 1344.765625 2243.734375 1355.535156 2273.226562 1363.242188 2311.558594 C 1370.859375 2349.613281 1374.667969 2393.515625 1374.667969 2443.265625 C 1374.667969 2493.28125 1370.859375 2537.457031 1363.242188 2575.785156 C 1355.535156 2613.84375 1344.722656 2643.476562 1330.800781 2664.679688 C 1316.789062 2685.882812 1300.632812 2696.484375 1282.332031 2696.484375 Z M 1286.796875 2651.628906 C 1303.785156 2651.628906 1317.269531 2633.960938 1327.253906 2598.621094 C 1337.234375 2563.554688 1342.226562 2516.660156 1342.226562 2457.945312 C 1342.226562 2415.535156 1339.511719 2377.480469 1334.082031 2343.769531 C 1328.566406 2310.0625 1320.949219 2283.828125 1311.230469 2265.074219 C 1301.421875 2246.042969 1290.433594 2236.53125 1278.261719 2236.53125 C 1261.273438 2236.53125 1247.832031 2254.335938 1237.9375 2289.945312 C 1228.042969 2325.558594 1223.09375 2372.3125 1223.09375 2430.214844 C 1223.09375 2473.980469 1225.808594 2512.71875 1231.238281 2546.429688 C 1236.753906 2579.863281 1244.328125 2605.824219 1253.960938 2624.308594 C 1263.679688 2642.523438 1274.625 2651.628906 1286.796875 2651.628906 Z M 1638.9375 2648.777344 C 1639.988281 2659.105469 1640.511719 2672.699219 1640.511719 2689.550781 C 1629.128906 2688.464844 1617.351562 2687.921875 1605.179688 2687.921875 C 1594.234375 2687.921875 1582.675781 2688.464844 1570.507812 2689.550781 C 1570.507812 2676.503906 1571.03125 2662.910156 1572.082031 2648.777344 C 1579 2646.601562 1583.726562 2642.523438 1586.265625 2636.542969 C 1588.808594 2630.289062 1590.078125 2618.328125 1590.078125 2600.660156 C 1590.078125 2596.039062 1589.640625 2582.039062 1588.761719 2558.660156 L 1579.042969 2325.828125 L 1522.828125 2674.871094 C 1519.5 2678.949219 1515.429688 2680.988281 1510.613281 2680.988281 L 1452.292969 2327.460938 L 1443.496094 2534.195312 C 1442.792969 2551.863281 1442.445312 2566.816406 1442.445312 2579.046875 C 1442.445312 2604.601562 1443.886719 2622.269531 1446.777344 2632.058594 C 1449.578125 2641.84375 1454.441406 2647.417969 1461.355469 2648.777344 C 1462.40625 2659.105469 1462.933594 2672.699219 1462.933594 2689.550781 C 1451.636719 2688.464844 1441.65625 2687.921875 1432.988281 2687.921875 C 1423.792969 2687.921875 1414.335938 2688.464844 1404.617188 2689.550781 C 1404.617188 2672.699219 1405.140625 2659.105469 1406.191406 2648.777344 C 1411.269531 2647.417969 1415.210938 2643.476562 1418.011719 2636.949219 C 1420.902344 2630.425781 1423.136719 2619.144531 1424.710938 2603.105469 C 1426.289062 2587.066406 1427.601562 2563.417969 1428.652344 2532.15625 L 1437.453125 2316.859375 C 1437.628906 2312.238281 1437.714844 2305.710938 1437.714844 2297.285156 C 1437.714844 2274.996094 1436.3125 2260.042969 1433.511719 2252.433594 C 1430.710938 2244.546875 1425.804688 2240.605469 1418.800781 2240.605469 C 1417.75 2228.917969 1417.226562 2214.238281 1417.226562 2196.570312 C 1425.28125 2197.929688 1432.988281 2198.609375 1440.34375 2198.609375 C 1446.207031 2198.609375 1453.738281 2197.929688 1462.933594 2196.570312 L 1524.402344 2563.554688 L 1582.722656 2196.570312 C 1592.003906 2197.929688 1599.882812 2198.609375 1606.363281 2198.609375 C 1611.441406 2198.609375 1619.015625 2197.929688 1629.085938 2196.570312 C 1629.085938 2215.324219 1628.5625 2230.003906 1627.511719 2240.605469 C 1621.207031 2240.605469 1616.476562 2244.957031 1613.324219 2253.65625 C 1610.171875 2262.625 1608.597656 2277.441406 1608.597656 2298.101562 C 1608.597656 2306.800781 1608.726562 2313.730469 1608.992188 2318.898438 L 1618.710938 2549.691406 C 1619.9375 2577.691406 1621.25 2598.214844 1622.648438 2611.261719 C 1624.050781 2624.308594 1625.933594 2633.554688 1628.296875 2638.988281 C 1630.75 2644.15625 1634.296875 2647.417969 1638.9375 2648.777344 Z M 1766.867188 2696.484375 C 1748.832031 2696.484375 1732.851562 2686.019531 1718.925781 2665.085938 C 1705.09375 2644.425781 1694.320312 2615.066406 1686.617188 2577.011719 C 1678.996094 2539.222656 1675.1875 2495.1875 1675.1875 2444.894531 C 1675.1875 2395.421875 1678.996094 2351.382812 1686.617188 2312.78125 C 1694.320312 2274.449219 1705.136719 2244.683594 1719.058594 2223.480469 C 1733.070312 2202.277344 1749.222656 2191.675781 1767.523438 2191.675781 C 1785.5625 2191.675781 1801.542969 2202.140625 1815.464844 2223.074219 C 1829.300781 2243.734375 1840.070312 2273.226562 1847.777344 2311.558594 C 1855.394531 2349.613281 1859.203125 2393.515625 1859.203125 2443.265625 C 1859.203125 2493.28125 1855.394531 2537.457031 1847.777344 2575.785156 C 1840.070312 2613.84375 1829.214844 2643.476562 1815.203125 2664.679688 C 1801.28125 2685.882812 1785.167969 2696.484375 1766.867188 2696.484375 Z M 1771.335938 2651.628906 C 1788.320312 2651.628906 1801.804688 2633.960938 1811.789062 2598.621094 C 1821.769531 2563.554688 1826.761719 2516.660156 1826.761719 2457.945312 C 1826.761719 2415.535156 1824.046875 2377.480469 1818.617188 2343.769531 C 1813.101562 2310.0625 1805.484375 2283.828125 1795.765625 2265.074219 C 1785.957031 2246.042969 1774.96875 2236.53125 1762.796875 2236.53125 C 1745.722656 2236.53125 1732.28125 2254.335938 1722.472656 2289.945312 C 1712.578125 2325.558594 1707.632812 2372.3125 1707.632812 2430.214844 C 1707.632812 2473.980469 1710.347656 2512.71875 1715.773438 2546.429688 C 1721.292969 2579.863281 1728.867188 2605.824219 1738.496094 2624.308594 C 1748.128906 2642.523438 1759.074219 2651.628906 1771.335938 2651.628906 Z M 1900.578125 2689.550781 C 1900.578125 2669.4375 1901.105469 2654.757812 1902.15625 2645.515625 C 1907.144531 2644.425781 1911 2641.84375 1913.714844 2637.765625 C 1916.515625 2633.960938 1918.484375 2626.757812 1919.625 2616.15625 C 1920.761719 2605.824219 1921.332031 2590.195312 1921.332031 2569.261719 L 1921.332031 2311.964844 C 1921.332031 2292.9375 1920.761719 2278.527344 1919.625 2268.742188 C 1918.484375 2258.957031 1916.601562 2252.160156 1913.976562 2248.355469 C 1911.347656 2244.546875 1907.410156 2241.964844 1902.15625 2240.605469 C 1901.28125 2230.003906 1900.839844 2215.324219 1900.839844 2196.570312 C 1912.574219 2197.929688 1926.148438 2198.609375 1941.558594 2198.609375 C 1948.476562 2198.609375 1953.730469 2198.199219 1957.320312 2197.382812 L 1974 2196.570312 C 2004.472656 2196.570312 2029.515625 2213.152344 2049.132812 2246.316406 C 2068.832031 2279.753906 2078.683594 2341.050781 2078.683594 2430.214844 C 2078.683594 2532.15625 2067.519531 2600.523438 2045.191406 2635.320312 C 2022.949219 2670.386719 1999.089844 2687.921875 1973.605469 2687.921875 C 1943.398438 2687.921875 1919.054688 2688.464844 1900.578125 2689.550781 Z M 1974.921875 2643.882812 C 1990.070312 2643.882812 2002.855469 2638.445312 2013.273438 2627.574219 C 2023.605469 2616.699219 2031.882812 2596.582031 2038.097656 2567.222656 C 2044.316406 2537.863281 2047.425781 2496.546875 2047.425781 2443.265625 C 2047.425781 2370.683594 2040.113281 2318.488281 2025.488281 2286.683594 C 2010.867188 2254.605469 1992.347656 2238.566406 1969.929688 2238.566406 C 1961.261719 2238.566406 1954.738281 2240.472656 1950.359375 2244.277344 L 1950.359375 2567.222656 C 1950.359375 2588.15625 1950.972656 2604.058594 1952.199219 2614.933594 C 1953.511719 2625.535156 1955.875 2633.007812 1959.289062 2637.359375 C 1962.792969 2641.707031 1968.003906 2643.882812 1974.921875 2643.882812 Z M 2205.039062 2696.484375 C 2187 2696.484375 2171.019531 2686.019531 2157.097656 2665.085938 C 2143.261719 2644.425781 2132.492188 2615.066406 2124.785156 2577.011719 C 2117.167969 2539.222656 2113.359375 2495.1875 2113.359375 2444.894531 C 2113.359375 2395.421875 2117.167969 2351.382812 2124.785156 2312.78125 C 2132.492188 2274.449219 2143.304688 2244.683594 2157.230469 2223.480469 C 2171.238281 2202.277344 2187.394531 2191.675781 2205.695312 2191.675781 C 2223.734375 2191.675781 2239.714844 2202.140625 2253.636719 2223.074219 C 2267.472656 2243.734375 2278.242188 2273.226562 2285.949219 2311.558594 C 2293.566406 2349.613281 2297.375 2393.515625 2297.375 2443.265625 C 2297.375 2493.28125 2293.566406 2537.457031 2285.949219 2575.785156 C 2278.242188 2613.84375 2267.386719 2643.476562 2253.375 2664.679688 C 2239.453125 2685.882812 2223.339844 2696.484375 2205.039062 2696.484375 Z M 2209.503906 2651.628906 C 2226.492188 2651.628906 2239.976562 2633.960938 2249.960938 2598.621094 C 2259.941406 2563.554688 2264.933594 2516.660156 2264.933594 2457.945312 C 2264.933594 2415.535156 2262.21875 2377.480469 2256.789062 2343.769531 C 2251.273438 2310.0625 2243.65625 2283.828125 2233.933594 2265.074219 C 2224.128906 2246.042969 2213.140625 2236.53125 2200.96875 2236.53125 C 2183.890625 2236.53125 2170.453125 2254.335938 2160.644531 2289.945312 C 2150.75 2325.558594 2145.800781 2372.3125 2145.800781 2430.214844 C 2145.800781 2473.980469 2148.515625 2512.71875 2153.945312 2546.429688 C 2159.460938 2579.863281 2167.035156 2605.824219 2176.667969 2624.308594 C 2186.300781 2642.523438 2197.246094 2651.628906 2209.503906 2651.628906 Z M 2467.996094 2573.339844 C 2473.597656 2599.4375 2479.421875 2617.785156 2485.464844 2628.386719 C 2491.417969 2639.261719 2498.816406 2645.378906 2507.660156 2646.738281 C 2507.660156 2665.496094 2507.222656 2679.222656 2506.347656 2687.921875 C 2488.484375 2687.921875 2473.378906 2690.097656 2461.03125 2694.445312 C 2459.542969 2686.832031 2456.699219 2673.242188 2452.496094 2653.667969 L 2438.308594 2581.902344 C 2430.515625 2541.671875 2420.226562 2508.777344 2407.445312 2483.226562 L 2397.328125 2484.039062 L 2388.136719 2483.226562 L 2388.136719 2572.117188 C 2388.136719 2593.863281 2388.660156 2609.902344 2389.710938 2620.234375 C 2390.761719 2630.5625 2392.515625 2637.765625 2394.964844 2641.84375 C 2397.417969 2645.648438 2401.140625 2647.960938 2406.128906 2648.777344 C 2407.003906 2656.386719 2407.445312 2669.980469 2407.445312 2689.550781 C 2399.652344 2688.464844 2388.179688 2687.921875 2373.03125 2687.921875 C 2361.910156 2687.921875 2350.484375 2688.464844 2338.75 2689.550781 C 2338.75 2671.339844 2339.273438 2657.746094 2340.324219 2648.777344 C 2345.578125 2647.417969 2349.519531 2644.699219 2352.148438 2640.621094 C 2354.773438 2636.816406 2356.613281 2630.019531 2357.664062 2620.234375 C 2358.714844 2610.445312 2359.238281 2595.765625 2359.238281 2576.195312 L 2359.238281 2311.148438 C 2359.238281 2282.878906 2357.96875 2264.257812 2355.429688 2255.285156 C 2352.890625 2246.042969 2347.855469 2240.742188 2340.324219 2239.382812 C 2339.273438 2229.597656 2338.75 2215.324219 2338.75 2196.570312 C 2346.71875 2197.929688 2358.277344 2198.609375 2373.425781 2198.609375 L 2396.015625 2197.382812 C 2406.960938 2196.023438 2415.28125 2195.34375 2420.972656 2195.34375 C 2441.113281 2195.34375 2456.347656 2207.441406 2466.679688 2231.636719 C 2477.011719 2255.828125 2482.179688 2286.820312 2482.179688 2324.605469 C 2482.179688 2362.390625 2478.28125 2393.515625 2470.488281 2417.984375 C 2462.695312 2442.449219 2451.882812 2459.03125 2438.046875 2467.730469 C 2443.300781 2477.515625 2447.636719 2488.660156 2451.050781 2501.167969 C 2454.554688 2513.941406 2460.199219 2538 2467.996094 2573.339844 Z M 2400.21875 2435.109375 C 2415.28125 2435.109375 2427.671875 2426.816406 2437.390625 2410.234375 C 2447.023438 2393.652344 2451.839844 2369.324219 2451.839844 2337.246094 C 2451.839844 2270.917969 2437.128906 2237.753906 2407.707031 2237.753906 C 2400.964844 2237.753906 2394.441406 2239.65625 2388.136719 2243.460938 L 2388.136719 2432.253906 C 2392.601562 2434.15625 2396.628906 2435.109375 2400.21875 2435.109375 Z M 2628.105469 2696.484375 C 2609.980469 2696.484375 2594 2686.019531 2580.164062 2665.085938 C 2566.328125 2644.425781 2555.558594 2615.066406 2547.851562 2577.011719 C 2540.148438 2539.222656 2536.292969 2495.1875 2536.292969 2444.894531 C 2536.292969 2395.421875 2540.148438 2351.382812 2547.851562 2312.78125 C 2555.558594 2274.449219 2566.371094 2244.683594 2580.296875 2223.480469 C 2594.304688 2202.277344 2610.460938 2191.675781 2628.761719 2191.675781 C 2646.800781 2191.675781 2662.738281 2202.140625 2676.570312 2223.074219 C 2690.496094 2243.734375 2701.265625 2273.226562 2708.882812 2311.558594 C 2716.589844 2349.613281 2720.441406 2393.515625 2720.441406 2443.265625 C 2720.441406 2493.28125 2716.589844 2537.457031 2708.882812 2575.785156 C 2701.265625 2613.84375 2690.449219 2643.476562 2676.441406 2664.679688 C 2662.519531 2685.882812 2646.40625 2696.484375 2628.105469 2696.484375 Z M 2632.441406 2651.628906 C 2649.515625 2651.628906 2663.042969 2633.960938 2673.027344 2598.621094 C 2683.007812 2563.554688 2688 2516.660156 2688 2457.945312 C 2688 2415.535156 2685.242188 2377.480469 2679.722656 2343.769531 C 2674.296875 2310.0625 2666.675781 2283.828125 2656.871094 2265.074219 C 2647.148438 2246.042969 2636.203125 2236.53125 2624.035156 2236.53125 C 2606.957031 2236.53125 2593.472656 2254.335938 2583.578125 2289.945312 C 2573.773438 2325.558594 2568.867188 2372.3125 2568.867188 2430.214844 C 2568.867188 2473.980469 2571.582031 2512.71875 2577.011719 2546.429688 C 2582.441406 2579.863281 2590.015625 2605.824219 2599.734375 2624.308594 C 2609.367188 2642.523438 2620.269531 2651.628906 2632.441406 2651.628906 Z M 2632.441406 2651.628906 "/>
</g>
</svg>
