<?xml version="1.0" encoding="UTF-8"?>
<svg xmlns="http://www.w3.org/2000/svg" xmlns:xlink="http://www.w3.org/1999/xlink" width="2732pt" height="2732pt" viewBox="0 0 2732 2732" version="1.1">
<g id="surface1">
<path style=" stroke:none;fill-rule:nonzero;fill:rgb(0%,0%,0%);fill-opacity:1;" d="M 1358.351562 865.496094 C 1353.433594 873.148438 1349.609375 881.890625 1349.609375 884.621094 C 1349.609375 887.355469 1339.773438 888.445312 1326.660156 886.808594 C 1306.441406 884.074219 1304.257812 884.621094 1306.988281 893.910156 C 1308.628906 899.375 1310.8125 907.570312 1311.90625 911.394531 C 1313.546875 916.3125 1304.257812 921.777344 1285.132812 926.695312 C 1232.132812 940.355469 1209.183594 966.582031 1203.71875 1019.035156 C 1199.347656 1063.292969 1210.277344 1096.078125 1240.328125 1126.128906 C 1272.566406 1158.367188 1304.257812 1169.296875 1366 1169.296875 C 1470.910156 1169.296875 1524.457031 1123.398438 1524.457031 1033.242188 C 1524.457031 965.488281 1499.867188 937.621094 1424.464844 921.230469 C 1410.257812 917.953125 1409.710938 916.859375 1417.90625 905.386719 C 1429.929688 887.898438 1428.289062 885.167969 1404.246094 885.167969 C 1386.761719 885.167969 1382.390625 882.980469 1382.390625 874.785156 C 1382.390625 869.324219 1379.113281 861.671875 1374.742188 858.394531 C 1369.277344 853.476562 1365.453125 855.117188 1358.351562 865.496094 Z M 1366.546875 903.199219 C 1359.441406 910.300781 1358.351562 891.726562 1364.90625 875.878906 C 1368.1875 867.683594 1369.277344 868.777344 1370.371094 881.890625 C 1371.464844 890.632812 1369.824219 899.921875 1366.546875 903.199219 Z M 1339.226562 901.558594 C 1349.609375 907.570312 1353.433594 917.953125 1344.691406 917.953125 C 1341.957031 917.953125 1334.308594 913.035156 1327.207031 907.023438 C 1313 895.550781 1321.195312 892.269531 1339.226562 901.558594 Z M 1400.421875 907.570312 C 1394.414062 914.128906 1386.21875 918.5 1382.390625 916.859375 C 1373.101562 914.128906 1391.132812 896.097656 1403.15625 896.097656 C 1410.804688 896.097656 1410.257812 897.734375 1400.421875 907.570312 Z M 1316.824219 943.085938 C 1293.875 962.757812 1275.296875 999.910156 1288.410156 999.910156 C 1290.597656 999.910156 1296.0625 991.167969 1299.886719 980.789062 C 1313.546875 941.992188 1368.1875 922.871094 1403.15625 944.726562 C 1412.992188 951.28125 1425.011719 965.488281 1429.929688 976.417969 C 1441.949219 1002.097656 1441.949219 1002.644531 1445.226562 998.820312 C 1450.691406 993.355469 1436.484375 964.394531 1419 946.363281 L 1401.515625 927.789062 L 1423.371094 931.613281 C 1457.796875 937.621094 1490.03125 955.105469 1502.054688 974.777344 C 1539.207031 1034.335938 1509.703125 1117.933594 1441.402344 1147.441406 C 1400.421875 1164.925781 1331.03125 1165.472656 1292.234375 1147.988281 C 1239.78125 1124.492188 1213.554688 1086.242188 1213.007812 1032.695312 C 1213.007812 981.335938 1237.050781 950.191406 1287.863281 936.53125 C 1330.484375 925.054688 1336.496094 926.695312 1316.824219 943.085938 Z M 1316.824219 943.085938 "/>
<path style=" stroke:none;fill-rule:nonzero;fill:rgb(0%,0%,0%);fill-opacity:1;" d="M 748.566406 1425.558594 C 748.566406 1428.835938 752.394531 1431.566406 756.765625 1431.566406 C 763.320312 1431.566406 764.960938 1441.402344 764.960938 1488.394531 C 764.960938 1538.117188 763.867188 1545.765625 755.671875 1547.953125 C 750.207031 1549.589844 760.589844 1550.683594 778.621094 1550.136719 C 796.652344 1550.136719 805.941406 1549.042969 799.382812 1547.953125 C 787.910156 1545.765625 786.816406 1542.488281 786.816406 1515.714844 C 786.816406 1491.125 788.457031 1486.207031 796.652344 1486.207031 C 811.402344 1486.207031 819.601562 1497.136719 819.601562 1516.804688 C 819.601562 1526.09375 824.519531 1539.753906 829.980469 1546.859375 C 838.722656 1557.785156 842.546875 1558.878906 850.746094 1553.960938 C 856.207031 1550.683594 861.125 1540.847656 862.21875 1532.105469 L 863.3125 1516.261719 L 855.664062 1529.921875 L 848.011719 1543.578125 L 844.1875 1527.1875 C 842.546875 1517.898438 838.175781 1504.785156 834.351562 1497.683594 C 828.34375 1485.660156 829.433594 1482.382812 839.816406 1471.457031 C 854.570312 1457.25 855.664062 1448.507812 844.734375 1434.300781 C 838.175781 1425.558594 828.890625 1423.371094 792.828125 1421.734375 C 762.773438 1420.09375 748.566406 1421.1875 748.566406 1425.558594 Z M 822.332031 1453.425781 C 822.332031 1470.910156 820.691406 1472.546875 804.847656 1474.1875 C 787.363281 1475.828125 786.816406 1475.828125 786.816406 1453.425781 C 786.816406 1431.023438 787.363281 1431.023438 804.847656 1432.660156 C 820.691406 1434.300781 822.332031 1435.9375 822.332031 1453.425781 Z M 822.332031 1453.425781 "/>
<path style=" stroke:none;fill-rule:nonzero;fill:rgb(0%,0%,0%);fill-opacity:1;" d="M 1213.007812 1426.105469 C 1213.007812 1428.835938 1216.832031 1431.566406 1221.203125 1431.566406 C 1227.761719 1431.566406 1229.398438 1441.402344 1229.398438 1488.394531 C 1229.398438 1538.117188 1228.308594 1545.765625 1220.109375 1547.953125 C 1214.648438 1549.589844 1225.027344 1550.683594 1243.058594 1550.136719 C 1261.089844 1550.136719 1270.378906 1549.042969 1263.824219 1547.953125 C 1252.894531 1545.765625 1251.257812 1541.941406 1251.257812 1518.445312 L 1251.257812 1491.671875 L 1273.113281 1491.671875 C 1298.246094 1491.671875 1325.566406 1470.363281 1320.101562 1455.609375 C 1318.464844 1450.691406 1316.824219 1444.679688 1316.824219 1441.949219 C 1316.824219 1439.765625 1309.722656 1433.753906 1300.433594 1428.835938 C 1282.402344 1419.546875 1213.007812 1417.363281 1213.007812 1426.105469 Z M 1288.957031 1439.21875 C 1292.78125 1443.589844 1294.96875 1453.96875 1293.875 1462.710938 C 1292.234375 1475.828125 1289.503906 1478.011719 1272.019531 1479.652344 L 1251.257812 1481.289062 L 1251.257812 1456.703125 C 1251.257812 1432.660156 1251.800781 1431.566406 1267.101562 1431.566406 C 1275.84375 1431.566406 1285.679688 1434.847656 1288.957031 1439.21875 Z M 1288.957031 1439.21875 "/>
<path style=" stroke:none;fill-rule:nonzero;fill:rgb(0%,0%,0%);fill-opacity:1;" d="M 1693.839844 1426.105469 C 1693.839844 1428.835938 1697.664062 1431.566406 1702.035156 1431.566406 C 1708.046875 1431.566406 1710.230469 1437.578125 1710.230469 1453.425781 C 1710.230469 1474.734375 1710.230469 1474.734375 1696.027344 1468.722656 C 1682.910156 1462.710938 1680.179688 1463.804688 1668.707031 1476.917969 C 1651.222656 1497.683594 1651.222656 1526.09375 1669.253906 1543.578125 C 1682.367188 1557.238281 1696.027344 1561.066406 1701.488281 1552.867188 C 1703.128906 1550.136719 1712.417969 1549.042969 1722.253906 1550.136719 C 1732.089844 1550.683594 1737.003906 1550.136719 1733.726562 1548.496094 C 1728.808594 1546.3125 1726.625 1527.734375 1726.625 1482.929688 L 1726.625 1420.640625 L 1710.230469 1420.640625 C 1701.488281 1420.640625 1693.839844 1422.824219 1693.839844 1426.105469 Z M 1706.953125 1498.230469 C 1712.964844 1523.363281 1704.222656 1547.953125 1689.46875 1545.21875 C 1682.367188 1544.125 1679.632812 1537.023438 1678.539062 1516.804688 C 1676.355469 1484.570312 1680.179688 1474.1875 1692.199219 1476.371094 C 1698.210938 1477.464844 1704.222656 1486.207031 1706.953125 1498.230469 Z M 1706.953125 1498.230469 "/>
<path style=" stroke:none;fill-rule:nonzero;fill:rgb(0%,0%,0%);fill-opacity:1;" d="M 891.726562 1475.28125 C 869.324219 1496.042969 869.867188 1525.546875 892.269531 1546.3125 C 907.570312 1561.066406 921.230469 1559.972656 937.074219 1543.578125 C 946.363281 1534.835938 950.734375 1524.457031 950.734375 1510.796875 C 950.734375 1497.136719 946.363281 1486.753906 937.074219 1478.011719 C 921.230469 1461.621094 907.570312 1460.527344 891.726562 1475.28125 Z M 926.148438 1510.796875 C 926.148438 1538.664062 924.507812 1543.578125 915.765625 1545.21875 C 902.652344 1547.953125 896.097656 1537.570312 896.097656 1512.433594 C 896.097656 1484.023438 901.011719 1474.1875 914.671875 1476.371094 C 925.054688 1478.011719 926.148438 1481.289062 926.148438 1510.796875 Z M 926.148438 1510.796875 "/>
<path style=" stroke:none;fill-rule:nonzero;fill:rgb(0%,0%,0%);fill-opacity:1;" d="M 976.417969 1471.457031 C 959.476562 1483.476562 966.582031 1503.691406 991.714844 1516.804688 C 1017.941406 1530.464844 1023.953125 1546.3125 1003.191406 1546.3125 C 993.355469 1546.3125 986.796875 1541.941406 982.425781 1532.652344 C 973.683594 1512.980469 967.128906 1515.714844 967.128906 1539.207031 C 967.128906 1552.867188 968.765625 1557.238281 972.046875 1552.324219 C 975.871094 1546.859375 979.148438 1546.3125 988.4375 1551.777344 C 1011.386719 1563.796875 1035.972656 1544.671875 1027.230469 1521.175781 C 1025.046875 1515.167969 1013.027344 1505.878906 1000.457031 1499.867188 C 987.890625 1494.402344 978.054688 1486.753906 978.054688 1482.382812 C 978.054688 1470.363281 1003.191406 1474.1875 1012.480469 1487.300781 L 1021.222656 1499.867188 L 1021.222656 1485.660156 C 1021.769531 1478.011719 1018.488281 1471.457031 1015.210938 1470.910156 C 1011.386719 1470.910156 1003.191406 1469.269531 997.179688 1467.085938 C 991.167969 1465.445312 981.878906 1467.085938 976.417969 1471.457031 Z M 976.417969 1471.457031 "/>
<path style=" stroke:none;fill-rule:nonzero;fill:rgb(0%,0%,0%);fill-opacity:1;" d="M 1052.914062 1471.457031 C 1035.429688 1484.023438 1043.078125 1503.691406 1069.851562 1516.261719 C 1093.894531 1527.734375 1102.089844 1546.3125 1082.417969 1546.3125 C 1071.492188 1546.3125 1054.550781 1532.652344 1054.550781 1523.910156 C 1054.550781 1521.175781 1052.367188 1518.992188 1049.089844 1518.992188 C 1046.355469 1518.992188 1043.625 1528.28125 1043.625 1539.207031 C 1043.625 1553.960938 1045.261719 1557.785156 1049.632812 1553.414062 C 1054.003906 1549.042969 1060.015625 1549.042969 1070.945312 1553.414062 C 1084.058594 1558.332031 1088.429688 1557.785156 1098.265625 1549.042969 C 1115.75 1533.199219 1109.738281 1517.898438 1080.777344 1502.601562 C 1053.460938 1488.394531 1049.632812 1479.105469 1069.851562 1476.371094 C 1076.953125 1475.28125 1083.511719 1479.105469 1087.335938 1486.207031 C 1094.4375 1499.320312 1103.726562 1496.042969 1103.726562 1480.742188 C 1103.726562 1474.734375 1099.902344 1470.363281 1094.4375 1470.363281 C 1088.976562 1470.910156 1079.6875 1469.269531 1073.675781 1467.085938 C 1067.664062 1465.445312 1058.375 1467.085938 1052.914062 1471.457031 Z M 1052.914062 1471.457031 "/>
<path style=" stroke:none;fill-rule:nonzero;fill:rgb(0%,0%,0%);fill-opacity:1;" d="M 1137.605469 1475.28125 C 1115.203125 1496.042969 1115.75 1525.546875 1138.152344 1546.3125 C 1153.449219 1561.066406 1167.109375 1559.972656 1182.957031 1543.578125 C 1192.246094 1534.835938 1196.617188 1524.457031 1196.617188 1510.796875 C 1196.617188 1497.136719 1192.246094 1486.753906 1182.957031 1478.011719 C 1167.109375 1461.621094 1153.449219 1460.527344 1137.605469 1475.28125 Z M 1172.027344 1510.796875 C 1172.027344 1538.664062 1170.390625 1543.578125 1161.644531 1545.21875 C 1148.53125 1547.953125 1141.976562 1537.570312 1141.976562 1512.433594 C 1141.976562 1484.023438 1146.894531 1474.1875 1160.554688 1476.371094 C 1170.933594 1478.011719 1172.027344 1481.289062 1172.027344 1510.796875 Z M 1172.027344 1510.796875 "/>
<path style=" stroke:none;fill-rule:nonzero;fill:rgb(0%,0%,0%);fill-opacity:1;" d="M 1346.875 1478.011719 C 1337.585938 1486.753906 1333.214844 1497.136719 1333.214844 1510.796875 C 1333.214844 1532.652344 1352.886719 1557.238281 1370.371094 1557.238281 C 1383.484375 1557.238281 1403.15625 1538.664062 1407.527344 1521.722656 C 1411.898438 1504.785156 1400.96875 1476.917969 1387.308594 1469.816406 C 1372.011719 1461.074219 1361.082031 1463.257812 1346.875 1478.011719 Z M 1384.578125 1484.023438 C 1389.496094 1496.589844 1388.402344 1531.558594 1382.9375 1539.753906 C 1380.207031 1544.125 1373.648438 1546.3125 1368.1875 1545.21875 C 1359.988281 1544.125 1357.257812 1537.570312 1356.164062 1516.804688 C 1355.070312 1502.054688 1355.617188 1486.753906 1357.257812 1482.929688 C 1361.082031 1472.546875 1380.207031 1473.09375 1384.578125 1484.023438 Z M 1384.578125 1484.023438 "/>
<path style=" stroke:none;fill-rule:nonzero;fill:rgb(0%,0%,0%);fill-opacity:1;" d="M 1462.167969 1468.175781 C 1459.980469 1470.363281 1449.597656 1471.457031 1438.125 1471.457031 C 1427.195312 1470.910156 1421.1875 1471.457031 1425.011719 1473.09375 C 1429.382812 1475.28125 1431.566406 1488.394531 1431.566406 1510.796875 C 1431.566406 1533.199219 1429.382812 1546.3125 1425.011719 1547.953125 C 1421.1875 1549.589844 1427.742188 1550.683594 1439.765625 1550.683594 C 1451.785156 1550.683594 1458.339844 1549.589844 1455.0625 1547.953125 C 1446.320312 1544.671875 1445.773438 1500.960938 1453.425781 1485.660156 C 1460.527344 1473.09375 1473.09375 1472 1477.464844 1484.023438 C 1483.476562 1499.867188 1481.289062 1545.21875 1474.1875 1547.953125 C 1470.363281 1549.589844 1476.917969 1550.683594 1488.941406 1550.683594 C 1500.960938 1550.683594 1507.519531 1549.589844 1504.238281 1547.953125 C 1495.496094 1544.671875 1494.949219 1500.960938 1502.601562 1485.660156 C 1505.878906 1480.199219 1511.890625 1475.28125 1516.261719 1475.28125 C 1527.1875 1475.28125 1528.28125 1544.125 1517.898438 1547.953125 C 1514.074219 1549.589844 1521.722656 1550.683594 1535.382812 1550.683594 C 1549.042969 1550.683594 1555.601562 1549.589844 1550.683594 1547.953125 C 1542.488281 1545.765625 1540.847656 1539.207031 1540.847656 1510.796875 C 1540.847656 1468.175781 1532.105469 1457.25 1508.0625 1470.910156 C 1494.402344 1478.558594 1491.125 1478.558594 1485.660156 1472 C 1479.105469 1463.804688 1468.722656 1462.167969 1462.167969 1468.175781 Z M 1462.167969 1468.175781 "/>
<path style=" stroke:none;fill-rule:nonzero;fill:rgb(0%,0%,0%);fill-opacity:1;" d="M 1581.828125 1476.917969 C 1561.066406 1494.402344 1561.066406 1527.1875 1581.828125 1544.671875 C 1599.859375 1560.519531 1609.148438 1560.519531 1625.539062 1543.578125 C 1634.828125 1534.835938 1639.199219 1524.457031 1639.199219 1510.796875 C 1639.199219 1497.136719 1634.828125 1486.753906 1625.539062 1478.011719 C 1609.148438 1461.074219 1599.859375 1461.074219 1581.828125 1476.917969 Z M 1617.890625 1488.394531 C 1626.085938 1505.332031 1619.53125 1540.300781 1608.054688 1544.671875 C 1589.476562 1551.777344 1576.910156 1510.25 1590.023438 1485.660156 C 1598.21875 1471.457031 1610.789062 1472.546875 1617.890625 1488.394531 Z M 1617.890625 1488.394531 "/>
<path style=" stroke:none;fill-rule:nonzero;fill:rgb(0%,0%,0%);fill-opacity:1;" d="M 1762.140625 1478.011719 C 1752.851562 1486.753906 1748.480469 1497.136719 1748.480469 1510.796875 C 1748.480469 1532.652344 1768.152344 1557.238281 1785.636719 1557.238281 C 1798.75 1557.238281 1818.417969 1538.664062 1822.789062 1521.722656 C 1827.160156 1504.785156 1816.234375 1476.917969 1802.574219 1469.816406 C 1787.273438 1461.074219 1776.347656 1463.257812 1762.140625 1478.011719 Z M 1799.839844 1484.023438 C 1804.757812 1496.589844 1803.667969 1531.558594 1798.203125 1539.753906 C 1795.46875 1544.125 1788.914062 1546.3125 1783.449219 1545.21875 C 1775.253906 1544.125 1772.523438 1537.570312 1771.429688 1516.804688 C 1770.335938 1502.054688 1770.882812 1486.753906 1772.523438 1482.929688 C 1776.347656 1472.546875 1795.46875 1473.09375 1799.839844 1484.023438 Z M 1799.839844 1484.023438 "/>
<path style=" stroke:none;fill-rule:nonzero;fill:rgb(0%,0%,0%);fill-opacity:1;" d="M 1872.511719 1473.640625 C 1867.046875 1479.652344 1863.222656 1480.742188 1863.222656 1476.371094 C 1863.222656 1472.546875 1856.667969 1469.816406 1848.472656 1470.363281 C 1839.730469 1470.363281 1836.449219 1472 1840.273438 1473.640625 C 1844.644531 1475.28125 1846.832031 1488.394531 1846.832031 1510.796875 C 1846.832031 1533.199219 1844.644531 1546.3125 1840.273438 1547.953125 C 1836.449219 1549.589844 1843.007812 1551.230469 1855.027344 1551.230469 C 1869.234375 1551.230469 1874.152344 1550.136719 1869.234375 1546.859375 C 1859.945312 1540.847656 1864.863281 1498.230469 1876.882812 1482.929688 C 1884.535156 1473.09375 1884.535156 1473.09375 1885.078125 1485.113281 C 1885.078125 1492.765625 1887.8125 1497.136719 1892.183594 1495.496094 C 1901.472656 1492.765625 1900.378906 1467.628906 1890.542969 1465.445312 C 1886.171875 1464.898438 1877.976562 1468.175781 1872.511719 1473.640625 Z M 1872.511719 1473.640625 "/>
<path style=" stroke:none;fill-rule:nonzero;fill:rgb(0%,0%,0%);fill-opacity:1;" d="M 1926.058594 1478.011719 C 1916.769531 1486.753906 1912.398438 1497.136719 1912.398438 1510.796875 C 1912.398438 1532.652344 1932.070312 1557.238281 1949.554688 1557.238281 C 1962.667969 1557.238281 1982.339844 1538.664062 1986.710938 1521.722656 C 1991.082031 1504.785156 1980.152344 1476.917969 1966.492188 1469.816406 C 1951.195312 1461.074219 1940.265625 1463.257812 1926.058594 1478.011719 Z M 1963.761719 1484.023438 C 1968.679688 1496.589844 1967.585938 1531.558594 1962.121094 1539.753906 C 1959.390625 1544.125 1952.832031 1546.3125 1947.371094 1545.21875 C 1939.171875 1544.125 1936.441406 1537.570312 1935.347656 1516.804688 C 1934.257812 1502.054688 1934.800781 1486.753906 1936.441406 1482.929688 C 1940.265625 1472.546875 1959.390625 1473.09375 1963.761719 1484.023438 Z M 1963.761719 1484.023438 "/>
</g>
</svg>
