<?xml version="1.0" standalone="no"?>
<!DOCTYPE svg PUBLIC "-//W3C//DTD SVG 20010904//EN"
 "http://www.w3.org/TR/2001/REC-SVG-20010904/DTD/svg10.dtd">
<svg version="1.0" xmlns="http://www.w3.org/2000/svg"
 width="500.000000pt" height="500.000000pt" viewBox="0 0 500.000000 500.000000"
 preserveAspectRatio="xMidYMid meet">
<metadata>
Created by potrace 1.16, written by Peter Selinger 2001-2019
</metadata>
<g transform="translate(0.000000,500.000000) scale(0.100000,-0.100000)"
fill="#000000" stroke="none">
<path d="M2486 3416 c-9 -14 -16 -30 -16 -35 0 -5 -18 -7 -42 -4 -37 5 -41 4
-36 -13 3 -10 7 -25 9 -32 3 -9 -14 -19 -49 -28 -97 -25 -139 -73 -149 -169
-8 -81 12 -141 67 -196 59 -59 117 -79 230 -79 192 0 290 84 290 249 0 124
-45 175 -183 205 -26 6 -27 8 -12 29 22 32 19 37 -25 37 -32 0 -40 4 -40 19 0
10 -6 24 -14 30 -10 9 -17 6 -30 -13z m15 -69 c-13 -13 -15 21 -3 50 6 15 8
13 10 -11 2 -16 -1 -33 -7 -39z m-50 3 c19 -11 26 -30 10 -30 -5 0 -19 9 -32
20 -26 21 -11 27 22 10z m112 -11 c-11 -12 -26 -20 -33 -17 -17 5 16 38 38 38
14 0 13 -3 -5 -21z m-153 -65 c-42 -36 -76 -104 -52 -104 4 0 14 16 21 35 25
71 125 106 189 66 18 -12 40 -38 49 -58 22 -47 22 -48 28 -41 10 10 -16 63
-48 96 l-32 34 40 -7 c63 -11 122 -43 144 -79 68 -109 14 -262 -111 -316 -75
-32 -202 -33 -273 -1 -96 43 -144 113 -145 211 0 94 44 151 137 176 78 21 89
18 53 -12z"/>
<path d="M1370 2391 c0 -6 7 -11 15 -11 12 0 15 -18 15 -104 0 -91 -2 -105
-17 -109 -10 -3 9 -5 42 -4 33 0 50 2 38 4 -21 4 -23 10 -23 59 0 45 3 54 18
54 27 0 42 -20 42 -56 0 -17 9 -42 19 -55 16 -20 23 -22 38 -13 10 6 19 24 21
40 l2 29 -14 -25 -14 -25 -7 30 c-3 17 -11 41 -18 54 -11 22 -9 28 10 48 27
26 29 42 9 68 -12 16 -29 20 -95 23 -55 3 -81 1 -81 -7z m135 -51 c0 -32 -3
-35 -32 -38 -32 -3 -33 -3 -33 38 0 41 1 41 33 38 29 -3 32 -6 32 -38z"/>
<path d="M2220 2390 c0 -5 7 -10 15 -10 12 0 15 -18 15 -104 0 -91 -2 -105
-17 -109 -10 -3 9 -5 42 -4 33 0 50 2 38 4 -20 4 -23 11 -23 54 l0 49 40 0
c46 0 96 39 86 66 -3 9 -6 20 -6 25 0 4 -13 15 -30 24 -33 17 -160 21 -160 5z
m139 -24 c7 -8 11 -27 9 -43 -3 -24 -8 -28 -40 -31 l-38 -3 0 45 c0 44 1 46
29 46 16 0 34 -6 40 -14z"/>
<path d="M3100 2390 c0 -5 7 -10 15 -10 11 0 15 -11 15 -40 0 -39 0 -39 -26
-28 -24 11 -29 9 -50 -15 -32 -38 -32 -90 1 -122 24 -25 49 -32 59 -17 3 5 20
7 38 5 18 -1 27 0 21 3 -9 4 -13 38 -13 120 l0 114 -30 0 c-16 0 -30 -4 -30
-10z m24 -132 c11 -46 -5 -91 -32 -86 -13 2 -18 15 -20 52 -4 59 3 78 25 74
11 -2 22 -18 27 -40z"/>
<path d="M1632 2300 c-41 -38 -40 -92 1 -130 28 -27 53 -25 82 5 17 16 25 35
25 60 0 25 -8 44 -25 60 -29 30 -54 32 -83 5z m63 -65 c0 -51 -3 -60 -19 -63
-24 -5 -36 14 -36 60 0 52 9 70 34 66 19 -3 21 -9 21 -63z"/>
<path d="M1787 2307 c-31 -22 -18 -59 28 -83 48 -25 59 -54 21 -54 -18 0 -30
8 -38 25 -16 36 -28 31 -28 -12 0 -25 3 -33 9 -24 7 10 13 11 30 1 42 -22 87
13 71 56 -4 11 -26 28 -49 39 -23 10 -41 24 -41 32 0 22 46 15 63 -9 l16 -23
0 26 c1 14 -5 26 -11 27 -7 0 -22 3 -33 7 -11 3 -28 0 -38 -8z"/>
<path d="M1927 2307 c-32 -23 -18 -59 31 -82 44 -21 59 -55 23 -55 -20 0 -51
25 -51 41 0 5 -4 9 -10 9 -5 0 -10 -17 -10 -37 0 -27 3 -34 11 -26 8 8 19 8
39 0 24 -9 32 -8 50 8 32 29 21 57 -32 85 -50 26 -57 43 -20 48 13 2 25 -5 32
-18 13 -24 30 -18 30 10 0 11 -7 19 -17 19 -10 -1 -27 2 -38 6 -11 3 -28 0
-38 -8z"/>
<path d="M2082 2300 c-41 -38 -40 -92 1 -130 28 -27 53 -25 82 5 17 16 25 35
25 60 0 25 -8 44 -25 60 -29 30 -54 32 -83 5z m63 -65 c0 -51 -3 -60 -19 -63
-24 -5 -36 14 -36 60 0 52 9 70 34 66 19 -3 21 -9 21 -63z"/>
<path d="M2465 2295 c-17 -16 -25 -35 -25 -60 0 -40 36 -85 68 -85 24 0 60 34
68 65 8 31 -12 82 -37 95 -28 16 -48 12 -74 -15z m69 -11 c9 -23 7 -87 -3
-102 -5 -8 -17 -12 -27 -10 -15 2 -20 14 -22 52 -2 27 -1 55 2 62 7 19 42 18
50 -2z"/>
<path d="M2676 2313 c-4 -4 -23 -6 -44 -6 -20 1 -31 0 -24 -3 8 -4 12 -28 12
-69 0 -41 -4 -65 -12 -68 -7 -3 5 -5 27 -5 22 0 34 2 28 5 -16 6 -17 86 -3
114 13 23 36 25 44 3 11 -29 7 -112 -6 -117 -7 -3 5 -5 27 -5 22 0 34 2 28 5
-16 6 -17 86 -3 114 6 10 17 19 25 19 20 0 22 -126 3 -133 -7 -3 7 -5 32 -5
25 0 37 2 28 5 -15 4 -18 16 -18 68 0 78 -16 98 -60 73 -25 -14 -31 -14 -41
-2 -12 15 -31 18 -43 7z"/>
<path d="M2895 2297 c-38 -32 -38 -92 0 -124 33 -29 50 -29 80 2 17 16 25 35
25 60 0 25 -8 44 -25 60 -30 31 -47 31 -80 2z m66 -21 c15 -31 3 -95 -18 -103
-34 -13 -57 63 -33 108 15 26 38 24 51 -5z"/>
<path d="M3225 2295 c-17 -16 -25 -35 -25 -60 0 -40 36 -85 68 -85 24 0 60 34
68 65 8 31 -12 82 -37 95 -28 16 -48 12 -74 -15z m69 -11 c9 -23 7 -87 -3
-102 -5 -8 -17 -12 -27 -10 -15 2 -20 14 -22 52 -2 27 -1 55 2 62 7 19 42 18
50 -2z"/>
<path d="M3427 2303 c-10 -11 -17 -13 -17 -5 0 7 -12 12 -27 11 -16 0 -22 -3
-15 -6 8 -3 12 -27 12 -68 0 -41 -4 -65 -12 -68 -7 -3 5 -6 27 -6 26 0 35 2
26 8 -17 11 -8 89 14 117 14 18 14 18 15 -4 0 -14 5 -22 13 -19 17 5 15 51 -3
55 -8 1 -23 -5 -33 -15z"/>
<path d="M3525 2295 c-17 -16 -25 -35 -25 -60 0 -40 36 -85 68 -85 24 0 60 34
68 65 8 31 -12 82 -37 95 -28 16 -48 12 -74 -15z m69 -11 c9 -23 7 -87 -3
-102 -5 -8 -17 -12 -27 -10 -15 2 -20 14 -22 52 -2 27 -1 55 2 62 7 19 42 18
50 -2z"/>
</g>
</svg>
