<?xml version="1.0" encoding="UTF-8"?>
<svg xmlns="http://www.w3.org/2000/svg" xmlns:xlink="http://www.w3.org/1999/xlink" width="3059pt" height="2732pt" viewBox="0 0 3059 2732" version="1.1">
<g id="surface1">
<path style=" stroke:none;fill-rule:nonzero;fill:rgb(96.078431%,40%,38.431373%);fill-opacity:1;" d="M -86.691406 1585.773438 L -86.691406 1576.15625 C -65.933594 1575.210938 -51.875 1569.855469 -44.519531 1560.09375 C -37.164062 1550.402344 -30.28125 1527.964844 -23.871094 1492.777344 L 24.308594 1214.769531 C -44.375 1220.453125 -97.359375 1235.277344 -134.652344 1259.246094 C -172.015625 1283.214844 -190.695312 1314.46875 -190.695312 1353.007812 C -190.695312 1370.421875 -184.6875 1385.171875 -172.667969 1397.265625 C -164.292969 1405.28125 -153.222656 1411.398438 -139.457031 1415.625 C -125.765625 1419.777344 -114.476562 1422.109375 -105.589844 1422.621094 C -96.703125 1423.128906 -91.933594 1423.054688 -91.277344 1422.402344 L -91.277344 1432.890625 C -130.753906 1432.890625 -160.070312 1423.53125 -179.222656 1404.808594 C -193.28125 1391.691406 -200.308594 1374.425781 -200.308594 1353.007812 C -200.308594 1305.070312 -175.253906 1268.023438 -125.144531 1241.871094 C -75.035156 1215.789062 -4.277344 1202.746094 87.128906 1202.746094 C 144.082031 1202.746094 184.542969 1210.433594 208.503906 1225.804688 C 232.464844 1241.25 244.445312 1262.269531 244.445312 1288.859375 C 244.445312 1315.523438 235.34375 1338.402344 217.132812 1357.488281 C 198.851562 1376.648438 174.78125 1391.402344 144.921875 1401.746094 C 188.476562 1492.230469 216.480469 1546.617188 228.933594 1564.902344 C 241.316406 1583.1875 256.210938 1592.332031 273.617188 1592.332031 C 284.03125 1592.332031 293.316406 1589.054688 301.476562 1582.496094 C 309.707031 1575.9375 315.496094 1567.125 318.847656 1556.050781 L 331.410156 1556.050781 C 320.703125 1590.945312 294.410156 1608.394531 252.53125 1608.394531 C 226.019531 1608.394531 204.132812 1602.09375 186.871094 1589.488281 C 169.683594 1576.960938 155.226562 1557.945312 143.5 1532.445312 L 89.203125 1414.859375 C 75.800781 1416.171875 65.894531 1416.828125 59.488281 1416.828125 C 58.539062 1421.855469 57.046875 1430.414062 55.007812 1442.507812 C 52.96875 1454.527344 51.292969 1463.5625 49.980469 1469.609375 C 43.28125 1505.816406 26.457031 1534.230469 -0.492188 1554.847656 C -27.511719 1575.464844 -56.246094 1585.773438 -86.691406 1585.773438 Z M 231.445312 1290.71875 C 231.445312 1239.429688 184.871094 1213.273438 91.714844 1212.253906 L 61.5625 1405.789062 C 109.121094 1404.480469 149.328125 1392.496094 182.175781 1369.835938 C 215.023438 1347.253906 231.445312 1320.878906 231.445312 1290.71875 "/>
<path style=" stroke:none;fill-rule:nonzero;fill:rgb(96.078431%,40%,38.431373%);fill-opacity:1;" d="M 344.957031 1513.320312 C 319.175781 1513.320312 299.582031 1506.875 286.179688 1493.980469 C 272.777344 1481.085938 266.078125 1464.835938 266.078125 1445.242188 C 266.078125 1425.644531 267.828125 1408.886719 271.324219 1394.972656 C 274.890625 1381.054688 280.683594 1367.652344 288.691406 1354.757812 C 296.703125 1341.863281 308.867188 1331.734375 325.183594 1324.375 C 341.425781 1317.019531 361.671875 1313.339844 385.925781 1313.339844 C 410.253906 1313.339844 429.1875 1319.785156 442.734375 1332.683594 C 456.28125 1345.578125 463.054688 1363.242188 463.054688 1385.683594 C 463.054688 1423.859375 452.933594 1454.675781 432.683594 1478.132812 C 412.4375 1501.59375 383.195312 1513.320312 344.957031 1513.320312 Z M 322.886719 1461.632812 C 322.886719 1488.441406 330.683594 1501.847656 346.269531 1501.847656 C 361.855469 1501.847656 375.765625 1488.332031 388 1461.304688 C 400.164062 1434.347656 406.246094 1402.257812 406.246094 1365.027344 C 406.246094 1336.90625 398.636719 1322.847656 383.414062 1322.847656 C 368.191406 1322.847656 354.28125 1335.667969 341.679688 1361.3125 C 329.152344 1386.957031 322.886719 1420.398438 322.886719 1461.632812 "/>
<path style=" stroke:none;fill-rule:nonzero;fill:rgb(96.078431%,40%,38.431373%);fill-opacity:1;" d="M 534.941406 1500.316406 C 568.082031 1500.316406 584.652344 1475.839844 584.652344 1426.882812 C 584.652344 1414.859375 582.902344 1400.617188 579.40625 1384.152344 C 575.910156 1367.761719 573.835938 1357.5625 573.179688 1353.554688 C 552.714844 1374.609375 529.734375 1387.320312 504.242188 1391.691406 L 504.242188 1379.671875 C 528.425781 1374.28125 551.039062 1360.546875 572.085938 1338.472656 L 572.085938 1336.398438 C 572.085938 1328.382812 573.289062 1320.515625 575.691406 1312.792969 C 578.023438 1305.070312 580.355469 1299.386719 582.683594 1295.746094 L 586.179688 1290.171875 L 598.308594 1290.171875 C 598.308594 1304.886719 600.636719 1318.367188 605.300781 1330.605469 C 609.960938 1342.84375 615.167969 1352.753906 620.921875 1360.328125 C 626.605469 1367.832031 631.773438 1377.707031 636.4375 1389.945312 C 641.171875 1402.183594 643.539062 1415.660156 643.539062 1430.378906 C 643.539062 1454.203125 634.578125 1473.980469 616.660156 1489.71875 C 598.671875 1505.453125 577.113281 1513.320312 551.984375 1513.320312 C 526.859375 1513.320312 507.847656 1507.640625 494.957031 1496.273438 C 482.066406 1484.910156 475.621094 1471.757812 475.621094 1456.824219 C 475.621094 1441.890625 479.296875 1431.144531 486.65625 1424.585938 C 494.082031 1418.101562 502.824219 1414.859375 512.875 1414.859375 C 522.925781 1414.859375 531.191406 1418.101562 537.675781 1424.585938 C 544.230469 1431.144531 547.507812 1439.519531 547.507812 1449.722656 C 547.507812 1459.992188 544.339844 1468.625 538 1475.621094 C 531.59375 1482.6875 523.363281 1486.21875 513.3125 1486.21875 C 508.941406 1486.21875 504.425781 1485.566406 499.765625 1484.253906 C 507.121094 1494.960938 518.847656 1500.316406 534.941406 1500.316406 "/>
<path style=" stroke:none;fill-rule:nonzero;fill:rgb(96.078431%,40%,38.431373%);fill-opacity:1;" d="M 719.902344 1500.316406 C 753.042969 1500.316406 769.613281 1475.839844 769.613281 1426.882812 C 769.613281 1414.859375 767.863281 1400.617188 764.367188 1384.152344 C 760.871094 1367.761719 758.757812 1357.5625 758.03125 1353.554688 C 737.636719 1374.609375 714.695312 1387.320312 689.203125 1391.691406 L 689.203125 1379.671875 C 713.3125 1374.28125 735.925781 1360.546875 757.046875 1338.472656 L 757.046875 1336.398438 C 757.046875 1328.382812 758.214844 1320.515625 760.542969 1312.792969 C 762.949219 1305.070312 765.316406 1299.386719 767.644531 1295.746094 L 771.140625 1290.171875 L 783.160156 1290.171875 C 783.160156 1304.886719 785.527344 1318.367188 790.261719 1330.605469 C 794.921875 1342.84375 800.09375 1352.753906 805.773438 1360.328125 C 811.527344 1367.832031 816.734375 1377.707031 821.394531 1389.945312 C 826.058594 1402.183594 828.386719 1415.660156 828.386719 1430.378906 C 828.386719 1454.203125 819.429688 1473.980469 801.511719 1489.71875 C 783.597656 1505.453125 762.074219 1513.320312 736.945312 1513.320312 C 711.820312 1513.320312 692.808594 1507.640625 679.917969 1496.273438 C 667.027344 1484.910156 660.582031 1471.757812 660.582031 1456.824219 C 660.582031 1441.890625 664.257812 1431.144531 671.613281 1424.585938 C 678.972656 1418.101562 687.675781 1414.859375 697.726562 1414.859375 C 707.777344 1414.859375 716.078125 1418.101562 722.632812 1424.585938 C 729.1875 1431.144531 732.46875 1439.519531 732.46875 1449.722656 C 732.46875 1459.992188 729.261719 1468.625 722.851562 1475.621094 C 716.515625 1482.6875 708.324219 1486.21875 698.273438 1486.21875 C 693.902344 1486.21875 689.386719 1485.566406 684.722656 1484.253906 C 692.082031 1494.960938 703.808594 1500.316406 719.902344 1500.316406 "/>
<path style=" stroke:none;fill-rule:nonzero;fill:rgb(96.078431%,40%,38.431373%);fill-opacity:1;" d="M 936.4375 1513.320312 C 910.652344 1513.320312 891.0625 1506.875 877.660156 1493.980469 C 864.257812 1481.085938 857.558594 1464.835938 857.558594 1445.242188 C 857.558594 1425.644531 859.34375 1408.886719 862.910156 1394.972656 C 866.40625 1381.054688 872.160156 1367.652344 880.171875 1354.757812 C 888.257812 1341.863281 900.421875 1331.734375 916.664062 1324.375 C 932.902344 1317.019531 953.152344 1313.339844 977.40625 1313.339844 C 1001.730469 1313.339844 1020.667969 1319.785156 1034.214844 1332.683594 C 1047.761719 1345.578125 1054.535156 1363.242188 1054.535156 1385.683594 C 1054.535156 1423.859375 1044.410156 1454.675781 1024.164062 1478.132812 C 1003.917969 1501.59375 974.675781 1513.320312 936.4375 1513.320312 Z M 914.367188 1461.632812 C 914.367188 1488.441406 922.160156 1501.847656 937.746094 1501.847656 C 953.332031 1501.847656 967.246094 1488.332031 979.480469 1461.304688 C 991.71875 1434.347656 997.835938 1402.257812 997.835938 1365.027344 C 997.835938 1336.90625 990.1875 1322.847656 974.894531 1322.847656 C 959.671875 1322.847656 945.796875 1335.667969 933.269531 1361.3125 C 920.667969 1386.957031 914.367188 1420.398438 914.367188 1461.632812 "/>
<path style=" stroke:none;fill-rule:nonzero;fill:rgb(96.078431%,40%,38.431373%);fill-opacity:1;" d="M 1393.757812 1566.648438 C 1372.34375 1579.398438 1349.257812 1585.773438 1324.492188 1585.773438 C 1299.65625 1585.773438 1280.71875 1581.839844 1267.683594 1573.972656 C 1254.574219 1566.105469 1248.019531 1556.195312 1248.019531 1544.246094 C 1248.019531 1532.371094 1252.824219 1522.828125 1262.4375 1515.617188 C 1271.980469 1508.402344 1286.292969 1504.796875 1305.375 1504.796875 C 1331.519531 1504.796875 1354.972656 1514.523438 1375.730469 1533.976562 C 1379.738281 1521.589844 1383.085938 1507.859375 1385.78125 1492.777344 L 1388.730469 1474.199219 L 1367.644531 1474.199219 L 1367.644531 1463.054688 L 1390.808594 1463.054688 L 1428.9375 1244.929688 C 1430.609375 1232.546875 1432.976562 1222.492188 1436.035156 1214.769531 C 1366.699219 1220.160156 1313.167969 1234.839844 1275.4375 1258.808594 C 1237.785156 1282.703125 1218.957031 1314.105469 1218.957031 1353.007812 C 1218.957031 1370.421875 1224.964844 1385.171875 1236.984375 1397.265625 C 1245.359375 1405.28125 1256.429688 1411.398438 1270.195312 1415.625 C 1283.886719 1419.777344 1295.175781 1422.109375 1304.0625 1422.621094 C 1312.949219 1423.128906 1317.71875 1423.054688 1318.375 1422.402344 L 1318.375 1432.890625 C 1278.898438 1432.890625 1249.582031 1423.53125 1230.429688 1404.808594 C 1216.371094 1391.691406 1209.34375 1374.425781 1209.34375 1353.007812 C 1209.34375 1310.460938 1229.300781 1276.367188 1269.210938 1250.722656 C 1309.050781 1225.078125 1366.007812 1209.742188 1440.078125 1204.714844 C 1455.8125 1169.527344 1485.125 1151.933594 1528.023438 1151.933594 L 1528.023438 1165.046875 C 1519.648438 1165.992188 1513.859375 1169.34375 1510.65625 1175.101562 C 1507.449219 1180.78125 1504.683594 1190 1502.351562 1202.746094 C 1530.175781 1203.039062 1554.0625 1206.464844 1574.019531 1213.019531 C 1593.902344 1219.578125 1609.050781 1228.210938 1619.46875 1238.917969 C 1639.207031 1259.320312 1649.074219 1283.289062 1649.074219 1310.824219 C 1649.074219 1331.878906 1645.140625 1351.039062 1637.273438 1368.308594 C 1629.410156 1385.574219 1619.429688 1399.742188 1607.339844 1410.816406 C 1595.324219 1421.890625 1580.609375 1431.433594 1563.203125 1439.449219 C 1534.363281 1453.21875 1499.65625 1462.945312 1459.089844 1468.625 L 1459.089844 1469.609375 C 1452.097656 1508.804688 1433.34375 1539.148438 1402.824219 1560.640625 C 1416.589844 1573.023438 1431.667969 1582.75 1448.054688 1589.816406 C 1464.515625 1596.8125 1485.636719 1600.308594 1511.417969 1600.308594 L 1511.417969 1611.347656 C 1483.597656 1611.347656 1460.726562 1607.410156 1442.808594 1599.542969 C 1424.894531 1591.675781 1408.542969 1580.710938 1393.757812 1566.648438 Z M 1636.074219 1310.824219 C 1636.074219 1281.320312 1624.929688 1257.679688 1602.644531 1239.902344 C 1580.355469 1222.128906 1546.597656 1212.910156 1501.367188 1212.253906 C 1488.988281 1303.394531 1475.730469 1384.992188 1461.601562 1457.042969 C 1577.917969 1440.285156 1636.074219 1391.546875 1636.074219 1310.824219 Z M 1371.6875 1545.011719 C 1360.980469 1534.960938 1350.75 1527.347656 1340.988281 1522.171875 C 1331.300781 1517 1319.503906 1514.414062 1305.59375 1514.414062 C 1291.679688 1514.414062 1280.648438 1517 1272.488281 1522.171875 C 1264.257812 1527.347656 1260.144531 1534.558594 1260.144531 1543.8125 C 1260.144531 1552.992188 1265.496094 1560.675781 1276.203125 1566.867188 C 1286.910156 1573.0625 1299.800781 1576.15625 1314.878906 1576.15625 C 1329.957031 1576.15625 1341.9375 1574.007812 1350.820312 1569.710938 C 1359.707031 1565.339844 1366.664062 1557.105469 1371.6875 1545.011719 "/>
<path style=" stroke:none;fill-rule:nonzero;fill:rgb(96.078431%,40%,38.431373%);fill-opacity:1;" d="M 1747.617188 1513.320312 C 1721.835938 1513.320312 1702.242188 1506.875 1688.839844 1493.980469 C 1675.441406 1481.085938 1668.738281 1464.835938 1668.738281 1445.242188 C 1668.738281 1425.644531 1670.488281 1408.886719 1673.984375 1394.972656 C 1677.480469 1381.054688 1683.269531 1367.652344 1691.355469 1354.757812 C 1699.367188 1341.863281 1711.492188 1331.734375 1727.734375 1324.375 C 1743.976562 1317.019531 1764.261719 1313.339844 1788.585938 1313.339844 C 1812.839844 1313.339844 1831.777344 1319.785156 1845.398438 1332.683594 C 1858.945312 1345.578125 1865.71875 1363.242188 1865.71875 1385.683594 C 1865.71875 1423.859375 1855.558594 1454.675781 1835.238281 1478.132812 C 1814.988281 1501.59375 1785.78125 1513.320312 1747.617188 1513.320312 Z M 1725.441406 1461.632812 C 1725.441406 1488.441406 1733.234375 1501.847656 1748.820312 1501.847656 C 1764.40625 1501.847656 1778.316406 1488.332031 1790.554688 1461.304688 C 1802.789062 1434.347656 1808.90625 1402.257812 1808.90625 1365.027344 C 1808.90625 1336.90625 1801.296875 1322.847656 1786.074219 1322.847656 C 1770.777344 1322.847656 1756.867188 1335.667969 1744.339844 1361.3125 C 1731.738281 1386.957031 1725.441406 1420.398438 1725.441406 1461.632812 "/>
<path style=" stroke:none;fill-rule:nonzero;fill:rgb(96.078431%,40%,38.431373%);fill-opacity:1;" d="M 2081.8125 1503.269531 C 2089.824219 1503.269531 2098.199219 1498.605469 2106.941406 1489.28125 L 2114.480469 1495.289062 C 2112.148438 1499.953125 2106.941406 1504.140625 2098.855469 1507.859375 C 2090.84375 1511.5 2081.960938 1513.320312 2072.199219 1513.320312 C 2041.753906 1513.320312 2026.53125 1499.589844 2026.53125 1472.125 C 2026.53125 1460.394531 2029.554688 1439.449219 2035.601562 1409.289062 C 2041.574219 1379.125 2044.558594 1359.347656 2044.558594 1349.949219 C 2044.558594 1335.597656 2037.714844 1328.421875 2024.019531 1328.421875 C 2003.261719 1328.421875 1985.820312 1355.046875 1971.691406 1408.304688 L 1953.664062 1508.839844 L 1893.355469 1508.839844 L 1926.460938 1323.394531 C 1916.410156 1324.339844 1908.035156 1329.003906 1901.332031 1337.382812 L 1893.792969 1331.371094 C 1903.84375 1319.351562 1916.519531 1313.339844 1931.8125 1313.339844 C 1947.035156 1313.339844 1958.835938 1317.164062 1967.210938 1324.8125 C 1975.585938 1332.535156 1979.773438 1343.429688 1979.773438 1357.488281 L 1979.773438 1359.019531 C 1992.8125 1328.566406 2012.585938 1313.339844 2039.097656 1313.339844 C 2057.816406 1313.339844 2072.636719 1318.4375 2083.5625 1328.636719 C 2094.414062 1338.839844 2100.351562 1353.152344 2101.371094 1371.585938 C 2107.777344 1353.152344 2115.828125 1338.839844 2125.511719 1328.636719 C 2135.199219 1318.4375 2149.257812 1313.339844 2167.683594 1313.339844 C 2186.109375 1313.339844 2200.859375 1318.949219 2211.929688 1330.167969 C 2223 1341.386719 2228.535156 1356.871094 2228.535156 1376.613281 C 2228.535156 1387.03125 2225.367188 1407.066406 2219.03125 1436.714844 C 2212.621094 1466.367188 2209.089844 1488.550781 2208.433594 1503.269531 C 2216.445312 1503.269531 2224.820312 1498.605469 2233.5625 1489.28125 L 2241.101562 1495.289062 C 2238.769531 1499.953125 2233.5625 1504.140625 2225.476562 1507.859375 C 2217.464844 1511.5 2208.617188 1513.320312 2198.929688 1513.320312 C 2168.414062 1513.320312 2153.152344 1499.589844 2153.152344 1472.125 C 2153.152344 1460.394531 2156.175781 1439.449219 2162.222656 1409.289062 C 2168.265625 1379.125 2171.289062 1359.347656 2171.289062 1349.949219 C 2171.289062 1335.597656 2164.40625 1328.421875 2150.640625 1328.421875 C 2126.535156 1328.421875 2107.085938 1364.265625 2092.300781 1435.953125 C 2085.964844 1466.476562 2082.46875 1488.914062 2081.8125 1503.269531 "/>
<path style=" stroke:none;fill-rule:nonzero;fill:rgb(96.078431%,40%,38.431373%);fill-opacity:1;" d="M 2343.578125 1513.320312 C 2317.792969 1513.320312 2298.203125 1506.875 2284.800781 1493.980469 C 2271.398438 1481.085938 2264.699219 1464.835938 2264.699219 1445.242188 C 2264.699219 1425.644531 2266.445312 1408.886719 2269.941406 1394.972656 C 2273.511719 1381.054688 2279.300781 1367.652344 2287.3125 1354.757812 C 2295.398438 1341.863281 2307.558594 1331.734375 2323.800781 1324.375 C 2340.042969 1317.019531 2360.292969 1313.339844 2384.546875 1313.339844 C 2408.871094 1313.339844 2427.808594 1319.785156 2441.355469 1332.683594 C 2454.902344 1345.578125 2461.675781 1363.242188 2461.675781 1385.683594 C 2461.675781 1423.859375 2451.550781 1454.675781 2431.304688 1478.132812 C 2411.058594 1501.59375 2381.8125 1513.320312 2343.578125 1513.320312 Z M 2321.507812 1461.632812 C 2321.507812 1488.441406 2329.300781 1501.847656 2344.886719 1501.847656 C 2360.472656 1501.847656 2374.386719 1488.332031 2386.621094 1461.304688 C 2398.855469 1434.347656 2404.976562 1402.257812 2404.976562 1365.027344 C 2404.976562 1336.90625 2397.328125 1322.847656 2382.03125 1322.847656 C 2366.808594 1322.847656 2352.898438 1335.667969 2340.300781 1361.3125 C 2327.773438 1386.957031 2321.507812 1420.398438 2321.507812 1461.632812 "/>
<path style=" stroke:none;fill-rule:nonzero;fill:rgb(96.078431%,40%,38.431373%);fill-opacity:1;" d="M 2660.730469 1513.320312 C 2631.230469 1513.320312 2615.136719 1500.753906 2612.441406 1475.621094 C 2597.726562 1500.753906 2578.972656 1513.320312 2556.175781 1513.320312 C 2533.378906 1513.320312 2515.972656 1506.875 2503.957031 1493.980469 C 2491.867188 1481.085938 2485.820312 1463.417969 2485.820312 1440.976562 C 2485.820312 1401.417969 2495.214844 1370.238281 2514.007812 1347.433594 C 2532.726562 1324.703125 2557.015625 1313.339844 2586.875 1313.339844 C 2603.917969 1313.339844 2617.136719 1318.511719 2626.535156 1328.855469 C 2630.539062 1334.25 2633.050781 1338.292969 2634.074219 1340.988281 L 2661.277344 1193.132812 C 2651.222656 1194.152344 2642.847656 1198.851562 2636.148438 1207.226562 L 2628.609375 1201.21875 C 2638.660156 1189.125 2651.296875 1183.078125 2666.519531 1183.078125 C 2681.742188 1183.078125 2693.539062 1186.9375 2701.917969 1194.660156 C 2710.292969 1202.382812 2714.480469 1213.273438 2714.480469 1227.335938 C 2714.480469 1230.03125 2714.152344 1234.402344 2713.496094 1240.449219 C 2697.109375 1332.609375 2681.195312 1420.214844 2665.753906 1503.269531 C 2675.804688 1502.320312 2684.183594 1497.660156 2690.882812 1489.28125 L 2698.421875 1495.289062 C 2688.371094 1507.3125 2675.804688 1513.320312 2660.730469 1513.320312 Z M 2542.628906 1461.632812 C 2542.628906 1477.003906 2544.230469 1487.53125 2547.4375 1493.214844 C 2550.570312 1498.96875 2555.59375 1501.847656 2562.511719 1501.847656 C 2569.359375 1501.847656 2575.953125 1499.480469 2582.289062 1494.742188 C 2588.695312 1490.082031 2594.085938 1484.070312 2598.457031 1476.714844 C 2606.46875 1464.253906 2612.148438 1453.691406 2615.5 1445.023438 L 2630.03125 1365.574219 C 2629.375 1354.867188 2625.878906 1345.066406 2619.542969 1336.179688 C 2613.132812 1327.289062 2602.246094 1322.847656 2586.875 1322.847656 C 2576.167969 1322.847656 2566.117188 1338.582031 2556.722656 1370.054688 C 2547.328125 1401.601562 2542.628906 1432.125 2542.628906 1461.632812 "/>
<path style=" stroke:none;fill-rule:nonzero;fill:rgb(96.078431%,40%,38.431373%);fill-opacity:1;" d="M 2804.9375 1513.320312 C 2779.15625 1513.320312 2759.5625 1506.875 2746.164062 1493.980469 C 2732.761719 1481.085938 2726.0625 1464.835938 2726.0625 1445.242188 C 2726.0625 1425.644531 2727.808594 1408.886719 2731.304688 1394.972656 C 2734.875 1381.054688 2740.664062 1367.652344 2748.675781 1354.757812 C 2756.6875 1341.863281 2768.8125 1331.734375 2785.054688 1324.375 C 2801.371094 1317.019531 2821.65625 1313.339844 2845.90625 1313.339844 C 2870.234375 1313.339844 2889.171875 1319.785156 2902.71875 1332.683594 C 2916.265625 1345.578125 2923.039062 1363.242188 2923.039062 1385.683594 C 2923.039062 1423.859375 2912.914062 1454.675781 2892.667969 1478.132812 C 2872.417969 1501.59375 2843.175781 1513.320312 2804.9375 1513.320312 Z M 2782.871094 1461.632812 C 2782.871094 1488.441406 2790.664062 1501.847656 2806.25 1501.847656 C 2821.835938 1501.847656 2835.710938 1488.332031 2847.875 1461.304688 C 2860.109375 1434.347656 2866.230469 1402.257812 2866.230469 1365.027344 C 2866.230469 1336.90625 2858.617188 1322.847656 2843.394531 1322.847656 C 2828.171875 1322.847656 2814.261719 1335.667969 2801.660156 1361.3125 C 2789.132812 1386.957031 2782.871094 1420.398438 2782.871094 1461.632812 "/>
<path style=" stroke:none;fill-rule:nonzero;fill:rgb(96.078431%,40%,38.431373%);fill-opacity:1;" d="M 2958.21875 1337.382812 L 2950.679688 1331.371094 C 2960.730469 1319.351562 2973.367188 1313.339844 2988.589844 1313.339844 C 3003.882812 1313.339844 3015.71875 1317.164062 3024.09375 1324.8125 C 3032.46875 1332.535156 3036.660156 1343.429688 3036.660156 1357.488281 L 3036.660156 1360.546875 C 3051.734375 1329.074219 3071.328125 1313.339844 3095.433594 1313.339844 C 3121.21875 1313.339844 3134.109375 1326.746094 3134.109375 1353.554688 C 3134.109375 1364.554688 3130.429688 1376.285156 3123.074219 1388.742188 C 3115.71875 1401.128906 3108.363281 1412.929688 3101.007812 1424.148438 C 3093.578125 1435.367188 3089.863281 1445.347656 3089.863281 1454.09375 L 3077.847656 1454.09375 C 3077.847656 1441.632812 3085.054688 1424.878906 3099.476562 1403.824219 C 3113.898438 1382.695312 3121.109375 1366.339844 3121.109375 1354.757812 C 3121.109375 1343.171875 3118.816406 1335.304688 3114.226562 1331.152344 C 3109.710938 1326.925781 3103.007812 1324.8125 3094.125 1324.8125 C 3085.3125 1324.8125 3076.609375 1328.675781 3068.011719 1336.398438 C 3059.492188 1344.121094 3052.390625 1353.847656 3046.710938 1365.574219 C 3037.679688 1382.988281 3031.632812 1397.230469 3028.574219 1408.304688 L 3028.574219 1408.851562 L 3010.546875 1508.839844 L 2950.242188 1508.839844 L 2983.34375 1323.394531 C 2973.292969 1324.339844 2964.917969 1329.003906 2958.21875 1337.382812 "/>
</g>
</svg>
