<?xml version="1.0" encoding="utf-8"?><svg xmlns="http://www.w3.org/2000/svg" width="280" height="250" preserveAspectRatio="xMidYMid" xmlns:xlink="http://www.w3.org/1999/xlink" style="margin-right:-2px;display:block;background-repeat-y:initial;background-repeat-x:initial;background-color:rgb(255, 255, 255);animation-play-state:paused" ><style type="text/css" style="animation-play-state:paused" >text {
    text-anchor: middle; font-size: 30px; opacity: 0;
  }</style>


<g style="transform-origin:140px 125px;transform:matrix(0.652174, 0, 0, 0.652174, 0, 0);animation-play-state:paused" ><g transform="translate(140,125)" style="transform:matrix(1, 0, 0, 1, 140, 125);animation-play-state:paused" ><g transform="translate(0,0)" style="transform:matrix(1, 0, 0, 1, 0, 0);animation-play-state:paused" ><g class="path" style="transform-origin:-134px 3.62112px;transform:matrix(1.00565, 0, 0, 1.00565, 0, 0);animation-timing-function:linear;animation-play-state:paused;animation-name:breath-3bc2f155-1cbc-41cb-a2f2-0a5f71b7ef48;animation-iteration-count:infinite;animation-fill-mode:forwards;animation-duration:1s;animation-delay:-0.609231s" ><path d="M14.17 7.04L14.17 7.04L14.17 6.16L14.17 6.16Q17.02 6.03 18.03 4.69L18.03 4.69L18.03 4.69Q19.04 3.36 19.92-1.47L19.92-1.47L24.33-26.91L24.33-26.91Q14.90-26.13 9.78-22.84L9.78-22.84L9.78-22.84Q4.65-19.55 4.65-14.26L4.65-14.26L4.65-14.26Q4.65-11.87 6.30-10.21L6.30-10.21L6.30-10.21Q7.45-9.11 9.34-8.53L9.34-8.53L9.34-8.53Q11.22-7.96 12.44-7.89L12.44-7.89L12.44-7.89Q13.66-7.82 13.75-7.91L13.75-7.91L13.75-6.95L13.75-6.95Q8.33-6.95 5.70-9.52L5.70-9.52L5.70-9.52Q3.77-11.32 3.77-14.26L3.77-14.26L3.77-14.26Q3.77-20.84 10.65-24.43L10.65-24.43L10.65-24.43Q17.53-28.01 30.08-28.01L30.08-28.01L30.08-28.01Q37.90-28.01 41.19-25.90L41.19-25.90L41.19-25.90Q44.48-23.78 44.48-20.13L44.48-20.13L44.48-20.13Q44.48-16.47 41.98-13.85L41.98-13.85L41.98-13.85Q39.47-11.22 35.37-9.80L35.37-9.80L35.37-9.80Q41.35 2.62 43.06 5.13L43.06 5.13L43.06 5.13Q44.76 7.64 47.15 7.64L47.15 7.64L47.15 7.64Q48.58 7.64 49.70 6.74L49.70 6.74L49.70 6.74Q50.83 5.84 51.29 4.32L51.29 4.32L52.44 4.32L52.44 4.32Q50.97 9.11 45.22 9.11L45.22 9.11L45.22 9.11Q41.58 9.11 39.21 7.38L39.21 7.38L39.21 7.38Q36.85 5.66 35.24 2.16L35.24 2.16L30.27-8.60L30.27-8.60Q28.43-8.42 27.55-8.42L27.55-8.42L27.55-8.42Q27.42-7.73 27.14-6.07L27.14-6.07L27.14-6.07Q26.86-4.42 26.68-3.59L26.68-3.59L26.68-3.59Q25.76 1.38 22.06 4.21L22.06 4.21L22.06 4.21Q18.35 7.04 14.17 7.04zM43.29-19.96L43.29-19.96L43.29-19.96Q43.29-27.00 30.50-27.14L30.50-27.14L27.74-9.43L27.74-9.43Q34.27-9.61 38.78-12.72L38.78-12.72L38.78-12.72Q43.29-15.82 43.29-19.96" fill="#f56662" stroke="none" stroke-width="none" transform="translate(-162.10498046875,13.071125253530658)" style="transform:matrix(1, 0, 0, 1, -162.105, 13.0711);fill:rgb(245, 102, 98);animation-play-state:paused" ></path></g>
<g class="path" style="transform-origin:-106.63px 4.33113px;transform:matrix(1.01808, 0, 0, 1.01808, 0, 0);animation-timing-function:linear;animation-play-state:paused;animation-name:breath-3bc2f155-1cbc-41cb-a2f2-0a5f71b7ef48;animation-iteration-count:infinite;animation-fill-mode:forwards;animation-duration:1s;animation-delay:-0.558462s" ><path d="M53.68 0.41L53.68 0.41Q50.14 0.41 48.30-1.36L48.30-1.36L48.30-1.36Q46.46-3.13 46.46-5.82L46.46-5.82L46.46-5.82Q46.46-8.51 46.94-10.42L46.94-10.42L46.94-10.42Q47.43-12.33 48.53-14.10L48.53-14.10L48.53-14.10Q49.63-15.87 51.87-16.88L51.87-16.88L51.87-16.88Q54.10-17.89 57.43-17.89L57.43-17.89L57.43-17.89Q60.77-17.89 62.63-16.12L62.63-16.12L62.63-16.12Q64.49-14.35 64.49-11.27L64.49-11.27L64.49-11.27Q64.49-6.03 61.71-2.81L61.71-2.81L61.71-2.81Q58.93 0.41 53.68 0.41L53.68 0.41zM51.66-4.32L51.66-4.32L51.66-4.32Q51.66-0.64 53.80-0.64L53.80-0.64L53.80-0.64Q55.94-0.64 57.62-4.35L57.62-4.35L57.62-4.35Q59.29-8.05 59.29-13.16L59.29-13.16L59.29-13.16Q59.29-17.02 57.20-17.02L57.20-17.02L57.20-17.02Q55.11-17.02 53.38-13.50L53.38-13.50L53.38-13.50Q51.66-9.98 51.66-4.32" fill="#f56662" stroke="none" stroke-width="none" transform="translate(-162.10498046875,13.071125253530658)" style="transform:matrix(1, 0, 0, 1, -162.105, 13.0711);fill:rgb(245, 102, 98);animation-play-state:paused" ></path></g>
<g class="path" style="transform-origin:-88.78px 3.27112px;transform:matrix(1.0294, 0, 0, 1.0294, 0, 0);animation-timing-function:linear;animation-play-state:paused;animation-name:breath-3bc2f155-1cbc-41cb-a2f2-0a5f71b7ef48;animation-iteration-count:infinite;animation-fill-mode:forwards;animation-duration:1s;animation-delay:-0.507692s" ><path d="M71.07-0.78L71.07-0.78L71.07-0.78Q75.62-0.78 75.62-7.50L75.62-7.50L75.62-7.50Q75.62-9.15 75.14-11.41L75.14-11.41L75.14-11.41Q74.66-13.66 74.57-14.21L74.57-14.21L74.57-14.21Q71.76-11.32 68.26-10.72L68.26-10.72L68.26-11.82L68.26-11.82Q71.58-12.56 74.47-15.59L74.47-15.59L74.47-15.78L74.47-15.78Q74.47-16.88 74.80-17.94L74.80-17.94L74.80-17.94Q75.12-19.00 75.44-19.50L75.44-19.50L75.76-20.01L76.87-20.01L76.87-20.01Q76.87-17.99 77.51-16.31L77.51-16.31L77.51-16.31Q78.15-14.63 78.94-13.59L78.94-13.59L78.94-13.59Q79.72-12.56 80.36-10.88L80.36-10.88L80.36-10.88Q81.01-9.20 81.01-7.18L81.01-7.18L81.01-7.18Q81.01-3.91 78.55-1.75L78.55-1.75L78.55-1.75Q76.08 0.41 72.63 0.41L72.63 0.41L72.63 0.41Q69.18 0.41 67.41-1.15L67.41-1.15L67.41-1.15Q65.64-2.71 65.64-4.76L65.64-4.76L65.64-4.76Q65.64-6.81 66.65-7.71L66.65-7.71L66.65-7.71Q67.67-8.60 69.05-8.60L69.05-8.60L69.05-8.60Q70.43-8.60 71.32-7.71L71.32-7.71L71.32-7.71Q72.22-6.81 72.22-5.41L72.22-5.41L72.22-5.41Q72.22-4.00 71.35-3.04L71.35-3.04L71.35-3.04Q70.47-2.07 69.09-2.07L69.09-2.07L69.09-2.07Q68.49-2.07 67.85-2.25L67.85-2.25L67.85-2.25Q68.86-0.78 71.07-0.78" fill="#f56662" stroke="none" stroke-width="none" transform="translate(-162.10498046875,13.071125253530658)" style="transform:matrix(1, 0, 0, 1, -162.105, 13.0711);fill:rgb(245, 102, 98);animation-play-state:paused" ></path></g>
<g class="path" style="transform-origin:-71.855px 3.27112px;transform:matrix(1.01746, 0, 0, 1.01746, 0, 0);animation-timing-function:linear;animation-play-state:paused;animation-name:breath-3bc2f155-1cbc-41cb-a2f2-0a5f71b7ef48;animation-iteration-count:infinite;animation-fill-mode:forwards;animation-duration:1s;animation-delay:-0.456923s" ><path d="M88.00-0.78L88.00-0.78L88.00-0.78Q92.55-0.78 92.55-7.50L92.55-7.50L92.55-7.50Q92.55-9.15 92.07-11.41L92.07-11.41L92.07-11.41Q91.59-13.66 91.49-14.21L91.49-14.21L91.49-14.21Q88.69-11.32 85.19-10.72L85.19-10.72L85.19-11.82L85.19-11.82Q88.50-12.56 91.40-15.59L91.40-15.59L91.40-15.78L91.40-15.78Q91.40-16.88 91.72-17.94L91.72-17.94L91.72-17.94Q92.05-19.00 92.37-19.50L92.37-19.50L92.69-20.01L93.79-20.01L93.79-20.01Q93.79-17.99 94.44-16.31L94.44-16.31L94.44-16.31Q95.08-14.63 95.86-13.59L95.86-13.59L95.86-13.59Q96.65-12.56 97.29-10.88L97.29-10.88L97.29-10.88Q97.93-9.20 97.93-7.18L97.93-7.18L97.93-7.18Q97.93-3.91 95.47-1.75L95.47-1.75L95.47-1.75Q93.01 0.41 89.56 0.41L89.56 0.41L89.56 0.41Q86.11 0.41 84.34-1.15L84.34-1.15L84.34-1.15Q82.57-2.71 82.57-4.76L82.57-4.76L82.57-4.76Q82.57-6.81 83.58-7.71L83.58-7.71L83.58-7.71Q84.59-8.60 85.97-8.60L85.97-8.60L85.97-8.60Q87.35-8.60 88.25-7.71L88.25-7.71L88.25-7.71Q89.15-6.81 89.15-5.41L89.15-5.41L89.15-5.41Q89.15-4.00 88.27-3.04L88.27-3.04L88.27-3.04Q87.40-2.07 86.02-2.07L86.02-2.07L86.02-2.07Q85.42-2.07 84.78-2.25L84.78-2.25L84.78-2.25Q85.79-0.78 88.00-0.78" fill="#f56662" stroke="none" stroke-width="none" transform="translate(-162.10498046875,13.071125253530658)" style="transform:matrix(1, 0, 0, 1, -162.105, 13.0711);fill:rgb(245, 102, 98);animation-play-state:paused" ></path></g>
<g class="path" style="transform-origin:-52.49px 4.33113px;transform:matrix(1.00552, 0, 0, 1.00552, 0, 0);animation-timing-function:linear;animation-play-state:paused;animation-name:breath-3bc2f155-1cbc-41cb-a2f2-0a5f71b7ef48;animation-iteration-count:infinite;animation-fill-mode:forwards;animation-duration:1s;animation-delay:-0.406154s" ><path d="M107.82 0.41L107.82 0.41Q104.28 0.41 102.44-1.36L102.44-1.36L102.44-1.36Q100.60-3.13 100.60-5.82L100.60-5.82L100.60-5.82Q100.60-8.51 101.09-10.42L101.09-10.42L101.09-10.42Q101.57-12.33 102.67-14.10L102.67-14.10L102.67-14.10Q103.78-15.87 106.01-16.88L106.01-16.88L106.01-16.88Q108.24-17.89 111.57-17.89L111.57-17.89L111.57-17.89Q114.91-17.89 116.77-16.12L116.77-16.12L116.77-16.12Q118.63-14.35 118.63-11.27L118.63-11.27L118.63-11.27Q118.63-6.03 115.85-2.81L115.85-2.81L115.85-2.81Q113.07 0.41 107.82 0.41L107.82 0.41zM105.80-4.32L105.80-4.32L105.80-4.32Q105.80-0.64 107.94-0.64L107.94-0.64L107.94-0.64Q110.08-0.64 111.76-4.35L111.76-4.35L111.76-4.35Q113.44-8.05 113.44-13.16L113.44-13.16L113.44-13.16Q113.44-17.02 111.34-17.02L111.34-17.02L111.34-17.02Q109.25-17.02 107.53-13.50L107.53-13.50L107.53-13.50Q105.80-9.98 105.80-4.32" fill="#f56662" stroke="none" stroke-width="none" transform="translate(-162.10498046875,13.071125253530658)" style="transform:matrix(1, 0, 0, 1, -162.105, 13.0711);fill:rgb(245, 102, 98);animation-play-state:paused" ></path></g>
<g class="path" style="transform-origin:-9.17998px 1.43113px;transform:matrix(0.993578, 0, 0, 0.993578, 0, 0);animation-timing-function:linear;animation-play-state:paused;animation-name:breath-3bc2f155-1cbc-41cb-a2f2-0a5f71b7ef48;animation-iteration-count:infinite;animation-fill-mode:forwards;animation-duration:1s;animation-delay:-0.355385s" ><path d="M149.68 5.29L149.68 5.29L149.68 5.29Q146.74 7.04 143.34 7.04L143.34 7.04L143.34 7.04Q139.93 7.04 138.14 5.96L138.14 5.96L138.14 5.96Q136.34 4.88 136.34 3.24L136.34 3.24L136.34 3.24Q136.34 1.61 137.66 0.62L137.66 0.62L137.66 0.62Q138.97-0.37 141.59-0.37L141.59-0.37L141.59-0.37Q145.18-0.37 148.03 2.30L148.03 2.30L148.03 2.30Q148.58 0.60 148.95-1.47L148.95-1.47L149.22-3.17L147.29-3.17L147.29-4.19L149.41-4.19L152.90-24.15L152.90-24.15Q153.13-25.85 153.55-26.91L153.55-26.91L153.55-26.91Q144.03-26.17 138.85-22.88L138.85-22.88L138.85-22.88Q133.68-19.60 133.68-14.26L133.68-14.26L133.68-14.26Q133.68-11.87 135.33-10.21L135.33-10.21L135.33-10.21Q136.48-9.11 138.37-8.53L138.37-8.53L138.37-8.53Q140.25-7.96 141.47-7.89L141.47-7.89L141.47-7.89Q142.69-7.82 142.78-7.91L142.78-7.91L142.78-6.95L142.78-6.95Q137.36-6.95 134.73-9.52L134.73-9.52L134.73-9.52Q132.80-11.32 132.80-14.26L132.80-14.26L132.80-14.26Q132.80-20.10 138.28-23.62L138.28-23.62L138.28-23.62Q143.75-27.14 153.92-27.83L153.92-27.83L153.92-27.83Q156.08-32.66 161.97-32.66L161.97-32.66L161.97-31.46L161.97-31.46Q160.82-31.33 160.38-30.54L160.38-30.54L160.38-30.54Q159.94-29.76 159.62-28.01L159.62-28.01L159.62-28.01Q163.44-27.97 166.18-27.07L166.18-27.07L166.18-27.07Q168.91-26.17 170.34-24.70L170.34-24.70L170.34-24.70Q173.05-21.90 173.05-18.12L173.05-18.12L173.05-18.12Q173.05-15.23 171.97-12.86L171.97-12.86L171.97-12.86Q170.89-10.49 169.23-8.97L169.23-8.97L169.23-8.97Q167.58-7.45 165.19-6.35L165.19-6.35L165.19-6.35Q161.23-4.46 155.66-3.68L155.66-3.68L155.66-3.59L155.66-3.59Q154.70 1.79 150.51 4.74L150.51 4.74L150.51 4.74Q152.40 6.44 154.65 7.41L154.65 7.41L154.65 7.41Q156.91 8.37 160.45 8.37L160.45 8.37L160.45 9.38L160.45 9.38Q156.63 9.38 154.17 8.30L154.17 8.30L154.17 8.30Q151.71 7.22 149.68 5.29zM171.86-18.12L171.86-18.12L171.86-18.12Q171.86-22.17 168.80-24.61L168.80-24.61L168.80-24.61Q165.74-27.05 159.53-27.14L159.53-27.14L159.53-27.14Q157.83-14.63 155.89-4.74L155.89-4.74L155.89-4.74Q171.86-7.04 171.86-18.12zM147.66 3.31L147.66 3.31Q146.19 1.93 144.85 1.22L144.85 1.22L144.85 1.22Q143.52 0.51 141.61 0.51L141.61 0.51L141.61 0.51Q139.70 0.51 138.58 1.22L138.58 1.22L138.58 1.22Q137.45 1.93 137.45 3.20L137.45 3.20L137.45 3.20Q137.45 4.46 138.92 5.31L138.92 5.31L138.92 5.31Q140.39 6.16 142.46 6.16L142.46 6.16L142.46 6.16Q144.53 6.16 145.75 5.57L145.75 5.57L145.75 5.57Q146.97 4.97 147.66 3.31L147.66 3.31" fill="#f56662" stroke="none" stroke-width="none" transform="translate(-162.10498046875,13.071125253530658)" style="transform:matrix(1, 0, 0, 1, -162.105, 13.0711);fill:rgb(245, 102, 98);animation-play-state:paused" ></path></g>
<g class="path" style="transform-origin:21.76px 4.33113px;transform:matrix(0.981638, 0, 0, 0.981638, 0, 0);animation-timing-function:linear;animation-play-state:paused;animation-name:breath-3bc2f155-1cbc-41cb-a2f2-0a5f71b7ef48;animation-iteration-count:infinite;animation-fill-mode:forwards;animation-duration:1s;animation-delay:-0.304615s" ><path d="M182.07 0.41L182.07 0.41Q178.53 0.41 176.69-1.36L176.69-1.36L176.69-1.36Q174.85-3.13 174.85-5.82L174.85-5.82L174.85-5.82Q174.85-8.51 175.33-10.42L175.33-10.42L175.33-10.42Q175.81-12.33 176.92-14.10L176.92-14.10L176.92-14.10Q178.02-15.87 180.25-16.88L180.25-16.88L180.25-16.88Q182.48-17.89 185.82-17.89L185.82-17.89L185.82-17.89Q189.15-17.89 191.02-16.12L191.02-16.12L191.02-16.12Q192.88-14.35 192.88-11.27L192.88-11.27L192.88-11.27Q192.88-6.03 190.09-2.81L190.09-2.81L190.09-2.81Q187.31 0.41 182.07 0.41L182.07 0.41zM180.04-4.32L180.04-4.32L180.04-4.32Q180.04-0.64 182.18-0.64L182.18-0.64L182.18-0.64Q184.32-0.64 186.00-4.35L186.00-4.35L186.00-4.35Q187.68-8.05 187.68-13.16L187.68-13.16L187.68-13.16Q187.68-17.02 185.59-17.02L185.59-17.02L185.59-17.02Q183.49-17.02 181.77-13.50L181.77-13.50L181.77-13.50Q180.04-9.98 180.04-4.32" fill="#f56662" stroke="none" stroke-width="none" transform="translate(-162.10498046875,13.071125253530658)" style="transform:matrix(1, 0, 0, 1, -162.105, 13.0711);fill:rgb(245, 102, 98);animation-play-state:paused" ></path></g>
<g class="path" style="transform-origin:49.22px 4.33113px;transform:matrix(0.969699, 0, 0, 0.969699, 0, 0);animation-timing-function:linear;animation-play-state:paused;animation-name:breath-3bc2f155-1cbc-41cb-a2f2-0a5f71b7ef48;animation-iteration-count:infinite;animation-fill-mode:forwards;animation-duration:1s;animation-delay:-0.253846s" ><path d="M212.66-0.51L212.66-0.51L212.66-0.51Q213.76-0.51 214.96-1.79L214.96-1.79L215.65-1.24L215.65-1.24Q215.33-0.60 214.22-0.09L214.22-0.09L214.22-0.09Q213.12 0.41 211.78 0.41L211.78 0.41L211.78 0.41Q207.60 0.41 207.60-3.36L207.60-3.36L207.60-3.36Q207.60-4.97 208.43-9.11L208.43-9.11L208.43-9.11Q209.25-13.25 209.25-14.54L209.25-14.54L209.25-14.54Q209.25-16.51 207.37-16.51L207.37-16.51L207.37-16.51Q204.52-16.51 202.58-9.20L202.58-9.20L200.93 0L195.41 0L198.44-16.97L198.44-16.97Q197.06-16.84 196.14-15.69L196.14-15.69L195.45-16.24L195.45-16.24Q196.83-17.89 198.93-17.89L198.93-17.89L198.93-17.89Q201.02-17.89 202.17-16.84L202.17-16.84L202.17-16.84Q203.32-15.78 203.32-13.85L203.32-13.85L203.32-13.71L203.32-13.71Q205.11-17.89 208.75-17.89L208.75-17.89L208.75-17.89Q211.32-17.89 212.82-16.49L212.82-16.49L212.82-16.49Q214.31-15.09 214.45-12.56L214.45-12.56L214.45-12.56Q215.33-15.09 216.66-16.49L216.66-16.49L216.66-16.49Q217.99-17.89 220.52-17.89L220.52-17.89L220.52-17.89Q223.05-17.89 224.57-16.35L224.57-16.35L224.57-16.35Q226.09-14.81 226.09-12.10L226.09-12.10L226.09-12.10Q226.09-10.67 225.22-6.60L225.22-6.60L225.22-6.60Q224.34-2.53 224.25-0.51L224.25-0.51L224.25-0.51Q225.35-0.51 226.55-1.79L226.55-1.79L227.24-1.24L227.24-1.24Q226.92-0.60 225.81-0.09L225.81-0.09L225.81-0.09Q224.71 0.41 223.38 0.41L223.38 0.41L223.38 0.41Q219.19 0.41 219.19-3.36L219.19-3.36L219.19-3.36Q219.19-4.97 220.02-9.11L220.02-9.11L220.02-9.11Q220.85-13.25 220.85-14.54L220.85-14.54L220.85-14.54Q220.85-16.51 218.96-16.51L218.96-16.51L218.96-16.51Q215.65-16.51 213.62-6.67L213.62-6.67L213.62-6.67Q212.75-2.48 212.66-0.51" fill="#f56662" stroke="none" stroke-width="none" transform="translate(-162.10498046875,13.071125253530658)" style="transform:matrix(1, 0, 0, 1, -162.105, 13.0711);fill:rgb(245, 102, 98);animation-play-state:paused" ></path></g>
<g class="path" style="transform-origin:76.31px 4.33113px;transform:matrix(0.957759, 0, 0, 0.957759, 0, 0);animation-timing-function:linear;animation-play-state:paused;animation-name:breath-3bc2f155-1cbc-41cb-a2f2-0a5f71b7ef48;animation-iteration-count:infinite;animation-fill-mode:forwards;animation-duration:1s;animation-delay:-0.203077s" ><path d="M236.62 0.41L236.62 0.41Q233.08 0.41 231.24-1.36L231.24-1.36L231.24-1.36Q229.40-3.13 229.40-5.82L229.40-5.82L229.40-5.82Q229.40-8.51 229.88-10.42L229.88-10.42L229.88-10.42Q230.37-12.33 231.47-14.10L231.47-14.10L231.47-14.10Q232.58-15.87 234.81-16.88L234.81-16.88L234.81-16.88Q237.04-17.89 240.37-17.89L240.37-17.89L240.37-17.89Q243.71-17.89 245.57-16.12L245.57-16.12L245.57-16.12Q247.43-14.35 247.43-11.27L247.43-11.27L247.43-11.27Q247.43-6.03 244.65-2.81L244.65-2.81L244.65-2.81Q241.87 0.41 236.62 0.41L236.62 0.41zM234.60-4.32L234.60-4.32L234.60-4.32Q234.60-0.64 236.74-0.64L236.74-0.64L236.74-0.64Q238.88-0.64 240.56-4.35L240.56-4.35L240.56-4.35Q242.24-8.05 242.24-13.16L242.24-13.16L242.24-13.16Q242.24-17.02 240.14-17.02L240.14-17.02L240.14-17.02Q238.05-17.02 236.32-13.50L236.32-13.50L236.32-13.50Q234.60-9.98 234.60-4.32" fill="#f56662" stroke="none" stroke-width="none" transform="translate(-162.10498046875,13.071125253530658)" style="transform:matrix(1, 0, 0, 1, -162.105, 13.0711);fill:rgb(245, 102, 98);animation-play-state:paused" ></path></g>
<g class="path" style="transform-origin:98px -1.62887px;transform:matrix(0.945819, 0, 0, 0.945819, 0, 0);animation-timing-function:linear;animation-play-state:paused;animation-name:breath-3bc2f155-1cbc-41cb-a2f2-0a5f71b7ef48;animation-iteration-count:infinite;animation-fill-mode:forwards;animation-duration:1s;animation-delay:-0.152308s" ><path d="M265.65 0.41L265.65 0.41L265.65 0.41Q261.60 0.41 261.23-3.04L261.23-3.04L261.23-3.04Q259.21 0.41 256.08 0.41L256.08 0.41L256.08 0.41Q252.95 0.41 251.30-1.36L251.30-1.36L251.30-1.36Q249.64-3.13 249.64-6.21L249.64-6.21L249.64-6.21Q249.64-11.64 252.22-14.77L252.22-14.77L252.22-14.77Q254.79-17.89 258.89-17.89L258.89-17.89L258.89-17.89Q261.23-17.89 262.52-16.47L262.52-16.47L262.52-16.47Q263.07-15.73 263.21-15.36L263.21-15.36L265.70-28.89L265.70-28.89Q264.32-28.75 263.40-27.60L263.40-27.60L262.71-28.15L262.71-28.15Q264.09-29.81 266.18-29.81L266.18-29.81L266.18-29.81Q268.27-29.81 269.42-28.75L269.42-28.75L269.42-28.75Q270.57-27.69 270.57-25.76L270.57-25.76L270.57-25.76Q270.57-25.39 270.48-24.56L270.48-24.56L270.48-24.56Q268.23-11.91 266.11-0.51L266.11-0.51L266.11-0.51Q267.49-0.64 268.41-1.79L268.41-1.79L269.10-1.24L269.10-1.24Q267.72 0.41 265.65 0.41zM254.84-4.32L254.84-4.32Q254.84-2.21 255.28-1.43L255.28-1.43L255.28-1.43Q255.71-0.64 256.66-0.64L256.66-0.64L256.66-0.64Q257.60-0.64 258.47-1.29L258.47-1.29L258.47-1.29Q259.35-1.93 259.95-2.94L259.95-2.94L259.95-2.94Q261.05-4.65 261.51-5.84L261.51-5.84L262.84-13.11L262.84-13.11Q262.75-14.58 261.88-15.80L261.88-15.80L261.88-15.80Q261.00-17.02 258.89-17.02L258.89-17.02L258.89-17.02Q257.42-17.02 256.13-12.70L256.13-12.70L256.13-12.70Q254.84-8.37 254.84-4.32L254.84-4.32" fill="#f56662" stroke="none" stroke-width="none" transform="translate(-162.10498046875,13.071125253530658)" style="transform:matrix(1, 0, 0, 1, -162.105, 13.0711);fill:rgb(245, 102, 98);animation-play-state:paused" ></path></g>
<g class="path" style="transform-origin:118.54px 4.33113px;transform:matrix(0.933879, 0, 0, 0.933879, 0, 0);animation-timing-function:linear;animation-play-state:paused;animation-name:breath-3bc2f155-1cbc-41cb-a2f2-0a5f71b7ef48;animation-iteration-count:infinite;animation-fill-mode:forwards;animation-duration:1s;animation-delay:-0.101538s" ><path d="M278.85 0.41L278.85 0.41Q275.31 0.41 273.47-1.36L273.47-1.36L273.47-1.36Q271.63-3.13 271.63-5.82L271.63-5.82L271.63-5.82Q271.63-8.51 272.11-10.42L272.11-10.42L272.11-10.42Q272.60-12.33 273.70-14.10L273.70-14.10L273.70-14.10Q274.80-15.87 277.03-16.88L277.03-16.88L277.03-16.88Q279.27-17.89 282.60-17.89L282.60-17.89L282.60-17.89Q285.94-17.89 287.80-16.12L287.80-16.12L287.80-16.12Q289.66-14.35 289.66-11.27L289.66-11.27L289.66-11.27Q289.66-6.03 286.88-2.81L286.88-2.81L286.88-2.81Q284.10 0.41 278.85 0.41L278.85 0.41zM276.83-4.32L276.83-4.32L276.83-4.32Q276.83-0.64 278.97-0.64L278.97-0.64L278.97-0.64Q281.11-0.64 282.78-4.35L282.78-4.35L282.78-4.35Q284.46-8.05 284.46-13.16L284.46-13.16L284.46-13.16Q284.46-17.02 282.37-17.02L282.37-17.02L282.37-17.02Q280.28-17.02 278.55-13.50L278.55-13.50L278.55-13.50Q276.83-9.98 276.83-4.32" fill="#f56662" stroke="none" stroke-width="none" transform="translate(-162.10498046875,13.071125253530658)" style="transform:matrix(1, 0, 0, 1, -162.105, 13.0711);fill:rgb(245, 102, 98);animation-play-state:paused" ></path></g>
<g class="path" style="transform-origin:138.46px 4.12613px;transform:matrix(0.92194, 0, 0, 0.92194, 0, 0);animation-timing-function:linear;animation-play-state:paused;animation-name:breath-3bc2f155-1cbc-41cb-a2f2-0a5f71b7ef48;animation-iteration-count:infinite;animation-fill-mode:forwards;animation-duration:1s;animation-delay:-0.0507692s" ><path d="M292.88-15.69L292.19-16.24L292.19-16.24Q293.57-17.89 295.66-17.89L295.66-17.89L295.66-17.89Q297.76-17.89 298.91-16.84L298.91-16.84L298.91-16.84Q300.06-15.78 300.06-13.85L300.06-13.85L300.06-13.57L300.06-13.57Q302.13-17.89 305.44-17.89L305.44-17.89L305.44-17.89Q308.98-17.89 308.98-14.21L308.98-14.21L308.98-14.21Q308.98-12.70 307.97-10.99L307.97-10.99L307.97-10.99Q306.96-9.29 305.95-7.75L305.95-7.75L305.95-7.75Q304.93-6.21 304.93-5.01L304.93-5.01L303.83-5.01L303.83-5.01Q303.83-6.72 305.81-9.61L305.81-9.61L305.81-9.61Q307.79-12.51 307.79-14.10L307.79-14.10L307.79-14.10Q307.79-15.69 307.16-16.26L307.16-16.26L307.16-16.26Q306.54-16.84 305.32-16.84L305.32-16.84L305.32-16.84Q304.11-16.84 302.93-15.78L302.93-15.78L302.93-15.78Q301.76-14.72 300.98-13.11L300.98-13.11L300.98-13.11Q299.74-10.72 299.32-9.20L299.32-9.20L299.32-9.15L297.67 0L292.15 0L295.18-16.97L295.18-16.97Q293.80-16.84 292.88-15.69L292.88-15.69" fill="#f56662" stroke="none" stroke-width="none" transform="translate(-162.10498046875,13.071125253530658)" style="transform:matrix(1, 0, 0, 1, -162.105, 13.0711);fill:rgb(245, 102, 98);animation-play-state:paused" ></path></g>
<g class="path" style="transform-origin:156.86px 4.33113px;transform:matrix(0.91, 0, 0, 0.91, 0, 0);animation-timing-function:linear;animation-play-state:paused;animation-name:breath-3bc2f155-1cbc-41cb-a2f2-0a5f71b7ef48;animation-iteration-count:infinite;animation-fill-mode:forwards;animation-duration:1s" ><path d="M317.17 0.41L317.17 0.41Q313.63 0.41 311.79-1.36L311.79-1.36L311.79-1.36Q309.95-3.13 309.95-5.82L309.95-5.82L309.95-5.82Q309.95-8.51 310.43-10.42L310.43-10.42L310.43-10.42Q310.91-12.33 312.02-14.10L312.02-14.10L312.02-14.10Q313.12-15.87 315.35-16.88L315.35-16.88L315.35-16.88Q317.58-17.89 320.92-17.89L320.92-17.89L320.92-17.89Q324.25-17.89 326.12-16.12L326.12-16.12L326.12-16.12Q327.98-14.35 327.98-11.27L327.98-11.27L327.98-11.27Q327.98-6.03 325.20-2.81L325.20-2.81L325.20-2.81Q322.41 0.41 317.17 0.41L317.17 0.41zM315.15-4.32L315.15-4.32L315.15-4.32Q315.15-0.64 317.28-0.64L317.28-0.64L317.28-0.64Q319.42-0.64 321.10-4.35L321.10-4.35L321.10-4.35Q322.78-8.05 322.78-13.16L322.78-13.16L322.78-13.16Q322.78-17.02 320.69-17.02L320.69-17.02L320.69-17.02Q318.60-17.02 316.87-13.50L316.87-13.50L316.87-13.50Q315.15-9.98 315.15-4.32" fill="#f56662" stroke="none" stroke-width="none" transform="translate(-162.10498046875,13.071125253530658)" style="transform:matrix(1, 0, 0, 1, -162.105, 13.0711);fill:rgb(245, 102, 98);animation-play-state:paused" ></path></g></g></g></g></svg>