<?xml version="1.0" encoding="UTF-8"?>
<svg xmlns="http://www.w3.org/2000/svg" xmlns:xlink="http://www.w3.org/1999/xlink" width="512pt" height="512pt" viewBox="0 0 512 512" version="1.1">
<g id="surface1">
<path style="fill:none;stroke-width:0.4;stroke-linecap:round;stroke-linejoin:round;stroke:rgb(93.333333%,16.078431%,21.960784%);stroke-opacity:1;stroke-miterlimit:4;" d="M 24.974397 12.575994 C 24.31816 12.751943 23.519529 12.59495 23.519529 12.59495 C 23.519529 12.59495 22.722696 12.751409 22.066818 12.576261 C 19.747156 12.682525 15.505169 13.521423 15.969029 18.30784 C 16.603691 24.85589 23.519529 24.455131 23.519529 24.455131 C 23.519529 24.455131 30.435366 24.85589 31.070028 18.30784 C 31.533889 13.522491 27.29406 12.682525 24.974397 12.575994 Z M 24.974397 12.575994 " transform="matrix(10.863313,0,0,14.630429,0,0.000000000000029339)"/>
<path style="fill:none;stroke-width:0.4;stroke-linecap:round;stroke-linejoin:round;stroke:rgb(93.333333%,16.078431%,21.960784%);stroke-opacity:1;stroke-miterlimit:4;" d="M 19.58031 16.504023 C 19.58031 16.504023 19.58031 12.661966 23.519889 12.661966 C 27.459108 12.661966 27.459108 16.504023 27.459108 16.504023 " transform="matrix(10.863313,0,0,14.630429,0,0.000000000000029339)"/>
<path style="fill:none;stroke-width:0.4;stroke-linecap:round;stroke-linejoin:round;stroke:rgb(34.117647%,69.411765%,30.980392%);stroke-opacity:1;stroke-miterlimit:4;" d="M 23.519529 9.291155 C 23.519529 9.291155 22.749664 10.164763 22.749664 10.94332 C 22.749664 11.096041 22.784544 11.251699 22.832368 11.40442 C 23.276452 11.886346 23.519889 12.595217 23.519889 12.59495 C 23.519889 12.59495 23.763325 11.886346 24.207409 11.40442 C 24.255233 11.251699 24.290113 11.096041 24.290113 10.94332 C 24.290113 10.164763 23.519529 9.291155 23.519529 9.291155 Z M 23.519529 9.291155 " transform="matrix(10.863313,0,0,14.630429,0,0.000000000000029339)"/>
<path style="fill:none;stroke-width:0.4;stroke-linecap:round;stroke-linejoin:round;stroke:rgb(34.117647%,69.411765%,30.980392%);stroke-opacity:1;stroke-miterlimit:4;" d="M 26.380722 10.94332 C 26.380722 10.94332 26.009633 12.04681 25.335417 12.436355 C 24.661201 12.825634 23.519889 12.59495 23.519889 12.59495 C 23.519889 12.59495 23.890617 11.49146 24.565193 11.102182 C 25.239409 10.712636 26.380722 10.94332 26.380722 10.94332 Z M 26.380722 10.94332 " transform="matrix(10.863313,0,0,14.630429,0,0.000000000000029339)"/>
<path style="fill:none;stroke-width:0.4;stroke-linecap:round;stroke-linejoin:round;stroke:rgb(34.117647%,69.411765%,30.980392%);stroke-opacity:1;stroke-miterlimit:4;" d="M 20.658696 10.94332 C 20.658696 10.94332 21.800009 10.712636 22.474225 11.102182 C 23.1488 11.49146 23.519889 12.59495 23.519889 12.59495 C 23.519889 12.59495 22.378216 12.825634 21.704 12.436355 C 21.029784 12.04681 20.658696 10.94332 20.658696 10.94332 Z M 20.658696 10.94332 " transform="matrix(10.863313,0,0,14.630429,0,0.000000000000029339)"/>
<path style=" stroke:none;fill-rule:nonzero;fill:rgb(93.72549%,23.921569%,29.411765%);fill-opacity:1;" d="M 103.300781 255.695312 C 62.371094 336.742188 62.371094 336.742188 62.371094 336.742188 C 62.371094 336.742188 61.398438 338.5 59.277344 336.339844 C 57.15625 334.179688 58.113281 332.402344 58.113281 332.402344 C 58.113281 332.402344 58.113281 332.402344 103.300781 255.695312 Z M 87.746094 234.75 C 28.046875 290.808594 28.046875 290.808594 28.046875 290.808594 C 28.046875 290.808594 26.671875 291.984375 25.261719 288.945312 C 23.851562 285.910156 25.214844 284.710938 25.214844 284.710938 C 25.214844 284.710938 25.214844 284.710938 87.746094 234.75 Z M 80.148438 207.457031 C 10.191406 234.488281 10.191406 234.488281 10.191406 234.488281 C 10.191406 234.488281 8.609375 235 8.007812 231.511719 C 7.402344 228.023438 8.980469 227.484375 8.980469 227.484375 C 8.980469 227.484375 8.980469 227.484375 80.148438 207.457031 Z M 79.695312 178.839844 C 7.027344 173.351562 7.027344 173.351562 7.027344 173.351562 C 7.027344 173.351562 5.410156 173.136719 5.691406 169.574219 C 5.976562 166.011719 7.597656 166.203125 7.597656 166.203125 C 7.597656 166.203125 7.597656 166.203125 79.695312 178.839844 Z M 85 154.964844 C 19.21875 113.027344 19.21875 113.027344 19.21875 113.027344 C 19.21875 113.027344 17.777344 112.003906 19.035156 108.851562 C 20.292969 105.695312 21.742188 106.691406 21.742188 106.691406 C 21.742188 106.691406 21.742188 106.691406 85 154.964844 Z M 95.992188 130.152344 C 44.667969 60.664062 44.667969 60.664062 44.667969 60.664062 C 44.667969 60.664062 43.570312 59.042969 45.546875 56.648438 C 47.523438 54.253906 48.636719 55.855469 48.636719 55.855469 C 48.636719 55.855469 48.636719 55.855469 95.992188 130.152344 Z M 113.648438 113.261719 C 80.714844 25.859375 80.714844 25.859375 80.714844 25.859375 C 80.714844 25.859375 80.039062 23.863281 82.46875 22.40625 C 84.898438 20.949219 85.589844 22.933594 85.589844 22.933594 C 85.589844 22.933594 85.589844 22.933594 113.648438 113.261719 Z M 173.765625 120.15625 C 212.335938 37.039062 212.335938 37.039062 212.335938 37.039062 C 212.335938 37.039062 213.257812 35.230469 215.441406 37.277344 C 217.621094 39.328125 216.714844 41.152344 216.714844 41.152344 C 216.714844 41.152344 216.714844 41.152344 173.765625 120.15625 Z M 155.347656 109.476562 C 171.109375 13.789062 171.109375 13.789062 171.109375 13.789062 C 171.109375 13.789062 171.53125 11.667969 174.09375 12.621094 C 176.660156 13.570312 176.257812 15.695312 176.257812 15.695312 C 176.257812 15.695312 176.257812 15.695312 155.347656 109.476562 Z M 134.285156 106.347656 C 126.046875 8.960938 126.046875 8.960938 126.046875 8.960938 C 126.046875 8.960938 125.929688 6.773438 128.585938 6.546875 C 131.238281 6.324219 131.375 8.507812 131.375 8.507812 C 131.375 8.507812 131.375 8.507812 134.285156 106.347656 Z M 134.285156 106.347656 "/>
<path style=" stroke:none;fill-rule:nonzero;fill:rgb(93.72549%,23.921569%,29.411765%);fill-opacity:1;" d="M 377.179688 242.855469 C 388.367188 146.003906 388.367188 146.003906 388.367188 146.003906 C 388.367188 146.003906 388.6875 143.855469 391.292969 144.582031 C 393.894531 145.3125 393.597656 147.464844 393.597656 147.464844 C 393.597656 147.464844 393.597656 147.464844 377.179688 242.855469 Z M 397.902344 252.800781 C 434 167.691406 434 167.691406 434 167.691406 C 434 167.691406 434.867188 165.835938 437.105469 167.765625 C 439.347656 169.695312 438.492188 171.566406 438.492188 171.566406 C 438.492188 171.566406 438.492188 171.566406 397.898438 252.800781 Z M 413.449219 273.074219 C 468.054688 208.273438 468.054688 208.273438 468.054688 208.273438 C 468.054688 208.273438 469.320312 206.894531 470.976562 209.699219 C 472.628906 212.5 471.378906 213.898438 471.378906 213.898438 C 471.378906 213.898438 471.378906 213.898438 413.449219 273.074219 Z M 422.96875 298.664062 C 490.367188 261.683594 490.367188 261.683594 490.367188 261.683594 C 490.367188 261.683594 491.898438 260.941406 492.777344 264.324219 C 493.65625 267.703125 492.128906 268.46875 492.128906 268.46875 C 492.128906 268.46875 492.128906 268.46875 422.96875 298.664062 Z M 425.773438 323.300781 C 498.550781 323.226562 498.550781 323.226562 498.550781 323.226562 C 498.550781 323.226562 500.175781 323.316406 500.046875 326.898438 C 499.914062 330.472656 498.285156 330.410156 498.285156 330.410156 C 498.285156 330.410156 498.285156 330.410156 425.773438 323.304688 Z M 423.734375 352.066406 C 492.222656 385.222656 492.222656 385.222656 492.222656 385.222656 C 492.222656 385.222656 493.730469 386.050781 492.707031 389.355469 C 491.683594 392.660156 490.167969 391.855469 490.167969 391.855469 C 490.167969 391.855469 490.167969 391.855469 423.738281 352.0625 Z M 413.15625 377.515625 C 470.730469 437.472656 470.730469 437.472656 470.730469 437.472656 C 470.730469 437.472656 471.976562 438.886719 470.246094 441.605469 C 468.511719 444.324219 467.257812 442.933594 467.257812 442.933594 C 467.257812 442.933594 467.257812 442.933594 413.160156 377.515625 Z M 356.652344 405.988281 C 348.253906 503.351562 348.253906 503.351562 348.253906 503.351562 C 348.253906 503.351562 347.996094 505.515625 345.371094 504.921875 C 342.75 504.332031 342.988281 502.160156 342.988281 502.160156 C 342.988281 502.160156 342.988281 502.160156 356.652344 405.988281 Z M 376.6875 405.007812 C 392.898438 500.558594 392.898438 500.558594 392.898438 500.558594 C 392.898438 500.558594 393.195312 502.714844 390.574219 503.335938 C 387.953125 503.953125 387.640625 501.804688 387.640625 501.804688 C 387.640625 501.804688 387.640625 501.804688 376.6875 405.003906 Z M 396.714844 395.679688 C 435.152344 478.910156 435.152344 478.910156 435.152344 478.910156 C 435.152344 478.910156 435.949219 480.816406 433.625 482.554688 C 431.296875 484.289062 430.480469 482.394531 430.480469 482.394531 C 430.480469 482.394531 430.480469 482.394531 396.714844 395.679688 Z M 396.714844 395.679688 "/>
</g>
</svg>
