<?xml version="1.0" encoding="UTF-8"?>
<svg xmlns="http://www.w3.org/2000/svg" xmlns:xlink="http://www.w3.org/1999/xlink" width="1024pt" height="1024pt" viewBox="0 0 1024 1024" version="1.1">
<g id="surface1">
<path style="fill:none;stroke-width:0.4;stroke-linecap:round;stroke-linejoin:round;stroke:rgb(93.333333%,16.078431%,21.960784%);stroke-opacity:1;stroke-miterlimit:4;" d="M 24.974217 12.57586 C 24.31798 12.751943 23.519529 12.59495 23.519529 12.59495 C 23.519529 12.59495 22.722875 12.751409 22.066998 12.576394 C 19.747336 12.682658 15.505169 13.521423 15.969029 18.30784 C 16.603871 24.85589 23.519529 24.455264 23.519529 24.455264 C 23.519529 24.455264 30.435187 24.85589 31.070028 18.30784 C 31.533889 13.522491 27.294239 12.682525 24.974217 12.57586 Z M 24.974217 12.57586 " transform="matrix(21.726626,0,0,29.260859,0,0.000000000000058677)"/>
<path style="fill:none;stroke-width:0.4;stroke-linecap:round;stroke-linejoin:round;stroke:rgb(93.333333%,16.078431%,21.960784%);stroke-opacity:1;stroke-miterlimit:4;" d="M 19.58031 16.503889 C 19.58031 16.503889 19.58031 12.661833 23.519709 12.661833 C 27.459287 12.661833 27.459287 16.503889 27.459287 16.503889 " transform="matrix(21.726626,0,0,29.260859,0,0.000000000000058677)"/>
<path style="fill:none;stroke-width:0.4;stroke-linecap:round;stroke-linejoin:round;stroke:rgb(34.117647%,69.411765%,30.980392%);stroke-opacity:1;stroke-miterlimit:4;" d="M 23.519529 9.291289 C 23.519529 9.291289 22.749484 10.164629 22.749484 10.94332 C 22.749484 11.096174 22.784723 11.251566 22.832368 11.40442 C 23.276272 11.886346 23.519709 12.595084 23.519709 12.595084 C 23.519709 12.595084 23.763325 11.886346 24.207409 11.40442 C 24.255054 11.251566 24.290113 11.096174 24.290113 10.94332 C 24.290113 10.164629 23.519529 9.291289 23.519529 9.291289 Z M 23.519529 9.291289 " transform="matrix(21.726626,0,0,29.260859,0,0.000000000000058677)"/>
<path style="fill:none;stroke-width:0.4;stroke-linecap:round;stroke-linejoin:round;stroke:rgb(34.117647%,69.411765%,30.980392%);stroke-opacity:1;stroke-miterlimit:4;" d="M 26.380901 10.943186 C 26.380901 10.943186 26.009813 12.046943 25.335417 12.436222 C 24.661022 12.825634 23.519709 12.595084 23.519709 12.595084 C 23.519709 12.595084 23.890797 11.491327 24.565013 11.102048 C 25.239409 10.712636 26.380901 10.943186 26.380901 10.943186 Z M 26.380901 10.943186 " transform="matrix(21.726626,0,0,29.260859,0,0.000000000000058677)"/>
<path style="fill:none;stroke-width:0.4;stroke-linecap:round;stroke-linejoin:round;stroke:rgb(34.117647%,69.411765%,30.980392%);stroke-opacity:1;stroke-miterlimit:4;" d="M 20.658516 10.943186 C 20.658516 10.943186 21.800009 10.712636 22.474404 11.102048 C 23.1488 11.491327 23.519709 12.595084 23.519709 12.595084 C 23.519709 12.595084 22.378396 12.825634 21.704 12.436222 C 21.029605 12.046943 20.658516 10.943186 20.658516 10.943186 Z M 20.658516 10.943186 " transform="matrix(21.726626,0,0,29.260859,0,0.000000000000058677)"/>
<path style=" stroke:none;fill-rule:nonzero;fill:rgb(93.72549%,23.921569%,29.411765%);fill-opacity:1;" d="M 206.605469 511.394531 C 124.742188 673.484375 124.742188 673.484375 124.742188 673.484375 C 124.742188 673.484375 122.796875 677 118.554688 672.679688 C 114.3125 668.355469 116.226562 664.804688 116.226562 664.804688 C 116.226562 664.804688 116.226562 664.804688 206.605469 511.394531 Z M 175.488281 469.496094 C 56.089844 581.617188 56.089844 581.617188 56.089844 581.617188 C 56.089844 581.617188 53.34375 583.972656 50.523438 577.894531 C 47.707031 571.820312 50.433594 569.421875 50.433594 569.421875 C 50.433594 569.421875 50.433594 569.421875 175.488281 469.496094 Z M 160.296875 414.914062 C 20.386719 468.976562 20.386719 468.976562 20.386719 468.976562 C 20.386719 468.976562 17.222656 470.003906 16.011719 463.027344 C 14.804688 456.050781 17.960938 454.972656 17.960938 454.972656 C 17.960938 454.972656 17.960938 454.972656 160.296875 414.914062 Z M 159.386719 357.683594 C 14.058594 346.703125 14.058594 346.703125 14.058594 346.703125 C 14.058594 346.703125 10.820312 346.269531 11.382812 339.148438 C 11.949219 332.027344 15.195312 332.40625 15.195312 332.40625 C 15.195312 332.40625 15.195312 332.40625 159.386719 357.683594 Z M 169.996094 309.929688 C 38.4375 226.054688 38.4375 226.054688 38.4375 226.054688 C 38.4375 226.054688 35.554688 224.011719 38.074219 217.699219 C 40.585938 211.386719 43.488281 213.382812 43.488281 213.382812 C 43.488281 213.382812 43.488281 213.382812 169.996094 309.929688 Z M 191.984375 260.304688 C 89.335938 121.324219 89.335938 121.324219 89.335938 121.324219 C 89.335938 121.324219 87.140625 118.085938 91.09375 113.296875 C 95.050781 108.507812 97.273438 111.710938 97.273438 111.710938 C 97.273438 111.710938 97.273438 111.710938 191.984375 260.308594 Z M 227.296875 226.527344 C 161.425781 51.71875 161.425781 51.71875 161.425781 51.71875 C 161.425781 51.71875 160.078125 47.726562 164.9375 44.808594 C 169.796875 41.898438 171.179688 45.863281 171.179688 45.863281 C 171.179688 45.863281 171.179688 45.863281 227.296875 226.527344 Z M 347.527344 240.308594 C 424.675781 74.074219 424.675781 74.074219 424.675781 74.074219 C 424.675781 74.074219 426.515625 70.460938 430.878906 74.558594 C 435.242188 78.65625 433.429688 82.300781 433.429688 82.300781 C 433.429688 82.300781 433.429688 82.300781 347.527344 240.308594 Z M 310.695312 218.957031 C 342.222656 27.578125 342.222656 27.578125 342.222656 27.578125 C 342.222656 27.578125 343.058594 23.339844 348.191406 25.242188 C 353.316406 27.144531 352.515625 31.394531 352.515625 31.394531 C 352.515625 31.394531 352.515625 31.394531 310.695312 218.957031 Z M 268.574219 212.695312 C 252.089844 17.921875 252.089844 17.921875 252.089844 17.921875 C 252.089844 17.921875 251.863281 13.546875 257.171875 13.097656 C 262.480469 12.644531 262.746094 17.015625 262.746094 17.015625 C 262.746094 17.015625 262.746094 17.015625 268.574219 212.695312 Z M 268.574219 212.695312 "/>
<path style=" stroke:none;fill-rule:nonzero;fill:rgb(93.72549%,23.921569%,29.411765%);fill-opacity:1;" d="M 754.359375 485.710938 C 776.738281 292.007812 776.738281 292.007812 776.738281 292.007812 C 776.738281 292.007812 777.375 287.707031 782.582031 289.164062 C 787.792969 290.625 787.195312 294.933594 787.195312 294.933594 C 787.195312 294.933594 787.195312 294.933594 754.359375 485.710938 Z M 795.804688 505.601562 C 867.996094 335.382812 867.996094 335.382812 867.996094 335.382812 C 867.996094 335.382812 869.734375 331.671875 874.210938 335.527344 C 878.691406 339.390625 876.988281 343.132812 876.988281 343.132812 C 876.988281 343.132812 876.988281 343.132812 795.800781 505.601562 Z M 826.898438 546.148438 C 936.105469 416.546875 936.105469 416.546875 936.105469 416.546875 C 936.105469 416.546875 938.640625 413.792969 941.949219 419.394531 C 945.261719 425.003906 942.753906 427.800781 942.753906 427.800781 C 942.753906 427.800781 942.753906 427.800781 826.898438 546.148438 Z M 845.933594 597.332031 C 980.734375 523.363281 980.734375 523.363281 980.734375 523.363281 C 980.734375 523.363281 983.796875 521.882812 985.554688 528.644531 C 987.308594 535.410156 984.257812 536.9375 984.257812 536.9375 C 984.257812 536.9375 984.257812 536.9375 845.933594 597.332031 Z M 851.542969 646.601562 C 997.101562 646.453125 997.101562 646.453125 997.101562 646.453125 C 997.101562 646.453125 1000.355469 646.628906 1000.089844 653.792969 C 999.824219 660.949219 996.574219 660.816406 996.574219 660.816406 C 996.574219 660.816406 996.574219 660.816406 851.546875 646.613281 Z M 847.472656 704.128906 C 984.445312 770.445312 984.445312 770.445312 984.445312 770.445312 C 984.445312 770.445312 987.457031 772.101562 985.417969 778.710938 C 983.367188 785.324219 980.335938 783.714844 980.335938 783.714844 C 980.335938 783.714844 980.335938 783.714844 847.476562 704.128906 Z M 826.316406 755.03125 C 941.460938 874.945312 941.460938 874.945312 941.460938 874.945312 C 941.460938 874.945312 943.949219 877.773438 940.488281 883.214844 C 937.027344 888.652344 934.515625 885.863281 934.515625 885.863281 C 934.515625 885.863281 934.515625 885.863281 826.316406 755.03125 Z M 713.300781 811.976562 C 696.503906 1006.699219 696.503906 1006.699219 696.503906 1006.699219 C 696.503906 1006.699219 695.988281 1011.027344 690.742188 1009.847656 C 685.496094 1008.664062 685.972656 1004.324219 685.972656 1004.324219 C 685.972656 1004.324219 685.972656 1004.324219 713.300781 811.976562 Z M 753.378906 810.011719 C 785.796875 1001.117188 785.796875 1001.117188 785.796875 1001.117188 C 785.796875 1001.117188 786.386719 1005.429688 781.148438 1006.671875 C 775.910156 1007.90625 775.285156 1003.609375 775.285156 1003.609375 C 775.285156 1003.609375 775.285156 1003.609375 753.378906 810.011719 Z M 793.425781 791.355469 C 870.300781 957.816406 870.300781 957.816406 870.300781 957.816406 C 870.300781 957.816406 871.902344 961.636719 867.25 965.109375 C 862.597656 968.578125 860.960938 964.789062 860.960938 964.789062 C 860.960938 964.789062 860.960938 964.789062 793.425781 791.359375 Z M 793.425781 791.355469 "/>
</g>
</svg>
