<?xml version="1.0" encoding="UTF-8"?>
<svg xmlns="http://www.w3.org/2000/svg" xmlns:xlink="http://www.w3.org/1999/xlink" width="2735pt" height="2735pt" viewBox="0 0 2735 2735" version="1.1">
<g id="surface1">
<path style=" stroke:none;fill-rule:nonzero;fill:rgb(100%,43.921569%,55.686275%);fill-opacity:1;" d="M 1336.097656 1372.253906 L 1336.097656 1372.035156 C 1336.488281 1372.035156 1336.746094 1371.925781 1336.878906 1371.707031 C 1337.007812 1371.488281 1337.136719 1371.011719 1337.269531 1370.285156 L 1338.246094 1364.265625 C 1336.878906 1364.339844 1335.835938 1364.632812 1335.121094 1365.140625 C 1334.402344 1365.726562 1334.046875 1366.417969 1334.046875 1367.21875 C 1334.046875 1367.585938 1334.175781 1367.914062 1334.4375 1368.203125 C 1334.566406 1368.351562 1334.761719 1368.460938 1335.023438 1368.53125 C 1335.28125 1368.679688 1335.511719 1368.75 1335.707031 1368.75 C 1335.902344 1368.75 1336 1368.75 1336 1368.75 L 1336 1368.96875 C 1335.21875 1368.96875 1334.632812 1368.75 1334.242188 1368.3125 C 1333.980469 1368.023438 1333.851562 1367.65625 1333.851562 1367.21875 C 1333.851562 1366.199219 1334.339844 1365.398438 1335.316406 1364.8125 C 1336.292969 1364.230469 1337.660156 1363.9375 1339.417969 1363.9375 C 1340.523438 1363.9375 1341.339844 1364.121094 1341.859375 1364.484375 C 1342.316406 1364.777344 1342.542969 1365.214844 1342.542969 1365.796875 C 1342.542969 1366.382812 1342.347656 1366.890625 1341.957031 1367.328125 C 1341.632812 1367.765625 1341.175781 1368.09375 1340.589844 1368.3125 C 1341.4375 1370.285156 1341.988281 1371.449219 1342.25 1371.816406 C 1342.445312 1372.253906 1342.707031 1372.472656 1343.03125 1372.472656 C 1343.292969 1372.472656 1343.488281 1372.398438 1343.617188 1372.253906 C 1343.746094 1372.105469 1343.84375 1371.886719 1343.910156 1371.597656 L 1344.203125 1371.597656 C 1344.007812 1372.398438 1343.488281 1372.800781 1342.640625 1372.800781 C 1342.121094 1372.800781 1341.695312 1372.652344 1341.371094 1372.363281 C 1341.046875 1372.070312 1340.785156 1371.667969 1340.589844 1371.160156 L 1339.515625 1368.53125 C 1339.253906 1368.605469 1339.058594 1368.640625 1338.929688 1368.640625 C 1338.929688 1368.714844 1338.898438 1368.898438 1338.832031 1369.1875 C 1338.765625 1369.40625 1338.734375 1369.589844 1338.734375 1369.734375 C 1338.601562 1370.539062 1338.277344 1371.160156 1337.757812 1371.597656 C 1337.234375 1372.035156 1336.683594 1372.253906 1336.097656 1372.253906 Z M 1342.25 1365.90625 C 1342.25 1364.742188 1341.339844 1364.15625 1339.515625 1364.15625 L 1338.929688 1368.3125 C 1339.839844 1368.3125 1340.621094 1368.058594 1341.273438 1367.546875 C 1341.925781 1367.109375 1342.25 1366.5625 1342.25 1365.90625 "/>
<path style=" stroke:none;fill-rule:nonzero;fill:rgb(100%,43.921569%,55.686275%);fill-opacity:1;" d="M 1344.496094 1370.722656 C 1343.976562 1370.722656 1343.585938 1370.574219 1343.324219 1370.285156 C 1343.0625 1369.992188 1342.933594 1369.625 1342.933594 1369.1875 C 1342.933594 1368.824219 1342.964844 1368.460938 1343.03125 1368.09375 C 1343.097656 1367.804688 1343.226562 1367.511719 1343.421875 1367.21875 C 1343.550781 1366.929688 1343.78125 1366.710938 1344.105469 1366.5625 C 1344.429688 1366.417969 1344.824219 1366.34375 1345.277344 1366.34375 C 1345.734375 1366.34375 1346.09375 1366.492188 1346.351562 1366.78125 C 1346.613281 1367.074219 1346.742188 1367.476562 1346.742188 1367.984375 C 1346.742188 1368.789062 1346.546875 1369.445312 1346.15625 1369.957031 C 1345.765625 1370.464844 1345.214844 1370.722656 1344.496094 1370.722656 Z M 1344.007812 1369.625 C 1344.007812 1370.210938 1344.171875 1370.503906 1344.496094 1370.503906 C 1344.824219 1370.503906 1345.082031 1370.210938 1345.277344 1369.625 C 1345.539062 1368.96875 1345.667969 1368.242188 1345.667969 1367.4375 C 1345.667969 1366.855469 1345.507812 1366.5625 1345.179688 1366.5625 C 1344.921875 1366.5625 1344.660156 1366.855469 1344.398438 1367.4375 C 1344.136719 1367.949219 1344.007812 1368.679688 1344.007812 1369.625 "/>
<path style=" stroke:none;fill-rule:nonzero;fill:rgb(100%,43.921569%,55.686275%);fill-opacity:1;" d="M 1348.207031 1370.394531 C 1348.792969 1370.394531 1349.085938 1369.882812 1349.085938 1368.859375 C 1349.085938 1368.570312 1349.054688 1368.242188 1348.988281 1367.875 C 1348.925781 1367.511719 1348.890625 1367.292969 1348.890625 1367.21875 C 1348.5 1367.65625 1348.046875 1367.949219 1347.523438 1368.09375 L 1347.523438 1367.765625 C 1348.046875 1367.695312 1348.5 1367.402344 1348.890625 1366.890625 C 1348.890625 1366.671875 1348.925781 1366.492188 1348.988281 1366.34375 C 1348.988281 1366.199219 1349.023438 1366.089844 1349.085938 1366.015625 L 1349.183594 1365.90625 L 1349.378906 1365.90625 C 1349.378906 1366.199219 1349.445312 1366.492188 1349.574219 1366.78125 C 1349.640625 1367 1349.738281 1367.183594 1349.867188 1367.328125 C 1349.933594 1367.546875 1350.03125 1367.765625 1350.164062 1367.984375 C 1350.226562 1368.277344 1350.261719 1368.570312 1350.261719 1368.859375 C 1350.261719 1369.371094 1350.097656 1369.808594 1349.769531 1370.175781 C 1349.378906 1370.539062 1348.957031 1370.722656 1348.5 1370.722656 C 1347.980469 1370.722656 1347.621094 1370.574219 1347.425781 1370.285156 C 1347.167969 1370.066406 1347.035156 1369.808594 1347.035156 1369.515625 C 1347.035156 1369.152344 1347.101562 1368.898438 1347.230469 1368.75 C 1347.363281 1368.605469 1347.523438 1368.53125 1347.71875 1368.53125 C 1347.914062 1368.53125 1348.078125 1368.605469 1348.207031 1368.75 C 1348.339844 1368.898438 1348.402344 1369.078125 1348.402344 1369.296875 C 1348.402344 1369.515625 1348.339844 1369.699219 1348.207031 1369.847656 C 1348.078125 1370.066406 1347.914062 1370.175781 1347.71875 1370.175781 C 1347.65625 1370.175781 1347.589844 1370.136719 1347.523438 1370.066406 C 1347.65625 1370.285156 1347.882812 1370.394531 1348.207031 1370.394531 "/>
<path style=" stroke:none;fill-rule:nonzero;fill:rgb(100%,43.921569%,55.686275%);fill-opacity:1;" d="M 1351.726562 1370.394531 C 1352.375 1370.394531 1352.703125 1369.882812 1352.703125 1368.859375 C 1352.703125 1368.570312 1352.667969 1368.242188 1352.605469 1367.875 C 1352.539062 1367.511719 1352.507812 1367.292969 1352.507812 1367.21875 C 1352.117188 1367.65625 1351.660156 1367.949219 1351.140625 1368.09375 L 1351.140625 1367.765625 C 1351.59375 1367.695312 1352.050781 1367.402344 1352.507812 1366.890625 C 1352.507812 1366.671875 1352.507812 1366.492188 1352.507812 1366.34375 C 1352.570312 1366.199219 1352.636719 1366.089844 1352.703125 1366.015625 L 1352.800781 1365.90625 L 1352.996094 1365.90625 C 1352.996094 1366.199219 1353.027344 1366.492188 1353.09375 1366.78125 C 1353.222656 1367 1353.320312 1367.183594 1353.386719 1367.328125 C 1353.515625 1367.546875 1353.644531 1367.765625 1353.777344 1367.984375 C 1353.839844 1368.277344 1353.875 1368.570312 1353.875 1368.859375 C 1353.875 1369.371094 1353.710938 1369.808594 1353.386719 1370.175781 C 1352.996094 1370.539062 1352.570312 1370.722656 1352.117188 1370.722656 C 1351.59375 1370.722656 1351.203125 1370.574219 1350.945312 1370.285156 C 1350.75 1370.066406 1350.652344 1369.808594 1350.652344 1369.515625 C 1350.652344 1369.152344 1350.714844 1368.898438 1350.847656 1368.75 C 1350.976562 1368.605469 1351.140625 1368.53125 1351.335938 1368.53125 C 1351.53125 1368.53125 1351.691406 1368.605469 1351.824219 1368.75 C 1351.953125 1368.898438 1352.019531 1369.078125 1352.019531 1369.296875 C 1352.019531 1369.515625 1351.953125 1369.699219 1351.824219 1369.847656 C 1351.691406 1370.066406 1351.53125 1370.175781 1351.335938 1370.175781 C 1351.269531 1370.175781 1351.171875 1370.136719 1351.042969 1370.066406 C 1351.238281 1370.285156 1351.464844 1370.394531 1351.726562 1370.394531 "/>
<path style=" stroke:none;fill-rule:nonzero;fill:rgb(100%,43.921569%,55.686275%);fill-opacity:1;" d="M 1355.925781 1370.722656 C 1355.46875 1370.722656 1355.109375 1370.574219 1354.851562 1370.285156 C 1354.589844 1369.992188 1354.460938 1369.625 1354.460938 1369.1875 C 1354.460938 1368.824219 1354.492188 1368.460938 1354.558594 1368.09375 C 1354.621094 1367.804688 1354.71875 1367.511719 1354.851562 1367.21875 C 1355.046875 1366.929688 1355.273438 1366.710938 1355.535156 1366.5625 C 1355.859375 1366.417969 1356.285156 1366.34375 1356.804688 1366.34375 C 1357.261719 1366.34375 1357.617188 1366.492188 1357.878906 1366.78125 C 1358.140625 1367.074219 1358.269531 1367.476562 1358.269531 1367.984375 C 1358.269531 1368.789062 1358.074219 1369.445312 1357.683594 1369.957031 C 1357.292969 1370.464844 1356.707031 1370.722656 1355.925781 1370.722656 Z M 1355.535156 1369.625 C 1355.535156 1370.210938 1355.695312 1370.503906 1356.023438 1370.503906 C 1356.285156 1370.503906 1356.542969 1370.210938 1356.804688 1369.625 C 1357.066406 1368.96875 1357.195312 1368.242188 1357.195312 1367.4375 C 1357.195312 1366.855469 1357.03125 1366.5625 1356.707031 1366.5625 C 1356.445312 1366.5625 1356.1875 1366.855469 1355.925781 1367.4375 C 1355.664062 1367.949219 1355.535156 1368.679688 1355.535156 1369.625 "/>
<path style=" stroke:none;fill-rule:nonzero;fill:rgb(100%,43.921569%,55.686275%);fill-opacity:1;" d="M 1364.8125 1371.925781 C 1364.421875 1372.144531 1364 1372.253906 1363.542969 1372.253906 C 1363.023438 1372.253906 1362.632812 1372.179688 1362.371094 1372.035156 C 1362.113281 1371.886719 1361.980469 1371.667969 1361.980469 1371.378906 C 1361.980469 1371.160156 1362.078125 1370.941406 1362.273438 1370.722656 C 1362.46875 1370.574219 1362.761719 1370.503906 1363.152344 1370.503906 C 1363.675781 1370.503906 1364.128906 1370.722656 1364.519531 1371.160156 C 1364.585938 1370.867188 1364.652344 1370.574219 1364.714844 1370.285156 L 1364.714844 1369.847656 L 1364.324219 1369.847656 L 1364.324219 1369.625 L 1364.8125 1369.625 L 1365.496094 1364.8125 C 1365.5625 1364.59375 1365.628906 1364.414062 1365.691406 1364.265625 C 1364.324219 1364.339844 1363.285156 1364.632812 1362.566406 1365.140625 C 1361.851562 1365.652344 1361.492188 1366.34375 1361.492188 1367.21875 C 1361.492188 1367.585938 1361.589844 1367.914062 1361.785156 1368.203125 C 1361.980469 1368.351562 1362.210938 1368.460938 1362.46875 1368.53125 C 1362.730469 1368.679688 1362.957031 1368.75 1363.152344 1368.75 C 1363.285156 1368.75 1363.347656 1368.75 1363.347656 1368.75 L 1363.347656 1368.96875 C 1362.632812 1368.96875 1362.078125 1368.75 1361.6875 1368.3125 C 1361.425781 1368.023438 1361.296875 1367.65625 1361.296875 1367.21875 C 1361.296875 1366.273438 1361.6875 1365.542969 1362.46875 1365.03125 C 1363.25 1364.449219 1364.359375 1364.121094 1365.789062 1364.046875 C 1366.050781 1363.246094 1366.605469 1362.84375 1367.453125 1362.84375 L 1367.453125 1363.171875 C 1367.320312 1363.171875 1367.222656 1363.246094 1367.15625 1363.390625 C 1367.09375 1363.464844 1367.027344 1363.644531 1366.960938 1363.9375 C 1367.484375 1363.9375 1367.941406 1364.011719 1368.332031 1364.15625 C 1368.722656 1364.304688 1369.015625 1364.484375 1369.210938 1364.703125 C 1369.601562 1365.140625 1369.796875 1365.6875 1369.796875 1366.34375 C 1369.796875 1366.78125 1369.730469 1367.183594 1369.601562 1367.546875 C 1369.40625 1367.914062 1369.210938 1368.203125 1369.015625 1368.421875 C 1368.753906 1368.714844 1368.460938 1368.933594 1368.136719 1369.078125 C 1367.550781 1369.371094 1366.863281 1369.589844 1366.082031 1369.734375 C 1365.953125 1370.613281 1365.59375 1371.269531 1365.007812 1371.707031 C 1365.269531 1371.996094 1365.5625 1372.214844 1365.886719 1372.363281 C 1366.214844 1372.507812 1366.636719 1372.582031 1367.15625 1372.582031 L 1367.15625 1372.800781 C 1366.636719 1372.800781 1366.179688 1372.726562 1365.789062 1372.582031 C 1365.464844 1372.433594 1365.140625 1372.214844 1364.8125 1371.925781 Z M 1369.601562 1366.34375 C 1369.601562 1365.6875 1369.371094 1365.140625 1368.917969 1364.703125 C 1368.460938 1364.339844 1367.808594 1364.15625 1366.960938 1364.15625 C 1366.703125 1366.125 1366.441406 1367.914062 1366.179688 1369.515625 C 1368.460938 1369.152344 1369.601562 1368.09375 1369.601562 1366.34375 Z M 1364.421875 1371.378906 C 1364.226562 1371.160156 1364.03125 1371.011719 1363.835938 1370.941406 C 1363.640625 1370.792969 1363.414062 1370.722656 1363.152344 1370.722656 C 1362.894531 1370.722656 1362.664062 1370.792969 1362.46875 1370.941406 C 1362.339844 1371.011719 1362.273438 1371.160156 1362.273438 1371.378906 C 1362.273438 1371.597656 1362.371094 1371.777344 1362.566406 1371.925781 C 1362.761719 1371.996094 1363.023438 1372.035156 1363.347656 1372.035156 C 1363.609375 1372.035156 1363.835938 1371.996094 1364.03125 1371.925781 C 1364.226562 1371.851562 1364.359375 1371.667969 1364.421875 1371.378906 "/>
<path style=" stroke:none;fill-rule:nonzero;fill:rgb(100%,43.921569%,55.686275%);fill-opacity:1;" d="M 1371.75 1370.722656 C 1371.226562 1370.722656 1370.835938 1370.574219 1370.578125 1370.285156 C 1370.316406 1369.992188 1370.1875 1369.625 1370.1875 1369.1875 C 1370.1875 1368.824219 1370.21875 1368.460938 1370.285156 1368.09375 C 1370.347656 1367.804688 1370.480469 1367.511719 1370.675781 1367.21875 C 1370.804688 1366.929688 1371.03125 1366.710938 1371.359375 1366.5625 C 1371.683594 1366.417969 1372.074219 1366.34375 1372.53125 1366.34375 C 1372.988281 1366.34375 1373.34375 1366.492188 1373.605469 1366.78125 C 1373.867188 1367.074219 1373.996094 1367.476562 1373.996094 1367.984375 C 1373.996094 1368.789062 1373.800781 1369.445312 1373.410156 1369.957031 C 1373.019531 1370.464844 1372.464844 1370.722656 1371.75 1370.722656 Z M 1371.261719 1369.625 C 1371.261719 1370.210938 1371.421875 1370.503906 1371.75 1370.503906 C 1372.074219 1370.503906 1372.335938 1370.210938 1372.53125 1369.625 C 1372.789062 1368.96875 1372.921875 1368.242188 1372.921875 1367.4375 C 1372.921875 1366.855469 1372.757812 1366.5625 1372.433594 1366.5625 C 1372.171875 1366.5625 1371.910156 1366.855469 1371.652344 1367.4375 C 1371.390625 1367.949219 1371.261719 1368.679688 1371.261719 1369.625 "/>
<path style=" stroke:none;fill-rule:nonzero;fill:rgb(100%,43.921569%,55.686275%);fill-opacity:1;" d="M 1378.195312 1370.503906 C 1378.390625 1370.503906 1378.554688 1370.394531 1378.683594 1370.175781 L 1378.878906 1370.285156 C 1378.816406 1370.429688 1378.71875 1370.539062 1378.585938 1370.613281 C 1378.390625 1370.683594 1378.195312 1370.722656 1378 1370.722656 C 1377.414062 1370.722656 1377.121094 1370.429688 1377.121094 1369.847656 C 1377.121094 1369.554688 1377.1875 1369.078125 1377.316406 1368.421875 C 1377.445312 1367.765625 1377.511719 1367.328125 1377.511719 1367.109375 C 1377.511719 1366.820312 1377.382812 1366.671875 1377.121094 1366.671875 C 1376.730469 1366.671875 1376.371094 1367.257812 1376.046875 1368.421875 L 1375.753906 1370.613281 L 1374.582031 1370.613281 L 1375.167969 1366.5625 C 1374.972656 1366.5625 1374.808594 1366.671875 1374.679688 1366.890625 L 1374.582031 1366.78125 C 1374.777344 1366.492188 1375.003906 1366.34375 1375.265625 1366.34375 C 1375.589844 1366.34375 1375.820312 1366.417969 1375.949219 1366.5625 C 1376.144531 1366.78125 1376.242188 1367.039062 1376.242188 1367.328125 C 1376.503906 1366.671875 1376.894531 1366.34375 1377.414062 1366.34375 C 1377.738281 1366.34375 1378.03125 1366.453125 1378.292969 1366.671875 C 1378.488281 1366.890625 1378.585938 1367.21875 1378.585938 1367.65625 C 1378.71875 1367.21875 1378.878906 1366.890625 1379.074219 1366.671875 C 1379.269531 1366.453125 1379.53125 1366.34375 1379.855469 1366.34375 C 1380.246094 1366.34375 1380.539062 1366.453125 1380.734375 1366.671875 C 1380.996094 1366.964844 1381.125 1367.328125 1381.125 1367.765625 C 1381.125 1367.984375 1381.0625 1368.421875 1380.929688 1369.078125 C 1380.800781 1369.664062 1380.734375 1370.136719 1380.734375 1370.503906 C 1380.867188 1370.503906 1380.996094 1370.394531 1381.125 1370.175781 L 1381.320312 1370.285156 C 1381.257812 1370.429688 1381.160156 1370.539062 1381.027344 1370.613281 C 1380.832031 1370.683594 1380.671875 1370.722656 1380.539062 1370.722656 C 1379.890625 1370.722656 1379.5625 1370.429688 1379.5625 1369.847656 C 1379.5625 1369.554688 1379.628906 1369.078125 1379.757812 1368.421875 C 1379.890625 1367.765625 1379.953125 1367.328125 1379.953125 1367.109375 C 1379.953125 1366.820312 1379.824219 1366.671875 1379.5625 1366.671875 C 1379.109375 1366.671875 1378.71875 1367.476562 1378.390625 1369.078125 C 1378.324219 1369.734375 1378.261719 1370.210938 1378.195312 1370.503906 "/>
<path style=" stroke:none;fill-rule:nonzero;fill:rgb(100%,43.921569%,55.686275%);fill-opacity:1;" d="M 1383.273438 1370.722656 C 1382.820312 1370.722656 1382.460938 1370.574219 1382.199219 1370.285156 C 1381.941406 1369.992188 1381.808594 1369.625 1381.808594 1369.1875 C 1381.808594 1368.824219 1381.84375 1368.460938 1381.90625 1368.09375 C 1381.972656 1367.804688 1382.070312 1367.511719 1382.199219 1367.21875 C 1382.394531 1366.929688 1382.625 1366.710938 1382.882812 1366.5625 C 1383.210938 1366.417969 1383.632812 1366.34375 1384.152344 1366.34375 C 1384.609375 1366.34375 1384.96875 1366.492188 1385.230469 1366.78125 C 1385.488281 1367.074219 1385.621094 1367.476562 1385.621094 1367.984375 C 1385.621094 1368.789062 1385.425781 1369.445312 1385.035156 1369.957031 C 1384.644531 1370.464844 1384.054688 1370.722656 1383.273438 1370.722656 Z M 1382.882812 1369.625 C 1382.882812 1370.210938 1383.046875 1370.503906 1383.371094 1370.503906 C 1383.632812 1370.503906 1383.894531 1370.210938 1384.152344 1369.625 C 1384.414062 1368.96875 1384.546875 1368.242188 1384.546875 1367.4375 C 1384.546875 1366.855469 1384.382812 1366.5625 1384.054688 1366.5625 C 1383.730469 1366.5625 1383.46875 1366.855469 1383.273438 1367.4375 C 1383.015625 1367.949219 1382.882812 1368.679688 1382.882812 1369.625 "/>
<path style=" stroke:none;fill-rule:nonzero;fill:rgb(100%,43.921569%,55.686275%);fill-opacity:1;" d="M 1389.429688 1370.722656 C 1388.90625 1370.722656 1388.613281 1370.429688 1388.550781 1369.847656 C 1388.222656 1370.429688 1387.867188 1370.722656 1387.476562 1370.722656 C 1387.019531 1370.722656 1386.660156 1370.574219 1386.402344 1370.285156 C 1386.207031 1369.992188 1386.109375 1369.589844 1386.109375 1369.078125 C 1386.109375 1368.277344 1386.269531 1367.621094 1386.597656 1367.109375 C 1386.988281 1366.601562 1387.476562 1366.34375 1388.0625 1366.34375 C 1388.386719 1366.34375 1388.648438 1366.453125 1388.84375 1366.671875 C 1388.90625 1366.820312 1388.941406 1366.929688 1388.941406 1367 L 1389.527344 1363.71875 C 1389.332031 1363.71875 1389.167969 1363.828125 1389.039062 1364.046875 L 1388.84375 1363.9375 C 1389.039062 1363.644531 1389.296875 1363.5 1389.625 1363.5 C 1389.882812 1363.5 1390.113281 1363.574219 1390.308594 1363.71875 C 1390.4375 1363.9375 1390.503906 1364.195312 1390.503906 1364.484375 C 1390.503906 1364.558594 1390.503906 1364.667969 1390.503906 1364.8125 C 1390.179688 1366.78125 1389.882812 1368.679688 1389.625 1370.503906 C 1389.753906 1370.503906 1389.882812 1370.394531 1390.015625 1370.175781 L 1390.210938 1370.285156 C 1390.015625 1370.574219 1389.753906 1370.722656 1389.429688 1370.722656 Z M 1387.183594 1369.625 C 1387.183594 1369.917969 1387.214844 1370.136719 1387.28125 1370.285156 C 1387.34375 1370.429688 1387.441406 1370.503906 1387.574219 1370.503906 C 1387.703125 1370.503906 1387.832031 1370.429688 1387.964844 1370.285156 C 1388.09375 1370.210938 1388.191406 1370.101562 1388.257812 1369.957031 C 1388.386719 1369.664062 1388.484375 1369.40625 1388.550781 1369.1875 L 1388.84375 1367.4375 C 1388.84375 1367.21875 1388.777344 1367.039062 1388.648438 1366.890625 C 1388.515625 1366.671875 1388.320312 1366.5625 1388.0625 1366.5625 C 1387.867188 1366.5625 1387.671875 1366.890625 1387.476562 1367.546875 C 1387.28125 1368.277344 1387.183594 1368.96875 1387.183594 1369.625 "/>
<path style=" stroke:none;fill-rule:nonzero;fill:rgb(100%,43.921569%,55.686275%);fill-opacity:1;" d="M 1392.261719 1370.722656 C 1391.804688 1370.722656 1391.449219 1370.574219 1391.1875 1370.285156 C 1390.925781 1369.992188 1390.796875 1369.625 1390.796875 1369.1875 C 1390.796875 1368.824219 1390.828125 1368.460938 1390.894531 1368.09375 C 1390.960938 1367.804688 1391.058594 1367.511719 1391.1875 1367.21875 C 1391.316406 1366.929688 1391.546875 1366.710938 1391.871094 1366.5625 C 1392.195312 1366.417969 1392.585938 1366.34375 1393.042969 1366.34375 C 1393.5625 1366.34375 1393.953125 1366.492188 1394.214844 1366.78125 C 1394.476562 1367.074219 1394.605469 1367.476562 1394.605469 1367.984375 C 1394.605469 1368.789062 1394.410156 1369.445312 1394.019531 1369.957031 C 1393.628906 1370.464844 1393.042969 1370.722656 1392.261719 1370.722656 Z M 1391.871094 1369.625 C 1391.871094 1370.210938 1392 1370.503906 1392.261719 1370.503906 C 1392.585938 1370.503906 1392.878906 1370.210938 1393.140625 1369.625 C 1393.335938 1368.96875 1393.433594 1368.242188 1393.433594 1367.4375 C 1393.433594 1366.855469 1393.304688 1366.5625 1393.042969 1366.5625 C 1392.71875 1366.5625 1392.457031 1366.855469 1392.261719 1367.4375 C 1392 1367.949219 1391.871094 1368.679688 1391.871094 1369.625 "/>
<path style=" stroke:none;fill-rule:nonzero;fill:rgb(100%,43.921569%,55.686275%);fill-opacity:1;" d="M 1395.289062 1366.890625 L 1395.09375 1366.78125 C 1395.289062 1366.492188 1395.550781 1366.34375 1395.875 1366.34375 C 1396.136719 1366.34375 1396.363281 1366.417969 1396.558594 1366.5625 C 1396.691406 1366.78125 1396.753906 1367.039062 1396.753906 1367.328125 L 1396.753906 1367.4375 C 1397.082031 1366.710938 1397.472656 1366.34375 1397.925781 1366.34375 C 1398.449219 1366.34375 1398.707031 1366.636719 1398.707031 1367.21875 C 1398.707031 1367.4375 1398.644531 1367.695312 1398.511719 1367.984375 C 1398.316406 1368.277344 1398.15625 1368.53125 1398.023438 1368.75 C 1397.894531 1368.96875 1397.828125 1369.1875 1397.828125 1369.40625 L 1397.535156 1369.40625 C 1397.535156 1369.117188 1397.699219 1368.75 1398.023438 1368.3125 C 1398.285156 1367.875 1398.414062 1367.511719 1398.414062 1367.21875 C 1398.414062 1367 1398.382812 1366.855469 1398.316406 1366.78125 C 1398.1875 1366.636719 1398.058594 1366.5625 1397.925781 1366.5625 C 1397.730469 1366.5625 1397.570312 1366.671875 1397.4375 1366.890625 C 1397.242188 1367.039062 1397.082031 1367.21875 1396.949219 1367.4375 C 1396.820312 1367.875 1396.722656 1368.203125 1396.65625 1368.421875 L 1396.265625 1370.613281 L 1395.09375 1370.613281 L 1395.777344 1366.5625 C 1395.582031 1366.5625 1395.417969 1366.671875 1395.289062 1366.890625 "/>
<path style=" stroke:none;fill-rule:nonzero;fill:rgb(100%,43.921569%,55.686275%);fill-opacity:1;" d="M 1400.464844 1370.722656 C 1399.945312 1370.722656 1399.554688 1370.574219 1399.292969 1370.285156 C 1399.035156 1369.992188 1398.902344 1369.625 1398.902344 1369.1875 C 1398.902344 1368.824219 1398.9375 1368.460938 1399 1368.09375 C 1399.066406 1367.804688 1399.164062 1367.511719 1399.292969 1367.21875 C 1399.488281 1366.929688 1399.75 1366.710938 1400.074219 1366.5625 C 1400.335938 1366.417969 1400.726562 1366.34375 1401.246094 1366.34375 C 1401.703125 1366.34375 1402.0625 1366.492188 1402.324219 1366.78125 C 1402.582031 1367.074219 1402.714844 1367.476562 1402.714844 1367.984375 C 1402.714844 1368.789062 1402.519531 1369.445312 1402.128906 1369.957031 C 1401.738281 1370.464844 1401.183594 1370.722656 1400.464844 1370.722656 Z M 1399.976562 1369.625 C 1399.976562 1370.210938 1400.140625 1370.503906 1400.464844 1370.503906 C 1400.726562 1370.503906 1400.988281 1370.210938 1401.246094 1369.625 C 1401.507812 1368.96875 1401.640625 1368.242188 1401.640625 1367.4375 C 1401.640625 1366.855469 1401.476562 1366.5625 1401.148438 1366.5625 C 1400.890625 1366.5625 1400.628906 1366.855469 1400.367188 1367.4375 C 1400.109375 1367.949219 1399.976562 1368.679688 1399.976562 1369.625 "/>
</g>
</svg>
