<?xml version="1.0" encoding="UTF-8"?>
<svg xmlns="http://www.w3.org/2000/svg" xmlns:xlink="http://www.w3.org/1999/xlink" width="1920pt" height="1920pt" viewBox="0 0 1920 1920" version="1.1">
<g id="surface1">
<path style="fill:none;stroke-width:0.4;stroke-linecap:round;stroke-linejoin:round;stroke:rgb(93.333333%,16.078431%,21.960784%);stroke-opacity:1;stroke-miterlimit:4;" d="M 24.974253 12.575887 C 24.317993 12.75189 23.519529 12.594968 23.519529 12.594968 C 23.519529 12.594968 22.722792 12.751463 22.066914 12.576385 C 19.747276 12.682614 15.505169 13.521405 15.969078 18.307805 C 16.603859 24.855944 23.519529 24.455238 23.519529 24.455238 C 23.519529 24.455238 30.435199 24.855944 31.069981 18.307805 C 31.533889 13.522473 27.29418 12.682543 24.974253 12.575887 Z M 24.974253 12.575887 " transform="matrix(40.737423,0,0,54.86411,0,0.00000000000011002)"/>
<path style="fill:none;stroke-width:0.4;stroke-linecap:round;stroke-linejoin:round;stroke:rgb(93.333333%,16.078431%,21.960784%);stroke-opacity:1;stroke-miterlimit:4;" d="M 19.580238 16.503916 C 19.580238 16.503916 19.580238 12.661895 23.519721 12.661895 C 27.459204 12.661895 27.459204 16.503916 27.459204 16.503916 " transform="matrix(40.737423,0,0,54.86411,0,0.00000000000011002)"/>
<path style="fill:none;stroke-width:0.4;stroke-linecap:round;stroke-linejoin:round;stroke:rgb(34.117647%,69.411765%,30.980392%);stroke-opacity:1;stroke-miterlimit:4;" d="M 23.519529 9.29128 C 23.519529 9.29128 22.749544 10.164674 22.749544 10.943373 C 22.749544 11.096166 22.78464 11.251592 22.832296 11.404385 C 23.276356 11.886399 23.519721 12.595111 23.519721 12.595039 C 23.519721 12.595039 23.763278 11.886328 24.207337 11.404385 C 24.25509 11.251592 24.290089 11.096166 24.290089 10.943373 C 24.290089 10.164674 23.519529 9.29128 23.519529 9.29128 Z M 23.519529 9.29128 " transform="matrix(40.737423,0,0,54.86411,0,0.00000000000011002)"/>
<path style="fill:none;stroke-width:0.4;stroke-linecap:round;stroke-linejoin:round;stroke:rgb(34.117647%,69.411765%,30.980392%);stroke-opacity:1;stroke-miterlimit:4;" d="M 26.380842 10.943231 C 26.380842 10.943231 26.009753 12.046881 25.335369 12.436266 C 24.661082 12.825581 23.519721 12.595039 23.519721 12.595039 C 23.519721 12.595039 23.890713 11.491389 24.565097 11.102075 C 25.239481 10.71269 26.380842 10.943231 26.380842 10.943231 Z M 26.380842 10.943231 " transform="matrix(40.737423,0,0,54.86411,0,0.00000000000011002)"/>
<path style="fill:none;stroke-width:0.4;stroke-linecap:round;stroke-linejoin:round;stroke:rgb(34.117647%,69.411765%,30.980392%);stroke-opacity:1;stroke-miterlimit:4;" d="M 20.6586 10.943231 C 20.6586 10.943231 21.799961 10.71269 22.474345 11.102075 C 23.148728 11.491389 23.519721 12.595039 23.519721 12.595039 C 23.519721 12.595039 22.37836 12.825581 21.704072 12.436266 C 21.029689 12.046881 20.6586 10.943231 20.6586 10.943231 Z M 20.6586 10.943231 " transform="matrix(40.737423,0,0,54.86411,0,0.00000000000011002)"/>
<path style=" stroke:none;fill-rule:nonzero;fill:rgb(93.72549%,23.921569%,29.411765%);fill-opacity:1;" d="M 387.382812 958.863281 C 233.890625 1262.78125 233.890625 1262.78125 233.890625 1262.78125 C 233.890625 1262.78125 230.242188 1269.375 222.289062 1261.273438 C 214.335938 1253.167969 217.921875 1246.511719 217.921875 1246.511719 C 217.921875 1246.511719 217.921875 1246.511719 387.382812 958.863281 Z M 329.042969 880.308594 C 105.171875 1090.535156 105.171875 1090.535156 105.171875 1090.535156 C 105.171875 1090.535156 100.019531 1094.945312 94.734375 1083.550781 C 89.449219 1072.160156 94.5625 1067.667969 94.5625 1067.667969 C 94.5625 1067.667969 94.5625 1067.667969 329.042969 880.308594 Z M 300.558594 777.960938 C 38.222656 879.328125 38.222656 879.328125 38.222656 879.328125 C 38.222656 879.328125 32.289062 881.253906 30.023438 868.175781 C 27.761719 855.09375 33.679688 853.070312 33.679688 853.070312 C 33.679688 853.070312 33.679688 853.070312 300.558594 777.960938 Z M 298.851562 670.65625 C 26.359375 650.070312 26.359375 650.070312 26.359375 650.070312 C 26.359375 650.070312 20.285156 649.257812 21.34375 635.90625 C 22.40625 622.550781 28.488281 623.261719 28.488281 623.261719 C 28.488281 623.261719 28.488281 623.261719 298.851562 670.65625 Z M 318.746094 581.121094 C 72.070312 423.851562 72.070312 423.851562 72.070312 423.851562 C 72.070312 423.851562 66.667969 420.019531 71.386719 408.1875 C 76.101562 396.351562 81.539062 400.09375 81.539062 400.09375 C 81.539062 400.09375 81.539062 400.09375 318.746094 581.121094 Z M 359.972656 488.074219 C 167.503906 227.484375 167.503906 227.484375 167.503906 227.484375 C 167.503906 227.484375 163.386719 221.410156 170.800781 212.429688 C 178.21875 203.453125 182.390625 209.457031 182.390625 209.457031 C 182.390625 209.457031 182.390625 209.457031 359.972656 488.078125 Z M 426.183594 424.738281 C 302.675781 96.972656 302.675781 96.972656 302.675781 96.972656 C 302.675781 96.972656 300.144531 89.488281 309.257812 84.019531 C 318.367188 78.558594 320.960938 85.996094 320.960938 85.996094 C 320.960938 85.996094 320.960938 85.996094 426.183594 424.738281 Z M 651.617188 450.582031 C 796.265625 138.890625 796.265625 138.890625 796.265625 138.890625 C 796.265625 138.890625 799.71875 132.113281 807.898438 139.796875 C 816.078125 147.480469 812.683594 154.316406 812.683594 154.316406 C 812.683594 154.316406 812.683594 154.316406 651.617188 450.582031 Z M 582.554688 410.542969 C 641.664062 51.707031 641.664062 51.707031 641.664062 51.707031 C 641.664062 51.707031 643.238281 43.761719 652.855469 47.328125 C 662.46875 50.894531 660.964844 58.863281 660.964844 58.863281 C 660.964844 58.863281 660.964844 58.863281 582.554688 410.542969 Z M 503.574219 398.800781 C 472.671875 33.605469 472.671875 33.605469 472.671875 33.605469 C 472.671875 33.605469 472.242188 25.402344 482.195312 24.554688 C 492.148438 23.710938 492.652344 31.90625 492.652344 31.90625 C 492.652344 31.90625 492.652344 31.90625 503.574219 398.800781 Z M 503.574219 398.800781 "/>
<path style=" stroke:none;fill-rule:nonzero;fill:rgb(93.72549%,23.921569%,29.411765%);fill-opacity:1;" d="M 1414.421875 910.707031 C 1456.382812 547.515625 1456.382812 547.515625 1456.382812 547.515625 C 1456.382812 547.515625 1457.578125 539.453125 1467.34375 542.183594 C 1477.109375 544.921875 1475.988281 553 1475.988281 553 C 1475.988281 553 1475.988281 553 1414.421875 910.707031 Z M 1492.132812 948.003906 C 1627.496094 628.84375 1627.496094 628.84375 1627.496094 628.84375 C 1627.496094 628.84375 1630.75 621.882812 1639.148438 629.117188 C 1647.546875 636.359375 1644.351562 643.375 1644.351562 643.375 C 1644.351562 643.375 1644.351562 643.375 1492.125 948.003906 Z M 1550.4375 1024.03125 C 1755.199219 781.023438 1755.199219 781.023438 1755.199219 781.023438 C 1755.199219 781.023438 1759.949219 775.859375 1766.15625 786.367188 C 1772.363281 796.878906 1767.664062 802.125 1767.664062 802.125 C 1767.664062 802.125 1767.664062 802.125 1550.4375 1024.03125 Z M 1586.128906 1119.996094 C 1838.875 981.308594 1838.875 981.308594 1838.875 981.308594 C 1838.875 981.308594 1844.621094 978.53125 1847.914062 991.210938 C 1851.207031 1003.890625 1845.484375 1006.757812 1845.484375 1006.757812 C 1845.484375 1006.757812 1845.484375 1006.757812 1586.128906 1119.996094 Z M 1596.644531 1212.375 C 1869.5625 1212.101562 1869.5625 1212.101562 1869.5625 1212.101562 C 1869.5625 1212.101562 1875.664062 1212.429688 1875.171875 1225.863281 C 1874.671875 1239.277344 1868.574219 1239.03125 1868.574219 1239.03125 C 1868.574219 1239.03125 1868.574219 1239.03125 1596.648438 1212.398438 Z M 1589.007812 1320.242188 C 1845.835938 1444.585938 1845.835938 1444.585938 1845.835938 1444.585938 C 1845.835938 1444.585938 1851.484375 1447.691406 1847.65625 1460.085938 C 1843.8125 1472.480469 1838.132812 1469.464844 1838.132812 1469.464844 C 1838.132812 1469.464844 1838.132812 1469.464844 1589.019531 1320.238281 Z M 1549.339844 1415.683594 C 1765.242188 1640.523438 1765.242188 1640.523438 1765.242188 1640.523438 C 1765.242188 1640.523438 1769.90625 1645.824219 1763.417969 1656.027344 C 1756.925781 1666.222656 1752.214844 1660.996094 1752.214844 1660.996094 C 1752.214844 1660.996094 1752.214844 1660.996094 1549.34375 1415.683594 Z M 1337.441406 1522.457031 C 1305.945312 1887.5625 1305.945312 1887.5625 1305.945312 1887.5625 C 1305.945312 1887.5625 1304.980469 1895.679688 1295.144531 1893.460938 C 1285.308594 1891.246094 1286.199219 1883.105469 1286.199219 1883.105469 C 1286.199219 1883.105469 1286.199219 1883.105469 1337.441406 1522.457031 Z M 1412.582031 1518.773438 C 1473.371094 1877.097656 1473.371094 1877.097656 1473.371094 1877.097656 C 1473.371094 1877.097656 1474.476562 1885.183594 1464.652344 1887.511719 C 1454.828125 1889.824219 1453.65625 1881.769531 1453.65625 1881.769531 C 1453.65625 1881.769531 1453.65625 1881.769531 1412.582031 1518.769531 Z M 1487.675781 1483.792969 C 1631.816406 1795.90625 1631.816406 1795.90625 1631.816406 1795.90625 C 1631.816406 1795.90625 1634.816406 1803.066406 1626.09375 1809.578125 C 1617.367188 1816.085938 1614.304688 1808.980469 1614.304688 1808.980469 C 1614.304688 1808.980469 1614.304688 1808.980469 1487.675781 1483.796875 Z M 1487.675781 1483.792969 "/>
</g>
</svg>
