<?xml version="1.0" encoding="utf-8"?><svg xmlns="http://www.w3.org/2000/svg" width="280" height="250" preserveAspectRatio="xMidYMid" xmlns:xlink="http://www.w3.org/1999/xlink" style="margin-right:-2px;display:block;background-repeat-y:initial;background-repeat-x:initial;background-color:rgb(241, 242, 243);animation-play-state:paused" ><style type="text/css" style="animation-play-state:paused" >text {
    text-anchor: middle; font-size: 9px; opacity: 0;
  }</style>


<g style="transform-origin:140px 125px;transform:matrix(9, 0, 0, 9, 0, 0);animation-play-state:paused" ><g transform="translate(140,125)" style="transform:matrix(1, 0, 0, 1, 140, 125);animation-play-state:paused" ><g transform="translate(0,0)" style="transform:matrix(1, 0, 0, 1, 0, 0);animation-play-state:paused" ><g class="path" style="transform-origin:-2.91499px 0.0794157px;transform:matrix(1.00565, 0, 0, 1.00565, 0, 0);animation-timing-function:linear;animation-play-state:paused;animation-name:breath-f085f2ba-89f8-444f-88cf-b0bd6416937c;animation-iteration-count:infinite;animation-fill-mode:forwards;animation-duration:1s;animation-delay:-0.609231s" ><path d="M0.31 0.15L0.31 0.15L0.31 0.13L0.31 0.13Q0.37 0.13 0.39 0.10L0.39 0.10L0.39 0.10Q0.41 0.07 0.43-0.03L0.43-0.03L0.53-0.58L0.53-0.58Q0.32-0.57 0.21-0.50L0.21-0.50L0.21-0.50Q0.10-0.42 0.10-0.31L0.10-0.31L0.10-0.31Q0.10-0.26 0.14-0.22L0.14-0.22L0.14-0.22Q0.16-0.20 0.20-0.19L0.20-0.19L0.20-0.19Q0.24-0.17 0.27-0.17L0.27-0.17L0.27-0.17Q0.30-0.17 0.30-0.17L0.30-0.17L0.30-0.15L0.30-0.15Q0.18-0.15 0.12-0.21L0.12-0.21L0.12-0.21Q0.08-0.25 0.08-0.31L0.08-0.31L0.08-0.31Q0.08-0.45 0.23-0.53L0.23-0.53L0.23-0.53Q0.38-0.61 0.65-0.61L0.65-0.61L0.65-0.61Q0.82-0.61 0.90-0.56L0.90-0.56L0.90-0.56Q0.97-0.52 0.97-0.44L0.97-0.44L0.97-0.44Q0.97-0.36 0.91-0.30L0.91-0.30L0.91-0.30Q0.86-0.24 0.77-0.21L0.77-0.21L0.77-0.21Q0.90 0.06 0.94 0.11L0.94 0.11L0.94 0.11Q0.97 0.17 1.02 0.17L1.02 0.17L1.02 0.17Q1.06 0.17 1.08 0.15L1.08 0.15L1.08 0.15Q1.10 0.13 1.11 0.09L1.11 0.09L1.14 0.09L1.14 0.09Q1.11 0.20 0.98 0.20L0.98 0.20L0.98 0.20Q0.90 0.20 0.85 0.16L0.85 0.16L0.85 0.16Q0.80 0.12 0.77 0.05L0.77 0.05L0.66-0.19L0.66-0.19Q0.62-0.18 0.60-0.18L0.60-0.18L0.60-0.18Q0.60-0.17 0.59-0.13L0.59-0.13L0.59-0.13Q0.58-0.10 0.58-0.08L0.58-0.08L0.58-0.08Q0.56 0.03 0.48 0.09L0.48 0.09L0.48 0.09Q0.40 0.15 0.31 0.15zM0.94-0.43L0.94-0.43L0.94-0.43Q0.94-0.59 0.66-0.59L0.66-0.59L0.60-0.21L0.60-0.21Q0.74-0.21 0.84-0.28L0.84-0.28L0.84-0.28Q0.94-0.34 0.94-0.43" fill="#ff708e" stroke="none" stroke-width="none" transform="translate(-3.524993896484375,0.2844157057542134)" style="transform:matrix(1, 0, 0, 1, -3.52499, 0.284416);fill:rgb(255, 112, 142);animation-play-state:paused" ></path></g>
<g class="path" style="transform-origin:-2.31999px 0.0944157px;transform:matrix(1.01808, 0, 0, 1.01808, 0, 0);animation-timing-function:linear;animation-play-state:paused;animation-name:breath-f085f2ba-89f8-444f-88cf-b0bd6416937c;animation-iteration-count:infinite;animation-fill-mode:forwards;animation-duration:1s;animation-delay:-0.558462s" ><path d="M1.17 0.01L1.17 0.01Q1.09 0.01 1.05-0.03L1.05-0.03L1.05-0.03Q1.01-0.07 1.01-0.13L1.01-0.13L1.01-0.13Q1.01-0.18 1.02-0.23L1.02-0.23L1.02-0.23Q1.03-0.27 1.06-0.31L1.06-0.31L1.06-0.31Q1.08-0.35 1.13-0.37L1.13-0.37L1.13-0.37Q1.18-0.39 1.25-0.39L1.25-0.39L1.25-0.39Q1.32-0.39 1.36-0.35L1.36-0.35L1.36-0.35Q1.40-0.31 1.40-0.24L1.40-0.24L1.40-0.24Q1.40-0.13 1.34-0.06L1.34-0.06L1.34-0.06Q1.28 0.01 1.17 0.01L1.17 0.01zM1.12-0.09L1.12-0.09L1.12-0.09Q1.12-0.01 1.17-0.01L1.17-0.01L1.17-0.01Q1.22-0.01 1.25-0.09L1.25-0.09L1.25-0.09Q1.29-0.18 1.29-0.29L1.29-0.29L1.29-0.29Q1.29-0.37 1.24-0.37L1.24-0.37L1.24-0.37Q1.20-0.37 1.16-0.29L1.16-0.29L1.16-0.29Q1.12-0.22 1.12-0.09" fill="#ff708e" stroke="none" stroke-width="none" transform="translate(-3.524993896484375,0.2844157057542134)" style="transform:matrix(1, 0, 0, 1, -3.52499, 0.284416);fill:rgb(255, 112, 142);animation-play-state:paused" ></path></g>
<g class="path" style="transform-origin:-1.92999px 0.0744157px;transform:matrix(1.0294, 0, 0, 1.0294, 0, 0);animation-timing-function:linear;animation-play-state:paused;animation-name:breath-f085f2ba-89f8-444f-88cf-b0bd6416937c;animation-iteration-count:infinite;animation-fill-mode:forwards;animation-duration:1s;animation-delay:-0.507692s" ><path d="M1.55-0.02L1.55-0.02L1.55-0.02Q1.64-0.02 1.64-0.16L1.64-0.16L1.64-0.16Q1.64-0.20 1.63-0.25L1.63-0.25L1.63-0.25Q1.62-0.30 1.62-0.31L1.62-0.31L1.62-0.31Q1.56-0.25 1.48-0.23L1.48-0.23L1.48-0.26L1.48-0.26Q1.56-0.27 1.62-0.34L1.62-0.34L1.62-0.34L1.62-0.34Q1.62-0.37 1.63-0.39L1.63-0.39L1.63-0.39Q1.63-0.41 1.64-0.42L1.64-0.42L1.65-0.43L1.67-0.43L1.67-0.43Q1.67-0.39 1.69-0.35L1.69-0.35L1.69-0.35Q1.70-0.32 1.72-0.30L1.72-0.30L1.72-0.30Q1.73-0.27 1.75-0.24L1.75-0.24L1.75-0.24Q1.76-0.20 1.76-0.16L1.76-0.16L1.76-0.16Q1.76-0.09 1.71-0.04L1.71-0.04L1.71-0.04Q1.65 0.01 1.58 0.01L1.58 0.01L1.58 0.01Q1.50 0.01 1.47-0.03L1.47-0.03L1.47-0.03Q1.43-0.06 1.43-0.10L1.43-0.10L1.43-0.10Q1.43-0.15 1.45-0.17L1.45-0.17L1.45-0.17Q1.47-0.19 1.50-0.19L1.50-0.19L1.50-0.19Q1.53-0.19 1.55-0.17L1.55-0.17L1.55-0.17Q1.57-0.15 1.57-0.12L1.57-0.12L1.57-0.12Q1.57-0.09 1.55-0.07L1.55-0.07L1.55-0.07Q1.53-0.04 1.50-0.04L1.50-0.04L1.50-0.04Q1.49-0.04 1.48-0.05L1.48-0.05L1.48-0.05Q1.50-0.02 1.55-0.02" fill="#ff708e" stroke="none" stroke-width="none" transform="translate(-3.524993896484375,0.2844157057542134)" style="transform:matrix(1, 0, 0, 1, -3.52499, 0.284416);fill:rgb(255, 112, 142);animation-play-state:paused" ></path></g>
<g class="path" style="transform-origin:-1.55999px 0.0744157px;transform:matrix(1.01746, 0, 0, 1.01746, 0, 0);animation-timing-function:linear;animation-play-state:paused;animation-name:breath-f085f2ba-89f8-444f-88cf-b0bd6416937c;animation-iteration-count:infinite;animation-fill-mode:forwards;animation-duration:1s;animation-delay:-0.456923s" ><path d="M1.91-0.02L1.91-0.02L1.91-0.02Q2.01-0.02 2.01-0.16L2.01-0.16L2.01-0.16Q2.01-0.20 2.00-0.25L2.00-0.25L2.00-0.25Q1.99-0.30 1.99-0.31L1.99-0.31L1.99-0.31Q1.93-0.25 1.85-0.23L1.85-0.23L1.85-0.26L1.85-0.26Q1.92-0.27 1.99-0.34L1.99-0.34L1.99-0.34L1.99-0.34Q1.99-0.37 1.99-0.39L1.99-0.39L1.99-0.39Q2.00-0.41 2.01-0.42L2.01-0.42L2.02-0.43L2.04-0.43L2.04-0.43Q2.04-0.39 2.05-0.35L2.05-0.35L2.05-0.35Q2.07-0.32 2.08-0.30L2.08-0.30L2.08-0.30Q2.10-0.27 2.12-0.24L2.12-0.24L2.12-0.24Q2.13-0.20 2.13-0.16L2.13-0.16L2.13-0.16Q2.13-0.09 2.08-0.04L2.08-0.04L2.08-0.04Q2.02 0.01 1.95 0.01L1.95 0.01L1.95 0.01Q1.87 0.01 1.83-0.03L1.83-0.03L1.83-0.03Q1.80-0.06 1.80-0.10L1.80-0.10L1.80-0.10Q1.80-0.15 1.82-0.17L1.82-0.17L1.82-0.17Q1.84-0.19 1.87-0.19L1.87-0.19L1.87-0.19Q1.90-0.19 1.92-0.17L1.92-0.17L1.92-0.17Q1.94-0.15 1.94-0.12L1.94-0.12L1.94-0.12Q1.94-0.09 1.92-0.07L1.92-0.07L1.92-0.07Q1.90-0.04 1.87-0.04L1.87-0.04L1.87-0.04Q1.86-0.04 1.84-0.05L1.84-0.05L1.84-0.05Q1.87-0.02 1.91-0.02" fill="#ff708e" stroke="none" stroke-width="none" transform="translate(-3.524993896484375,0.2844157057542134)" style="transform:matrix(1, 0, 0, 1, -3.52499, 0.284416);fill:rgb(255, 112, 142);animation-play-state:paused" ></path></g>
<g class="path" style="transform-origin:-1.13999px 0.0944157px;transform:matrix(1.00552, 0, 0, 1.00552, 0, 0);animation-timing-function:linear;animation-play-state:paused;animation-name:breath-f085f2ba-89f8-444f-88cf-b0bd6416937c;animation-iteration-count:infinite;animation-fill-mode:forwards;animation-duration:1s;animation-delay:-0.406154s" ><path d="M2.34 0.01L2.34 0.01Q2.27 0.01 2.23-0.03L2.23-0.03L2.23-0.03Q2.19-0.07 2.19-0.13L2.19-0.13L2.19-0.13Q2.19-0.18 2.20-0.23L2.20-0.23L2.20-0.23Q2.21-0.27 2.23-0.31L2.23-0.31L2.23-0.31Q2.26-0.35 2.30-0.37L2.30-0.37L2.30-0.37Q2.35-0.39 2.43-0.39L2.43-0.39L2.43-0.39Q2.50-0.39 2.54-0.35L2.54-0.35L2.54-0.35Q2.58-0.31 2.58-0.24L2.58-0.24L2.58-0.24Q2.58-0.13 2.52-0.06L2.52-0.06L2.52-0.06Q2.46 0.01 2.34 0.01L2.34 0.01zM2.30-0.09L2.30-0.09L2.30-0.09Q2.30-0.01 2.35-0.01L2.35-0.01L2.35-0.01Q2.39-0.01 2.43-0.09L2.43-0.09L2.43-0.09Q2.47-0.18 2.47-0.29L2.47-0.29L2.47-0.29Q2.47-0.37 2.42-0.37L2.42-0.37L2.42-0.37Q2.38-0.37 2.34-0.29L2.34-0.29L2.34-0.29Q2.30-0.22 2.30-0.09" fill="#ff708e" stroke="none" stroke-width="none" transform="translate(-3.524993896484375,0.2844157057542134)" style="transform:matrix(1, 0, 0, 1, -3.52499, 0.284416);fill:rgb(255, 112, 142);animation-play-state:paused" ></path></g>
<g class="path" style="transform-origin:-0.199994px 0.0294157px;transform:matrix(0.993578, 0, 0, 0.993578, 0, 0);animation-timing-function:linear;animation-play-state:paused;animation-name:breath-f085f2ba-89f8-444f-88cf-b0bd6416937c;animation-iteration-count:infinite;animation-fill-mode:forwards;animation-duration:1s;animation-delay:-0.355385s" ><path d="M3.25 0.12L3.25 0.12L3.25 0.12Q3.19 0.15 3.12 0.15L3.12 0.15L3.12 0.15Q3.04 0.15 3.00 0.13L3.00 0.13L3.00 0.13Q2.96 0.11 2.96 0.07L2.96 0.07L2.96 0.07Q2.96 0.04 2.99 0.01L2.99 0.01L2.99 0.01Q3.02-0.01 3.08-0.01L3.08-0.01L3.08-0.01Q3.16-0.01 3.22 0.05L3.22 0.05L3.22 0.05Q3.23 0.01 3.24-0.03L3.24-0.03L3.24-0.07L3.20-0.07L3.20-0.09L3.25-0.09L3.32-0.53L3.32-0.53Q3.33-0.56 3.34-0.58L3.34-0.58L3.34-0.58Q3.13-0.57 3.02-0.50L3.02-0.50L3.02-0.50Q2.91-0.43 2.91-0.31L2.91-0.31L2.91-0.31Q2.91-0.26 2.94-0.22L2.94-0.22L2.94-0.22Q2.97-0.20 3.01-0.19L3.01-0.19L3.01-0.19Q3.05-0.17 3.08-0.17L3.08-0.17L3.08-0.17Q3.10-0.17 3.10-0.17L3.10-0.17L3.10-0.15L3.10-0.15Q2.99-0.15 2.93-0.21L2.93-0.21L2.93-0.21Q2.89-0.25 2.89-0.31L2.89-0.31L2.89-0.31Q2.89-0.44 3.01-0.51L3.01-0.51L3.01-0.51Q3.13-0.59 3.35-0.60L3.35-0.60L3.35-0.60Q3.39-0.71 3.52-0.71L3.52-0.71L3.52-0.68L3.52-0.68Q3.50-0.68 3.49-0.66L3.49-0.66L3.49-0.66Q3.48-0.65 3.47-0.61L3.47-0.61L3.47-0.61Q3.55-0.61 3.61-0.59L3.61-0.59L3.61-0.59Q3.67-0.57 3.70-0.54L3.70-0.54L3.70-0.54Q3.76-0.48 3.76-0.39L3.76-0.39L3.76-0.39Q3.76-0.33 3.74-0.28L3.74-0.28L3.74-0.28Q3.71-0.23 3.68-0.20L3.68-0.20L3.68-0.20Q3.64-0.16 3.59-0.14L3.59-0.14L3.59-0.14Q3.50-0.10 3.38-0.08L3.38-0.08L3.38-0.08L3.38-0.08Q3.36 0.04 3.27 0.10L3.27 0.10L3.27 0.10Q3.31 0.14 3.36 0.16L3.36 0.16L3.36 0.16Q3.41 0.18 3.49 0.18L3.49 0.18L3.49 0.20L3.49 0.20Q3.41 0.20 3.35 0.18L3.35 0.18L3.35 0.18Q3.30 0.16 3.25 0.12zM3.74-0.39L3.74-0.39L3.74-0.39Q3.74-0.48 3.67-0.54L3.67-0.54L3.67-0.54Q3.60-0.59 3.47-0.59L3.47-0.59L3.47-0.59Q3.43-0.32 3.39-0.10L3.39-0.10L3.39-0.10Q3.74-0.15 3.74-0.39zM3.21 0.07L3.21 0.07Q3.18 0.04 3.15 0.03L3.15 0.03L3.15 0.03Q3.12 0.01 3.08 0.01L3.08 0.01L3.08 0.01Q3.04 0.01 3.01 0.03L3.01 0.03L3.01 0.03Q2.99 0.04 2.99 0.07L2.99 0.07L2.99 0.07Q2.99 0.10 3.02 0.12L3.02 0.12L3.02 0.12Q3.05 0.13 3.10 0.13L3.10 0.13L3.10 0.13Q3.14 0.13 3.17 0.12L3.17 0.12L3.17 0.12Q3.20 0.11 3.21 0.07L3.21 0.07" fill="#ff708e" stroke="none" stroke-width="none" transform="translate(-3.524993896484375,0.2844157057542134)" style="transform:matrix(1, 0, 0, 1, -3.52499, 0.284416);fill:rgb(255, 112, 142);animation-play-state:paused" ></path></g>
<g class="path" style="transform-origin:0.470006px 0.0944157px;transform:matrix(0.981638, 0, 0, 0.981638, 0, 0);animation-timing-function:linear;animation-play-state:paused;animation-name:breath-f085f2ba-89f8-444f-88cf-b0bd6416937c;animation-iteration-count:infinite;animation-fill-mode:forwards;animation-duration:1s;animation-delay:-0.304615s" ><path d="M3.96 0.01L3.96 0.01Q3.88 0.01 3.84-0.03L3.84-0.03L3.84-0.03Q3.80-0.07 3.80-0.13L3.80-0.13L3.80-0.13Q3.80-0.18 3.81-0.23L3.81-0.23L3.81-0.23Q3.82-0.27 3.85-0.31L3.85-0.31L3.85-0.31Q3.87-0.35 3.92-0.37L3.92-0.37L3.92-0.37Q3.97-0.39 4.04-0.39L4.04-0.39L4.04-0.39Q4.11-0.39 4.15-0.35L4.15-0.35L4.15-0.35Q4.19-0.31 4.19-0.24L4.19-0.24L4.19-0.24Q4.19-0.13 4.13-0.06L4.13-0.06L4.13-0.06Q4.07 0.01 3.96 0.01L3.96 0.01zM3.91-0.09L3.91-0.09L3.91-0.09Q3.91-0.01 3.96-0.01L3.96-0.01L3.96-0.01Q4.01-0.01 4.04-0.09L4.04-0.09L4.04-0.09Q4.08-0.18 4.08-0.29L4.08-0.29L4.08-0.29Q4.08-0.37 4.03-0.37L4.03-0.37L4.03-0.37Q3.99-0.37 3.95-0.29L3.95-0.29L3.95-0.29Q3.91-0.22 3.91-0.09" fill="#ff708e" stroke="none" stroke-width="none" transform="translate(-3.524993896484375,0.2844157057542134)" style="transform:matrix(1, 0, 0, 1, -3.52499, 0.284416);fill:rgb(255, 112, 142);animation-play-state:paused" ></path></g>
<g class="path" style="transform-origin:1.07001px 0.0944157px;transform:matrix(0.969699, 0, 0, 0.969699, 0, 0);animation-timing-function:linear;animation-play-state:paused;animation-name:breath-f085f2ba-89f8-444f-88cf-b0bd6416937c;animation-iteration-count:infinite;animation-fill-mode:forwards;animation-duration:1s;animation-delay:-0.253846s" ><path d="M4.62-0.01L4.62-0.01L4.62-0.01Q4.65-0.01 4.67-0.04L4.67-0.04L4.69-0.03L4.69-0.03Q4.68-0.01 4.66-0.00L4.66-0.00L4.66-0.00Q4.63 0.01 4.60 0.01L4.60 0.01L4.60 0.01Q4.51 0.01 4.51-0.07L4.51-0.07L4.51-0.07Q4.51-0.11 4.53-0.20L4.53-0.20L4.53-0.20Q4.55-0.29 4.55-0.32L4.55-0.32L4.55-0.32Q4.55-0.36 4.51-0.36L4.51-0.36L4.51-0.36Q4.45-0.36 4.40-0.20L4.40-0.20L4.37 0L4.25 0L4.31-0.37L4.31-0.37Q4.28-0.37 4.26-0.34L4.26-0.34L4.25-0.35L4.25-0.35Q4.28-0.39 4.32-0.39L4.32-0.39L4.32-0.39Q4.37-0.39 4.39-0.37L4.39-0.37L4.39-0.37Q4.42-0.34 4.42-0.30L4.42-0.30L4.42-0.30L4.42-0.30Q4.46-0.39 4.54-0.39L4.54-0.39L4.54-0.39Q4.59-0.39 4.63-0.36L4.63-0.36L4.63-0.36Q4.66-0.33 4.66-0.27L4.66-0.27L4.66-0.27Q4.68-0.33 4.71-0.36L4.71-0.36L4.71-0.36Q4.74-0.39 4.79-0.39L4.79-0.39L4.79-0.39Q4.85-0.39 4.88-0.36L4.88-0.36L4.88-0.36Q4.92-0.32 4.92-0.26L4.92-0.26L4.92-0.26Q4.92-0.23 4.90-0.14L4.90-0.14L4.90-0.14Q4.88-0.06 4.88-0.01L4.88-0.01L4.88-0.01Q4.90-0.01 4.92-0.04L4.92-0.04L4.94-0.03L4.94-0.03Q4.93-0.01 4.91-0.00L4.91-0.00L4.91-0.00Q4.88 0.01 4.86 0.01L4.86 0.01L4.86 0.01Q4.76 0.01 4.76-0.07L4.76-0.07L4.76-0.07Q4.76-0.11 4.78-0.20L4.78-0.20L4.78-0.20Q4.80-0.29 4.80-0.32L4.80-0.32L4.80-0.32Q4.80-0.36 4.76-0.36L4.76-0.36L4.76-0.36Q4.69-0.36 4.64-0.14L4.64-0.14L4.64-0.14Q4.63-0.05 4.62-0.01" fill="#ff708e" stroke="none" stroke-width="none" transform="translate(-3.524993896484375,0.2844157057542134)" style="transform:matrix(1, 0, 0, 1, -3.52499, 0.284416);fill:rgb(255, 112, 142);animation-play-state:paused" ></path></g>
<g class="path" style="transform-origin:1.66001px 0.0944157px;transform:matrix(0.957759, 0, 0, 0.957759, 0, 0);animation-timing-function:linear;animation-play-state:paused;animation-name:breath-f085f2ba-89f8-444f-88cf-b0bd6416937c;animation-iteration-count:infinite;animation-fill-mode:forwards;animation-duration:1s;animation-delay:-0.203077s" ><path d="M5.14 0.01L5.14 0.01Q5.07 0.01 5.03-0.03L5.03-0.03L5.03-0.03Q4.99-0.07 4.99-0.13L4.99-0.13L4.99-0.13Q4.99-0.18 5.00-0.23L5.00-0.23L5.00-0.23Q5.01-0.27 5.03-0.31L5.03-0.31L5.03-0.31Q5.06-0.35 5.10-0.37L5.10-0.37L5.10-0.37Q5.15-0.39 5.23-0.39L5.23-0.39L5.23-0.39Q5.30-0.39 5.34-0.35L5.34-0.35L5.34-0.35Q5.38-0.31 5.38-0.24L5.38-0.24L5.38-0.24Q5.38-0.13 5.32-0.06L5.32-0.06L5.32-0.06Q5.26 0.01 5.14 0.01L5.14 0.01zM5.10-0.09L5.10-0.09L5.10-0.09Q5.10-0.01 5.15-0.01L5.15-0.01L5.15-0.01Q5.19-0.01 5.23-0.09L5.23-0.09L5.23-0.09Q5.27-0.18 5.27-0.29L5.27-0.29L5.27-0.29Q5.27-0.37 5.22-0.37L5.22-0.37L5.22-0.37Q5.17-0.37 5.14-0.29L5.14-0.29L5.14-0.29Q5.10-0.22 5.10-0.09" fill="#ff708e" stroke="none" stroke-width="none" transform="translate(-3.524993896484375,0.2844157057542134)" style="transform:matrix(1, 0, 0, 1, -3.52499, 0.284416);fill:rgb(255, 112, 142);animation-play-state:paused" ></path></g>
<g class="path" style="transform-origin:2.13001px -0.0355843px;transform:matrix(0.945819, 0, 0, 0.945819, 0, 0);animation-timing-function:linear;animation-play-state:paused;animation-name:breath-f085f2ba-89f8-444f-88cf-b0bd6416937c;animation-iteration-count:infinite;animation-fill-mode:forwards;animation-duration:1s;animation-delay:-0.152308s" ><path d="M5.77 0.01L5.77 0.01L5.77 0.01Q5.69 0.01 5.68-0.07L5.68-0.07L5.68-0.07Q5.63 0.01 5.57 0.01L5.57 0.01L5.57 0.01Q5.50 0.01 5.46-0.03L5.46-0.03L5.46-0.03Q5.43-0.07 5.43-0.14L5.43-0.14L5.43-0.14Q5.43-0.25 5.48-0.32L5.48-0.32L5.48-0.32Q5.54-0.39 5.63-0.39L5.63-0.39L5.63-0.39Q5.68-0.39 5.71-0.36L5.71-0.36L5.71-0.36Q5.72-0.34 5.72-0.33L5.72-0.33L5.78-0.63L5.78-0.63Q5.75-0.63 5.73-0.60L5.73-0.60L5.71-0.61L5.71-0.61Q5.74-0.65 5.79-0.65L5.79-0.65L5.79-0.65Q5.83-0.65 5.86-0.63L5.86-0.63L5.86-0.63Q5.88-0.60 5.88-0.56L5.88-0.56L5.88-0.56Q5.88-0.55 5.88-0.53L5.88-0.53L5.88-0.53Q5.83-0.26 5.79-0.01L5.79-0.01L5.79-0.01Q5.81-0.01 5.83-0.04L5.83-0.04L5.85-0.03L5.85-0.03Q5.82 0.01 5.77 0.01zM5.54-0.09L5.54-0.09Q5.54-0.05 5.55-0.03L5.55-0.03L5.55-0.03Q5.56-0.01 5.58-0.01L5.58-0.01L5.58-0.01Q5.60-0.01 5.62-0.03L5.62-0.03L5.62-0.03Q5.64-0.04 5.65-0.06L5.65-0.06L5.65-0.06Q5.67-0.10 5.68-0.13L5.68-0.13L5.71-0.29L5.71-0.29Q5.71-0.32 5.69-0.34L5.69-0.34L5.69-0.34Q5.67-0.37 5.63-0.37L5.63-0.37L5.63-0.37Q5.60-0.37 5.57-0.28L5.57-0.28L5.57-0.28Q5.54-0.18 5.54-0.09L5.54-0.09" fill="#ff708e" stroke="none" stroke-width="none" transform="translate(-3.524993896484375,0.2844157057542134)" style="transform:matrix(1, 0, 0, 1, -3.52499, 0.284416);fill:rgb(255, 112, 142);animation-play-state:paused" ></path></g>
<g class="path" style="transform-origin:2.58001px 0.0944157px;transform:matrix(0.933879, 0, 0, 0.933879, 0, 0);animation-timing-function:linear;animation-play-state:paused;animation-name:breath-f085f2ba-89f8-444f-88cf-b0bd6416937c;animation-iteration-count:infinite;animation-fill-mode:forwards;animation-duration:1s;animation-delay:-0.101538s" ><path d="M6.06 0.01L6.06 0.01Q5.99 0.01 5.95-0.03L5.95-0.03L5.95-0.03Q5.91-0.07 5.91-0.13L5.91-0.13L5.91-0.13Q5.91-0.18 5.92-0.23L5.92-0.23L5.92-0.23Q5.93-0.27 5.95-0.31L5.95-0.31L5.95-0.31Q5.97-0.35 6.02-0.37L6.02-0.37L6.02-0.37Q6.07-0.39 6.14-0.39L6.14-0.39L6.14-0.39Q6.22-0.39 6.26-0.35L6.26-0.35L6.26-0.35Q6.30-0.31 6.30-0.24L6.30-0.24L6.30-0.24Q6.30-0.13 6.24-0.06L6.24-0.06L6.24-0.06Q6.18 0.01 6.06 0.01L6.06 0.01zM6.02-0.09L6.02-0.09L6.02-0.09Q6.02-0.01 6.06-0.01L6.06-0.01L6.06-0.01Q6.11-0.01 6.15-0.09L6.15-0.09L6.15-0.09Q6.18-0.18 6.18-0.29L6.18-0.29L6.18-0.29Q6.18-0.37 6.14-0.37L6.14-0.37L6.14-0.37Q6.09-0.37 6.06-0.29L6.06-0.29L6.06-0.29Q6.02-0.22 6.02-0.09" fill="#ff708e" stroke="none" stroke-width="none" transform="translate(-3.524993896484375,0.2844157057542134)" style="transform:matrix(1, 0, 0, 1, -3.52499, 0.284416);fill:rgb(255, 112, 142);animation-play-state:paused" ></path></g>
<g class="path" style="transform-origin:3.01001px 0.0894157px;transform:matrix(0.92194, 0, 0, 0.92194, 0, 0);animation-timing-function:linear;animation-play-state:paused;animation-name:breath-f085f2ba-89f8-444f-88cf-b0bd6416937c;animation-iteration-count:infinite;animation-fill-mode:forwards;animation-duration:1s;animation-delay:-0.0507692s" ><path d="M6.37-0.34L6.35-0.35L6.35-0.35Q6.38-0.39 6.43-0.39L6.43-0.39L6.43-0.39Q6.47-0.39 6.50-0.37L6.50-0.37L6.50-0.37Q6.52-0.34 6.52-0.30L6.52-0.30L6.52-0.29L6.52-0.29Q6.57-0.39 6.64-0.39L6.64-0.39L6.64-0.39Q6.72-0.39 6.72-0.31L6.72-0.31L6.72-0.31Q6.72-0.28 6.70-0.24L6.70-0.24L6.70-0.24Q6.67-0.20 6.65-0.17L6.65-0.17L6.65-0.17Q6.63-0.14 6.63-0.11L6.63-0.11L6.60-0.11L6.60-0.11Q6.60-0.15 6.65-0.21L6.65-0.21L6.65-0.21Q6.69-0.27 6.69-0.31L6.69-0.31L6.69-0.31Q6.69-0.34 6.68-0.35L6.68-0.35L6.68-0.35Q6.66-0.37 6.64-0.37L6.64-0.37L6.64-0.37Q6.61-0.37 6.59-0.34L6.59-0.34L6.59-0.34Q6.56-0.32 6.54-0.29L6.54-0.29L6.54-0.29Q6.52-0.23 6.51-0.20L6.51-0.20L6.51-0.20L6.47 0L6.35 0L6.42-0.37L6.42-0.37Q6.39-0.37 6.37-0.34L6.37-0.34" fill="#ff708e" stroke="none" stroke-width="none" transform="translate(-3.524993896484375,0.2844157057542134)" style="transform:matrix(1, 0, 0, 1, -3.52499, 0.284416);fill:rgb(255, 112, 142);animation-play-state:paused" ></path></g>
<g class="path" style="transform-origin:3.41001px 0.0944157px;transform:matrix(0.91, 0, 0, 0.91, 0, 0);animation-timing-function:linear;animation-play-state:paused;animation-name:breath-f085f2ba-89f8-444f-88cf-b0bd6416937c;animation-iteration-count:infinite;animation-fill-mode:forwards;animation-duration:1s" ><path d="M6.90 0.01L6.90 0.01Q6.82 0.01 6.78-0.03L6.78-0.03L6.78-0.03Q6.74-0.07 6.74-0.13L6.74-0.13L6.74-0.13Q6.74-0.18 6.75-0.23L6.75-0.23L6.75-0.23Q6.76-0.27 6.78-0.31L6.78-0.31L6.78-0.31Q6.81-0.35 6.86-0.37L6.86-0.37L6.86-0.37Q6.90-0.39 6.98-0.39L6.98-0.39L6.98-0.39Q7.05-0.39 7.09-0.35L7.09-0.35L7.09-0.35Q7.13-0.31 7.13-0.24L7.13-0.24L7.13-0.24Q7.13-0.13 7.07-0.06L7.07-0.06L7.07-0.06Q7.01 0.01 6.90 0.01L6.90 0.01zM6.85-0.09L6.85-0.09L6.85-0.09Q6.85-0.01 6.90-0.01L6.90-0.01L6.90-0.01Q6.94-0.01 6.98-0.09L6.98-0.09L6.98-0.09Q7.02-0.18 7.02-0.29L7.02-0.29L7.02-0.29Q7.02-0.37 6.97-0.37L6.97-0.37L6.97-0.37Q6.93-0.37 6.89-0.29L6.89-0.29L6.89-0.29Q6.85-0.22 6.85-0.09" fill="#ff708e" stroke="none" stroke-width="none" transform="translate(-3.524993896484375,0.2844157057542134)" style="transform:matrix(1, 0, 0, 1, -3.52499, 0.284416);fill:rgb(255, 112, 142);animation-play-state:paused" ></path></g></g></g></g></svg>